<?xml version="1.0" encoding="utf-8" standalone="no"?>
<!DOCTYPE svg PUBLIC "-//W3C//DTD SVG 1.1//EN"
  "http://www.w3.org/Graphics/SVG/1.1/DTD/svg11.dtd">
<svg xmlns:xlink="http://www.w3.org/1999/xlink" width="460.8pt" height="345.6pt" viewBox="0 0 460.8 345.6" xmlns="http://www.w3.org/2000/svg" version="1.1">
 <metadata>
  <rdf:RDF xmlns:dc="http://purl.org/dc/elements/1.1/" xmlns:cc="http://creativecommons.org/ns#" xmlns:rdf="http://www.w3.org/1999/02/22-rdf-syntax-ns#">
   <cc:Work>
    <dc:type rdf:resource="http://purl.org/dc/dcmitype/StillImage"/>
    <dc:date>2023-05-22T00:11:48.911383</dc:date>
    <dc:format>image/svg+xml</dc:format>
    <dc:creator>
     <cc:Agent>
      <dc:title>Matplotlib v3.7.0, https://matplotlib.org/</dc:title>
     </cc:Agent>
    </dc:creator>
   </cc:Work>
  </rdf:RDF>
 </metadata>
 <defs>
  <style type="text/css">*{stroke-linejoin: round; stroke-linecap: butt}</style>
 </defs>
 <g id="figure_1">
  <g id="patch_1">
   <path d="M 0 345.6 
L 460.8 345.6 
L 460.8 0 
L 0 0 
z
" style="fill: #ffffff"/>
  </g>
  <g id="axes_1">
   <g id="patch_2">
    <path d="M 57.6 307.584 
L 414.72 307.584 
L 414.72 41.472 
L 57.6 41.472 
z
" style="fill: #ffffff"/>
   </g>
   <g id="PolyCollection_1">
    <path d="M 73.832727 250.258286 
L 73.832727 307.584 
L 80.890435 307.584 
L 87.948142 307.584 
L 95.00585 307.584 
L 102.063557 307.584 
L 109.121265 307.584 
L 116.178972 307.584 
L 123.23668 307.584 
L 130.294387 307.584 
L 137.352095 307.584 
L 144.409802 307.584 
L 151.46751 307.584 
L 158.525217 307.584 
L 165.582925 307.584 
L 172.640632 307.584 
L 179.69834 307.584 
L 186.756047 307.584 
L 193.813755 307.584 
L 200.871462 307.584 
L 207.92917 307.584 
L 214.986877 307.584 
L 222.044585 307.584 
L 229.102292 307.584 
L 236.16 307.584 
L 243.217708 307.584 
L 250.275415 307.584 
L 257.333123 307.584 
L 264.39083 307.584 
L 271.448538 307.584 
L 278.506245 307.584 
L 285.563953 307.584 
L 292.62166 307.584 
L 299.679368 307.584 
L 306.737075 307.584 
L 313.794783 307.584 
L 320.85249 307.584 
L 327.910198 307.584 
L 334.967905 307.584 
L 342.025613 307.584 
L 349.08332 307.584 
L 356.141028 307.584 
L 363.198735 307.584 
L 370.256443 307.584 
L 377.31415 307.584 
L 384.371858 307.584 
L 391.429565 307.584 
L 398.487273 307.584 
L 398.487273 307.584 
L 398.487273 307.584 
L 391.429565 307.584 
L 384.371858 307.584 
L 377.31415 258.304 
L 370.256443 270.372571 
L 363.198735 272.384 
L 356.141028 285.458286 
L 349.08332 288.475429 
L 342.025613 289.481143 
L 334.967905 286.464 
L 327.910198 284.452571 
L 320.85249 289.481143 
L 313.794783 291.492571 
L 306.737075 285.458286 
L 299.679368 282.441143 
L 292.62166 287.469714 
L 285.563953 290.486857 
L 278.506245 287.469714 
L 271.448538 293.504 
L 264.39083 294.509714 
L 257.333123 296.521143 
L 250.275415 297.526857 
L 243.217708 304.566857 
L 236.16 263.332571 
L 229.102292 249.252571 
L 222.044585 265.344 
L 214.986877 256.292571 
L 207.92917 253.275429 
L 200.871462 254.281143 
L 193.813755 278.418286 
L 186.756047 288.475429 
L 179.69834 283.446857 
L 172.640632 299.538286 
L 165.582925 301.549714 
L 158.525217 291.492571 
L 151.46751 296.521143 
L 144.409802 285.458286 
L 137.352095 280.429714 
L 130.294387 284.452571 
L 123.23668 278.418286 
L 116.178972 293.504 
L 109.121265 284.452571 
L 102.063557 287.469714 
L 95.00585 283.446857 
L 87.948142 287.469714 
L 80.890435 279.424 
L 73.832727 250.258286 
z
" clip-path="url(#p07ed4178bc)" style="fill: #1f77b4"/>
   </g>
   <g id="PolyCollection_2">
    <path d="M 73.832727 196.955429 
L 73.832727 250.258286 
L 80.890435 279.424 
L 87.948142 287.469714 
L 95.00585 283.446857 
L 102.063557 287.469714 
L 109.121265 284.452571 
L 116.178972 293.504 
L 123.23668 278.418286 
L 130.294387 284.452571 
L 137.352095 280.429714 
L 144.409802 285.458286 
L 151.46751 296.521143 
L 158.525217 291.492571 
L 165.582925 301.549714 
L 172.640632 299.538286 
L 179.69834 283.446857 
L 186.756047 288.475429 
L 193.813755 278.418286 
L 200.871462 254.281143 
L 207.92917 253.275429 
L 214.986877 256.292571 
L 222.044585 265.344 
L 229.102292 249.252571 
L 236.16 263.332571 
L 243.217708 304.566857 
L 250.275415 297.526857 
L 257.333123 296.521143 
L 264.39083 294.509714 
L 271.448538 293.504 
L 278.506245 287.469714 
L 285.563953 290.486857 
L 292.62166 287.469714 
L 299.679368 282.441143 
L 306.737075 285.458286 
L 313.794783 291.492571 
L 320.85249 289.481143 
L 327.910198 284.452571 
L 334.967905 286.464 
L 342.025613 289.481143 
L 349.08332 288.475429 
L 356.141028 285.458286 
L 363.198735 272.384 
L 370.256443 270.372571 
L 377.31415 258.304 
L 384.371858 307.584 
L 391.429565 307.584 
L 398.487273 307.584 
L 398.487273 307.584 
L 398.487273 307.584 
L 391.429565 307.584 
L 384.371858 307.584 
L 377.31415 258.304 
L 370.256443 270.372571 
L 363.198735 272.384 
L 356.141028 285.458286 
L 349.08332 288.475429 
L 342.025613 289.481143 
L 334.967905 286.464 
L 327.910198 272.384 
L 320.85249 278.418286 
L 313.794783 283.446857 
L 306.737075 280.429714 
L 299.679368 271.378286 
L 292.62166 259.309714 
L 285.563953 282.441143 
L 278.506245 280.429714 
L 271.448538 261.321143 
L 264.39083 233.161143 
L 257.333123 242.212571 
L 250.275415 271.378286 
L 243.217708 299.538286 
L 236.16 224.109714 
L 229.102292 240.201143 
L 222.044585 259.309714 
L 214.986877 248.246857 
L 207.92917 244.224 
L 200.871462 245.229714 
L 193.813755 275.401143 
L 186.756047 255.286857 
L 179.69834 263.332571 
L 172.640632 289.481143 
L 165.582925 295.515429 
L 158.525217 280.429714 
L 151.46751 282.441143 
L 144.409802 267.355429 
L 137.352095 263.332571 
L 130.294387 259.309714 
L 123.23668 271.378286 
L 116.178972 277.412571 
L 109.121265 259.309714 
L 102.063557 271.378286 
L 95.00585 268.361143 
L 87.948142 265.344 
L 80.890435 217.069714 
L 73.832727 196.955429 
z
" clip-path="url(#p07ed4178bc)" style="fill: #ff7f0e"/>
   </g>
   <g id="PolyCollection_3">
    <path d="M 73.832727 195.949714 
L 73.832727 196.955429 
L 80.890435 217.069714 
L 87.948142 265.344 
L 95.00585 268.361143 
L 102.063557 271.378286 
L 109.121265 259.309714 
L 116.178972 277.412571 
L 123.23668 271.378286 
L 130.294387 259.309714 
L 137.352095 263.332571 
L 144.409802 267.355429 
L 151.46751 282.441143 
L 158.525217 280.429714 
L 165.582925 295.515429 
L 172.640632 289.481143 
L 179.69834 263.332571 
L 186.756047 255.286857 
L 193.813755 275.401143 
L 200.871462 245.229714 
L 207.92917 244.224 
L 214.986877 248.246857 
L 222.044585 259.309714 
L 229.102292 240.201143 
L 236.16 224.109714 
L 243.217708 299.538286 
L 250.275415 271.378286 
L 257.333123 242.212571 
L 264.39083 233.161143 
L 271.448538 261.321143 
L 278.506245 280.429714 
L 285.563953 282.441143 
L 292.62166 259.309714 
L 299.679368 271.378286 
L 306.737075 280.429714 
L 313.794783 283.446857 
L 320.85249 278.418286 
L 327.910198 272.384 
L 334.967905 286.464 
L 342.025613 289.481143 
L 349.08332 288.475429 
L 356.141028 285.458286 
L 363.198735 272.384 
L 370.256443 270.372571 
L 377.31415 258.304 
L 384.371858 307.584 
L 391.429565 307.584 
L 398.487273 307.584 
L 398.487273 251.264 
L 398.487273 251.264 
L 391.429565 261.321143 
L 384.371858 265.344 
L 377.31415 226.121143 
L 370.256443 228.132571 
L 363.198735 240.201143 
L 356.141028 261.321143 
L 349.08332 264.338286 
L 342.025613 266.349714 
L 334.967905 259.309714 
L 327.910198 263.332571 
L 320.85249 258.304 
L 313.794783 275.401143 
L 306.737075 265.344 
L 299.679368 262.326857 
L 292.62166 255.286857 
L 285.563953 279.424 
L 278.506245 276.406857 
L 271.448538 258.304 
L 264.39083 229.138286 
L 257.333123 236.178286 
L 250.275415 267.355429 
L 243.217708 296.521143 
L 236.16 221.092571 
L 229.102292 238.189714 
L 222.044585 257.298286 
L 214.986877 246.235429 
L 207.92917 242.212571 
L 200.871462 242.212571 
L 193.813755 271.378286 
L 186.756047 250.258286 
L 179.69834 259.309714 
L 172.640632 286.464 
L 165.582925 291.492571 
L 158.525217 277.412571 
L 151.46751 279.424 
L 144.409802 263.332571 
L 137.352095 261.321143 
L 130.294387 257.298286 
L 123.23668 269.366857 
L 116.178972 274.395429 
L 109.121265 255.286857 
L 102.063557 266.349714 
L 95.00585 262.326857 
L 87.948142 258.304 
L 80.890435 211.035429 
L 73.832727 195.949714 
z
" clip-path="url(#p07ed4178bc)" style="fill: #2ca02c"/>
   </g>
   <g id="PolyCollection_4">
    <path d="M 73.832727 168.795429 
L 73.832727 195.949714 
L 80.890435 211.035429 
L 87.948142 258.304 
L 95.00585 262.326857 
L 102.063557 266.349714 
L 109.121265 255.286857 
L 116.178972 274.395429 
L 123.23668 269.366857 
L 130.294387 257.298286 
L 137.352095 261.321143 
L 144.409802 263.332571 
L 151.46751 279.424 
L 158.525217 277.412571 
L 165.582925 291.492571 
L 172.640632 286.464 
L 179.69834 259.309714 
L 186.756047 250.258286 
L 193.813755 271.378286 
L 200.871462 242.212571 
L 207.92917 242.212571 
L 214.986877 246.235429 
L 222.044585 257.298286 
L 229.102292 238.189714 
L 236.16 221.092571 
L 243.217708 296.521143 
L 250.275415 267.355429 
L 257.333123 236.178286 
L 264.39083 229.138286 
L 271.448538 258.304 
L 278.506245 276.406857 
L 285.563953 279.424 
L 292.62166 255.286857 
L 299.679368 262.326857 
L 306.737075 265.344 
L 313.794783 275.401143 
L 320.85249 258.304 
L 327.910198 263.332571 
L 334.967905 259.309714 
L 342.025613 266.349714 
L 349.08332 264.338286 
L 356.141028 261.321143 
L 363.198735 240.201143 
L 370.256443 228.132571 
L 377.31415 226.121143 
L 384.371858 265.344 
L 391.429565 261.321143 
L 398.487273 251.264 
L 398.487273 251.264 
L 398.487273 251.264 
L 391.429565 261.321143 
L 384.371858 265.344 
L 377.31415 226.121143 
L 370.256443 228.132571 
L 363.198735 240.201143 
L 356.141028 261.321143 
L 349.08332 261.321143 
L 342.025613 253.275429 
L 334.967905 253.275429 
L 327.910198 247.241143 
L 320.85249 225.115429 
L 313.794783 230.144 
L 306.737075 251.264 
L 299.679368 252.269714 
L 292.62166 205.001143 
L 285.563953 233.161143 
L 278.506245 238.189714 
L 271.448538 242.212571 
L 264.39083 199.972571 
L 257.333123 217.069714 
L 250.275415 239.195429 
L 243.217708 244.224 
L 236.16 168.795429 
L 229.102292 188.909714 
L 222.044585 186.898286 
L 214.986877 205.001143 
L 207.92917 195.949714 
L 200.871462 194.944 
L 193.813755 228.132571 
L 186.756047 208.018286 
L 179.69834 220.086857 
L 172.640632 245.229714 
L 165.582925 245.229714 
L 158.525217 228.132571 
L 151.46751 224.109714 
L 144.409802 219.081143 
L 137.352095 229.138286 
L 130.294387 228.132571 
L 123.23668 239.195429 
L 116.178972 238.189714 
L 109.121265 219.081143 
L 102.063557 223.104 
L 95.00585 222.098286 
L 87.948142 230.144 
L 80.890435 187.904 
L 73.832727 168.795429 
z
" clip-path="url(#p07ed4178bc)" style="fill: #d62728"/>
   </g>
   <g id="PolyCollection_5">
    <path d="M 73.832727 121.526857 
L 73.832727 168.795429 
L 80.890435 187.904 
L 87.948142 230.144 
L 95.00585 222.098286 
L 102.063557 223.104 
L 109.121265 219.081143 
L 116.178972 238.189714 
L 123.23668 239.195429 
L 130.294387 228.132571 
L 137.352095 229.138286 
L 144.409802 219.081143 
L 151.46751 224.109714 
L 158.525217 228.132571 
L 165.582925 245.229714 
L 172.640632 245.229714 
L 179.69834 220.086857 
L 186.756047 208.018286 
L 193.813755 228.132571 
L 200.871462 194.944 
L 207.92917 195.949714 
L 214.986877 205.001143 
L 222.044585 186.898286 
L 229.102292 188.909714 
L 236.16 168.795429 
L 243.217708 244.224 
L 250.275415 239.195429 
L 257.333123 217.069714 
L 264.39083 199.972571 
L 271.448538 242.212571 
L 278.506245 238.189714 
L 285.563953 233.161143 
L 292.62166 205.001143 
L 299.679368 252.269714 
L 306.737075 251.264 
L 313.794783 230.144 
L 320.85249 225.115429 
L 327.910198 247.241143 
L 334.967905 253.275429 
L 342.025613 253.275429 
L 349.08332 261.321143 
L 356.141028 261.321143 
L 363.198735 240.201143 
L 370.256443 228.132571 
L 377.31415 226.121143 
L 384.371858 265.344 
L 391.429565 261.321143 
L 398.487273 251.264 
L 398.487273 251.264 
L 398.487273 251.264 
L 391.429565 261.321143 
L 384.371858 265.344 
L 377.31415 226.121143 
L 370.256443 228.132571 
L 363.198735 240.201143 
L 356.141028 261.321143 
L 349.08332 261.321143 
L 342.025613 253.275429 
L 334.967905 253.275429 
L 327.910198 247.241143 
L 320.85249 225.115429 
L 313.794783 230.144 
L 306.737075 251.264 
L 299.679368 252.269714 
L 292.62166 205.001143 
L 285.563953 233.161143 
L 278.506245 238.189714 
L 271.448538 242.212571 
L 264.39083 199.972571 
L 257.333123 217.069714 
L 250.275415 239.195429 
L 243.217708 244.224 
L 236.16 168.795429 
L 229.102292 188.909714 
L 222.044585 186.898286 
L 214.986877 200.978286 
L 207.92917 193.938286 
L 200.871462 191.926857 
L 193.813755 226.121143 
L 186.756047 205.001143 
L 179.69834 216.064 
L 172.640632 240.201143 
L 165.582925 241.206857 
L 158.525217 223.104 
L 151.46751 220.086857 
L 144.409802 214.052571 
L 137.352095 225.115429 
L 130.294387 225.115429 
L 123.23668 234.166857 
L 116.178972 232.155429 
L 109.121265 214.052571 
L 102.063557 217.069714 
L 95.00585 215.058286 
L 87.948142 222.098286 
L 80.890435 185.892571 
L 73.832727 121.526857 
z
" clip-path="url(#p07ed4178bc)" style="fill: #9467bd"/>
   </g>
   <g id="PolyCollection_6">
    <path d="M 73.832727 117.504 
L 73.832727 121.526857 
L 80.890435 185.892571 
L 87.948142 222.098286 
L 95.00585 215.058286 
L 102.063557 217.069714 
L 109.121265 214.052571 
L 116.178972 232.155429 
L 123.23668 234.166857 
L 130.294387 225.115429 
L 137.352095 225.115429 
L 144.409802 214.052571 
L 151.46751 220.086857 
L 158.525217 223.104 
L 165.582925 241.206857 
L 172.640632 240.201143 
L 179.69834 216.064 
L 186.756047 205.001143 
L 193.813755 226.121143 
L 200.871462 191.926857 
L 207.92917 193.938286 
L 214.986877 200.978286 
L 222.044585 186.898286 
L 229.102292 188.909714 
L 236.16 168.795429 
L 243.217708 244.224 
L 250.275415 239.195429 
L 257.333123 217.069714 
L 264.39083 199.972571 
L 271.448538 242.212571 
L 278.506245 238.189714 
L 285.563953 233.161143 
L 292.62166 205.001143 
L 299.679368 252.269714 
L 306.737075 251.264 
L 313.794783 230.144 
L 320.85249 225.115429 
L 327.910198 247.241143 
L 334.967905 253.275429 
L 342.025613 253.275429 
L 349.08332 261.321143 
L 356.141028 261.321143 
L 363.198735 240.201143 
L 370.256443 228.132571 
L 377.31415 226.121143 
L 384.371858 265.344 
L 391.429565 261.321143 
L 398.487273 251.264 
L 398.487273 251.264 
L 398.487273 251.264 
L 391.429565 261.321143 
L 384.371858 265.344 
L 377.31415 226.121143 
L 370.256443 228.132571 
L 363.198735 240.201143 
L 356.141028 261.321143 
L 349.08332 261.321143 
L 342.025613 245.229714 
L 334.967905 247.241143 
L 327.910198 240.201143 
L 320.85249 220.086857 
L 313.794783 226.121143 
L 306.737075 244.224 
L 299.679368 249.252571 
L 292.62166 193.938286 
L 285.563953 219.081143 
L 278.506245 226.121143 
L 271.448538 226.121143 
L 264.39083 191.926857 
L 257.333123 206.006857 
L 250.275415 235.172571 
L 243.217708 181.869714 
L 236.16 160.749714 
L 229.102292 167.789714 
L 222.044585 173.824 
L 214.986877 159.744 
L 207.92917 162.761143 
L 200.871462 153.709714 
L 193.813755 177.846857 
L 186.756047 167.789714 
L 179.69834 177.846857 
L 172.640632 195.949714 
L 165.582925 186.898286 
L 158.525217 186.898286 
L 151.46751 199.972571 
L 144.409802 198.966857 
L 137.352095 188.909714 
L 130.294387 194.944 
L 123.23668 208.018286 
L 116.178972 186.898286 
L 109.121265 185.892571 
L 102.063557 188.909714 
L 95.00585 176.841143 
L 87.948142 154.715429 
L 80.890435 157.732571 
L 73.832727 117.504 
z
" clip-path="url(#p07ed4178bc)" style="fill: #8c564b"/>
   </g>
   <g id="PolyCollection_7">
    <path d="M 73.832727 95.378286 
L 73.832727 117.504 
L 80.890435 157.732571 
L 87.948142 154.715429 
L 95.00585 176.841143 
L 102.063557 188.909714 
L 109.121265 185.892571 
L 116.178972 186.898286 
L 123.23668 208.018286 
L 130.294387 194.944 
L 137.352095 188.909714 
L 144.409802 198.966857 
L 151.46751 199.972571 
L 158.525217 186.898286 
L 165.582925 186.898286 
L 172.640632 195.949714 
L 179.69834 177.846857 
L 186.756047 167.789714 
L 193.813755 177.846857 
L 200.871462 153.709714 
L 207.92917 162.761143 
L 214.986877 159.744 
L 222.044585 173.824 
L 229.102292 167.789714 
L 236.16 160.749714 
L 243.217708 181.869714 
L 250.275415 235.172571 
L 257.333123 206.006857 
L 264.39083 191.926857 
L 271.448538 226.121143 
L 278.506245 226.121143 
L 285.563953 219.081143 
L 292.62166 193.938286 
L 299.679368 249.252571 
L 306.737075 244.224 
L 313.794783 226.121143 
L 320.85249 220.086857 
L 327.910198 240.201143 
L 334.967905 247.241143 
L 342.025613 245.229714 
L 349.08332 261.321143 
L 356.141028 261.321143 
L 363.198735 240.201143 
L 370.256443 228.132571 
L 377.31415 226.121143 
L 384.371858 265.344 
L 391.429565 261.321143 
L 398.487273 251.264 
L 398.487273 251.264 
L 398.487273 251.264 
L 391.429565 261.321143 
L 384.371858 265.344 
L 377.31415 226.121143 
L 370.256443 228.132571 
L 363.198735 240.201143 
L 356.141028 261.321143 
L 349.08332 261.321143 
L 342.025613 245.229714 
L 334.967905 247.241143 
L 327.910198 240.201143 
L 320.85249 220.086857 
L 313.794783 226.121143 
L 306.737075 244.224 
L 299.679368 249.252571 
L 292.62166 193.938286 
L 285.563953 219.081143 
L 278.506245 226.121143 
L 271.448538 226.121143 
L 264.39083 191.926857 
L 257.333123 206.006857 
L 250.275415 235.172571 
L 243.217708 181.869714 
L 236.16 160.749714 
L 229.102292 167.789714 
L 222.044585 173.824 
L 214.986877 156.726857 
L 207.92917 158.738286 
L 200.871462 150.692571 
L 193.813755 175.835429 
L 186.756047 165.778286 
L 179.69834 174.829714 
L 172.640632 193.938286 
L 165.582925 183.881143 
L 158.525217 183.881143 
L 151.46751 197.961143 
L 144.409802 195.949714 
L 137.352095 186.898286 
L 130.294387 192.932571 
L 123.23668 205.001143 
L 116.178972 184.886857 
L 109.121265 184.886857 
L 102.063557 184.886857 
L 95.00585 171.812571 
L 87.948142 151.698286 
L 80.890435 149.686857 
L 73.832727 95.378286 
z
" clip-path="url(#p07ed4178bc)" style="fill: #e377c2"/>
   </g>
   <g id="PolyCollection_8">
    <path d="M 73.832727 94.372571 
L 73.832727 95.378286 
L 80.890435 149.686857 
L 87.948142 151.698286 
L 95.00585 171.812571 
L 102.063557 184.886857 
L 109.121265 184.886857 
L 116.178972 184.886857 
L 123.23668 205.001143 
L 130.294387 192.932571 
L 137.352095 186.898286 
L 144.409802 195.949714 
L 151.46751 197.961143 
L 158.525217 183.881143 
L 165.582925 183.881143 
L 172.640632 193.938286 
L 179.69834 174.829714 
L 186.756047 165.778286 
L 193.813755 175.835429 
L 200.871462 150.692571 
L 207.92917 158.738286 
L 214.986877 156.726857 
L 222.044585 173.824 
L 229.102292 167.789714 
L 236.16 160.749714 
L 243.217708 181.869714 
L 250.275415 235.172571 
L 257.333123 206.006857 
L 264.39083 191.926857 
L 271.448538 226.121143 
L 278.506245 226.121143 
L 285.563953 219.081143 
L 292.62166 193.938286 
L 299.679368 249.252571 
L 306.737075 244.224 
L 313.794783 226.121143 
L 320.85249 220.086857 
L 327.910198 240.201143 
L 334.967905 247.241143 
L 342.025613 245.229714 
L 349.08332 261.321143 
L 356.141028 261.321143 
L 363.198735 240.201143 
L 370.256443 228.132571 
L 377.31415 226.121143 
L 384.371858 265.344 
L 391.429565 261.321143 
L 398.487273 251.264 
L 398.487273 198.966857 
L 398.487273 198.966857 
L 391.429565 213.046857 
L 384.371858 223.104 
L 377.31415 185.892571 
L 370.256443 199.972571 
L 363.198735 209.024 
L 356.141028 229.138286 
L 349.08332 231.149714 
L 342.025613 212.041143 
L 334.967905 218.075429 
L 327.910198 215.058286 
L 320.85249 200.978286 
L 313.794783 203.995429 
L 306.737075 227.126857 
L 299.679368 233.161143 
L 292.62166 173.824 
L 285.563953 195.949714 
L 278.506245 210.029714 
L 271.448538 207.012571 
L 264.39083 172.818286 
L 257.333123 190.921143 
L 250.275415 224.109714 
L 243.217708 165.778286 
L 236.16 148.681143 
L 229.102292 154.715429 
L 222.044585 161.755429 
L 214.986877 151.698286 
L 207.92917 151.698286 
L 200.871462 142.646857 
L 193.813755 166.784 
L 186.756047 156.726857 
L 179.69834 164.772571 
L 172.640632 185.892571 
L 165.582925 175.835429 
L 158.525217 171.812571 
L 151.46751 187.904 
L 144.409802 187.904 
L 137.352095 175.835429 
L 130.294387 182.875429 
L 123.23668 196.955429 
L 116.178972 176.841143 
L 109.121265 174.829714 
L 102.063557 176.841143 
L 95.00585 162.761143 
L 87.948142 142.646857 
L 80.890435 146.669714 
L 73.832727 94.372571 
z
" clip-path="url(#p07ed4178bc)" style="fill: #7f7f7f"/>
   </g>
   <g id="PolyCollection_9">
    <path d="M 73.832727 93.366857 
L 73.832727 94.372571 
L 80.890435 146.669714 
L 87.948142 142.646857 
L 95.00585 162.761143 
L 102.063557 176.841143 
L 109.121265 174.829714 
L 116.178972 176.841143 
L 123.23668 196.955429 
L 130.294387 182.875429 
L 137.352095 175.835429 
L 144.409802 187.904 
L 151.46751 187.904 
L 158.525217 171.812571 
L 165.582925 175.835429 
L 172.640632 185.892571 
L 179.69834 164.772571 
L 186.756047 156.726857 
L 193.813755 166.784 
L 200.871462 142.646857 
L 207.92917 151.698286 
L 214.986877 151.698286 
L 222.044585 161.755429 
L 229.102292 154.715429 
L 236.16 148.681143 
L 243.217708 165.778286 
L 250.275415 224.109714 
L 257.333123 190.921143 
L 264.39083 172.818286 
L 271.448538 207.012571 
L 278.506245 210.029714 
L 285.563953 195.949714 
L 292.62166 173.824 
L 299.679368 233.161143 
L 306.737075 227.126857 
L 313.794783 203.995429 
L 320.85249 200.978286 
L 327.910198 215.058286 
L 334.967905 218.075429 
L 342.025613 212.041143 
L 349.08332 231.149714 
L 356.141028 229.138286 
L 363.198735 209.024 
L 370.256443 199.972571 
L 377.31415 185.892571 
L 384.371858 223.104 
L 391.429565 213.046857 
L 398.487273 198.966857 
L 398.487273 198.966857 
L 398.487273 198.966857 
L 391.429565 213.046857 
L 384.371858 223.104 
L 377.31415 185.892571 
L 370.256443 199.972571 
L 363.198735 173.824 
L 356.141028 190.921143 
L 349.08332 188.909714 
L 342.025613 172.818286 
L 334.967905 185.892571 
L 327.910198 186.898286 
L 320.85249 180.864 
L 313.794783 177.846857 
L 306.737075 201.984 
L 299.679368 209.024 
L 292.62166 152.704 
L 285.563953 182.875429 
L 278.506245 181.869714 
L 271.448538 190.921143 
L 264.39083 165.778286 
L 257.333123 164.772571 
L 250.275415 192.932571 
L 243.217708 137.618286 
L 236.16 115.492571 
L 229.102292 115.492571 
L 222.044585 140.635429 
L 214.986877 119.515429 
L 207.92917 132.589714 
L 200.871462 126.555429 
L 193.813755 148.681143 
L 186.756047 135.606857 
L 179.69834 132.589714 
L 172.640632 151.698286 
L 165.582925 146.669714 
L 158.525217 153.709714 
L 151.46751 149.686857 
L 144.409802 153.709714 
L 137.352095 137.618286 
L 130.294387 144.658286 
L 123.23668 160.749714 
L 116.178972 150.692571 
L 109.121265 153.709714 
L 102.063557 156.726857 
L 95.00585 156.726857 
L 87.948142 127.561143 
L 80.890435 133.595429 
L 73.832727 93.366857 
z
" clip-path="url(#p07ed4178bc)" style="fill: #bcbd22"/>
   </g>
   <g id="PolyCollection_10">
    <path d="M 73.832727 69.229714 
L 73.832727 93.366857 
L 80.890435 133.595429 
L 87.948142 127.561143 
L 95.00585 156.726857 
L 102.063557 156.726857 
L 109.121265 153.709714 
L 116.178972 150.692571 
L 123.23668 160.749714 
L 130.294387 144.658286 
L 137.352095 137.618286 
L 144.409802 153.709714 
L 151.46751 149.686857 
L 158.525217 153.709714 
L 165.582925 146.669714 
L 172.640632 151.698286 
L 179.69834 132.589714 
L 186.756047 135.606857 
L 193.813755 148.681143 
L 200.871462 126.555429 
L 207.92917 132.589714 
L 214.986877 119.515429 
L 222.044585 140.635429 
L 229.102292 115.492571 
L 236.16 115.492571 
L 243.217708 137.618286 
L 250.275415 192.932571 
L 257.333123 164.772571 
L 264.39083 165.778286 
L 271.448538 190.921143 
L 278.506245 181.869714 
L 285.563953 182.875429 
L 292.62166 152.704 
L 299.679368 209.024 
L 306.737075 201.984 
L 313.794783 177.846857 
L 320.85249 180.864 
L 327.910198 186.898286 
L 334.967905 185.892571 
L 342.025613 172.818286 
L 349.08332 188.909714 
L 356.141028 190.921143 
L 363.198735 173.824 
L 370.256443 199.972571 
L 377.31415 185.892571 
L 384.371858 223.104 
L 391.429565 213.046857 
L 398.487273 198.966857 
L 398.487273 137.618286 
L 398.487273 137.618286 
L 391.429565 151.698286 
L 384.371858 164.772571 
L 377.31415 133.595429 
L 370.256443 144.658286 
L 363.198735 146.669714 
L 356.141028 159.744 
L 349.08332 156.726857 
L 342.025613 142.646857 
L 334.967905 161.755429 
L 327.910198 166.784 
L 320.85249 155.721143 
L 313.794783 153.709714 
L 306.737075 177.846857 
L 299.679368 185.892571 
L 292.62166 133.595429 
L 285.563953 160.749714 
L 278.506245 159.744 
L 271.448538 173.824 
L 264.39083 146.669714 
L 257.333123 149.686857 
L 250.275415 180.864 
L 243.217708 114.486857 
L 236.16 96.384 
L 229.102292 95.378286 
L 222.044585 119.515429 
L 214.986877 99.401143 
L 207.92917 114.486857 
L 200.871462 109.458286 
L 193.813755 130.578286 
L 186.756047 120.521143 
L 179.69834 117.504 
L 172.640632 133.595429 
L 165.582925 126.555429 
L 158.525217 132.589714 
L 151.46751 134.601143 
L 144.409802 138.624 
L 137.352095 122.532571 
L 130.294387 126.555429 
L 123.23668 143.652571 
L 116.178972 132.589714 
L 109.121265 136.612571 
L 102.063557 143.652571 
L 95.00585 145.664 
L 87.948142 114.486857 
L 80.890435 126.555429 
L 73.832727 69.229714 
z
" clip-path="url(#p07ed4178bc)" style="fill: #17becf"/>
   </g>
   <g id="PolyCollection_11">
    <path d="M 73.832727 61.184 
L 73.832727 69.229714 
L 80.890435 126.555429 
L 87.948142 114.486857 
L 95.00585 145.664 
L 102.063557 143.652571 
L 109.121265 136.612571 
L 116.178972 132.589714 
L 123.23668 143.652571 
L 130.294387 126.555429 
L 137.352095 122.532571 
L 144.409802 138.624 
L 151.46751 134.601143 
L 158.525217 132.589714 
L 165.582925 126.555429 
L 172.640632 133.595429 
L 179.69834 117.504 
L 186.756047 120.521143 
L 193.813755 130.578286 
L 200.871462 109.458286 
L 207.92917 114.486857 
L 214.986877 99.401143 
L 222.044585 119.515429 
L 229.102292 95.378286 
L 236.16 96.384 
L 243.217708 114.486857 
L 250.275415 180.864 
L 257.333123 149.686857 
L 264.39083 146.669714 
L 271.448538 173.824 
L 278.506245 159.744 
L 285.563953 160.749714 
L 292.62166 133.595429 
L 299.679368 185.892571 
L 306.737075 177.846857 
L 313.794783 153.709714 
L 320.85249 155.721143 
L 327.910198 166.784 
L 334.967905 161.755429 
L 342.025613 142.646857 
L 349.08332 156.726857 
L 356.141028 159.744 
L 363.198735 146.669714 
L 370.256443 144.658286 
L 377.31415 133.595429 
L 384.371858 164.772571 
L 391.429565 151.698286 
L 398.487273 137.618286 
L 398.487273 137.618286 
L 398.487273 137.618286 
L 391.429565 151.698286 
L 384.371858 164.772571 
L 377.31415 133.595429 
L 370.256443 144.658286 
L 363.198735 146.669714 
L 356.141028 159.744 
L 349.08332 156.726857 
L 342.025613 142.646857 
L 334.967905 161.755429 
L 327.910198 166.784 
L 320.85249 155.721143 
L 313.794783 153.709714 
L 306.737075 177.846857 
L 299.679368 185.892571 
L 292.62166 133.595429 
L 285.563953 160.749714 
L 278.506245 159.744 
L 271.448538 173.824 
L 264.39083 124.544 
L 257.333123 138.624 
L 250.275415 175.835429 
L 243.217708 99.401143 
L 236.16 91.355429 
L 229.102292 94.372571 
L 222.044585 105.435429 
L 214.986877 90.349714 
L 207.92917 90.349714 
L 200.871462 97.389714 
L 193.813755 119.515429 
L 186.756047 107.446857 
L 179.69834 96.384 
L 172.640632 114.486857 
L 165.582925 119.515429 
L 158.525217 116.498286 
L 151.46751 106.441143 
L 144.409802 98.395429 
L 137.352095 95.378286 
L 130.294387 94.372571 
L 123.23668 92.361143 
L 116.178972 90.349714 
L 109.121265 84.315429 
L 102.063557 84.315429 
L 95.00585 83.309714 
L 87.948142 75.264 
L 80.890435 82.304 
L 73.832727 61.184 
z
" clip-path="url(#p07ed4178bc)" style="fill: #1f77b4"/>
   </g>
   <g id="PolyCollection_12">
    <path d="M 73.832727 58.166857 
L 73.832727 61.184 
L 80.890435 82.304 
L 87.948142 75.264 
L 95.00585 83.309714 
L 102.063557 84.315429 
L 109.121265 84.315429 
L 116.178972 90.349714 
L 123.23668 92.361143 
L 130.294387 94.372571 
L 137.352095 95.378286 
L 144.409802 98.395429 
L 151.46751 106.441143 
L 158.525217 116.498286 
L 165.582925 119.515429 
L 172.640632 114.486857 
L 179.69834 96.384 
L 186.756047 107.446857 
L 193.813755 119.515429 
L 200.871462 97.389714 
L 207.92917 90.349714 
L 214.986877 90.349714 
L 222.044585 105.435429 
L 229.102292 94.372571 
L 236.16 91.355429 
L 243.217708 99.401143 
L 250.275415 175.835429 
L 257.333123 138.624 
L 264.39083 124.544 
L 271.448538 173.824 
L 278.506245 159.744 
L 285.563953 160.749714 
L 292.62166 133.595429 
L 299.679368 185.892571 
L 306.737075 177.846857 
L 313.794783 153.709714 
L 320.85249 155.721143 
L 327.910198 166.784 
L 334.967905 161.755429 
L 342.025613 142.646857 
L 349.08332 156.726857 
L 356.141028 159.744 
L 363.198735 146.669714 
L 370.256443 144.658286 
L 377.31415 133.595429 
L 384.371858 164.772571 
L 391.429565 151.698286 
L 398.487273 137.618286 
L 398.487273 56.155429 
L 398.487273 56.155429 
L 391.429565 56.155429 
L 384.371858 99.401143 
L 377.31415 98.395429 
L 370.256443 110.464 
L 363.198735 105.435429 
L 356.141028 119.515429 
L 349.08332 124.544 
L 342.025613 101.412571 
L 334.967905 127.561143 
L 327.910198 134.601143 
L 320.85249 132.589714 
L 313.794783 124.544 
L 306.737075 148.681143 
L 299.679368 151.698286 
L 292.62166 99.401143 
L 285.563953 133.595429 
L 278.506245 145.664 
L 271.448538 149.686857 
L 264.39083 100.406857 
L 257.333123 118.509714 
L 250.275415 156.726857 
L 243.217708 84.315429 
L 236.16 80.292571 
L 229.102292 84.315429 
L 222.044585 95.378286 
L 214.986877 88.338286 
L 207.92917 79.286857 
L 200.871462 83.309714 
L 193.813755 102.418286 
L 186.756047 88.338286 
L 179.69834 75.264 
L 172.640632 96.384 
L 165.582925 99.401143 
L 158.525217 94.372571 
L 151.46751 79.286857 
L 144.409802 80.292571 
L 137.352095 78.281143 
L 130.294387 75.264 
L 123.23668 70.235429 
L 116.178972 67.218286 
L 109.121265 70.235429 
L 102.063557 70.235429 
L 95.00585 69.229714 
L 87.948142 70.235429 
L 80.890435 78.281143 
L 73.832727 58.166857 
z
" clip-path="url(#p07ed4178bc)" style="fill: #ff7f0e"/>
   </g>
   <g id="PolyCollection_13">
    <path d="M 73.832727 57.161143 
L 73.832727 58.166857 
L 80.890435 78.281143 
L 87.948142 70.235429 
L 95.00585 69.229714 
L 102.063557 70.235429 
L 109.121265 70.235429 
L 116.178972 67.218286 
L 123.23668 70.235429 
L 130.294387 75.264 
L 137.352095 78.281143 
L 144.409802 80.292571 
L 151.46751 79.286857 
L 158.525217 94.372571 
L 165.582925 99.401143 
L 172.640632 96.384 
L 179.69834 75.264 
L 186.756047 88.338286 
L 193.813755 102.418286 
L 200.871462 83.309714 
L 207.92917 79.286857 
L 214.986877 88.338286 
L 222.044585 95.378286 
L 229.102292 84.315429 
L 236.16 80.292571 
L 243.217708 84.315429 
L 250.275415 156.726857 
L 257.333123 118.509714 
L 264.39083 100.406857 
L 271.448538 149.686857 
L 278.506245 145.664 
L 285.563953 133.595429 
L 292.62166 99.401143 
L 299.679368 151.698286 
L 306.737075 148.681143 
L 313.794783 124.544 
L 320.85249 132.589714 
L 327.910198 134.601143 
L 334.967905 127.561143 
L 342.025613 101.412571 
L 349.08332 124.544 
L 356.141028 119.515429 
L 363.198735 105.435429 
L 370.256443 110.464 
L 377.31415 98.395429 
L 384.371858 99.401143 
L 391.429565 56.155429 
L 398.487273 56.155429 
L 398.487273 56.155429 
L 398.487273 56.155429 
L 391.429565 56.155429 
L 384.371858 99.401143 
L 377.31415 98.395429 
L 370.256443 110.464 
L 363.198735 105.435429 
L 356.141028 106.441143 
L 349.08332 112.475429 
L 342.025613 90.349714 
L 334.967905 115.492571 
L 327.910198 121.526857 
L 320.85249 122.532571 
L 313.794783 112.475429 
L 306.737075 133.595429 
L 299.679368 138.624 
L 292.62166 84.315429 
L 285.563953 122.532571 
L 278.506245 132.589714 
L 271.448538 135.606857 
L 264.39083 89.344 
L 257.333123 107.446857 
L 250.275415 144.658286 
L 243.217708 73.252571 
L 236.16 68.224 
L 229.102292 72.246857 
L 222.044585 80.292571 
L 214.986877 75.264 
L 207.92917 68.224 
L 200.871462 71.241143 
L 193.813755 93.366857 
L 186.756047 76.269714 
L 179.69834 66.212571 
L 172.640632 86.326857 
L 165.582925 88.338286 
L 158.525217 84.315429 
L 151.46751 71.241143 
L 144.409802 73.252571 
L 137.352095 69.229714 
L 130.294387 64.201143 
L 123.23668 63.195429 
L 116.178972 60.178286 
L 109.121265 61.184 
L 102.063557 61.184 
L 95.00585 61.184 
L 87.948142 62.189714 
L 80.890435 63.195429 
L 73.832727 57.161143 
z
" clip-path="url(#p07ed4178bc)" style="fill: #2ca02c"/>
   </g>
   <g id="PolyCollection_14">
    <path d="M 73.832727 56.155429 
L 73.832727 57.161143 
L 80.890435 63.195429 
L 87.948142 62.189714 
L 95.00585 61.184 
L 102.063557 61.184 
L 109.121265 61.184 
L 116.178972 60.178286 
L 123.23668 63.195429 
L 130.294387 64.201143 
L 137.352095 69.229714 
L 144.409802 73.252571 
L 151.46751 71.241143 
L 158.525217 84.315429 
L 165.582925 88.338286 
L 172.640632 86.326857 
L 179.69834 66.212571 
L 186.756047 76.269714 
L 193.813755 93.366857 
L 200.871462 71.241143 
L 207.92917 68.224 
L 214.986877 75.264 
L 222.044585 80.292571 
L 229.102292 72.246857 
L 236.16 68.224 
L 243.217708 73.252571 
L 250.275415 144.658286 
L 257.333123 107.446857 
L 264.39083 89.344 
L 271.448538 135.606857 
L 278.506245 132.589714 
L 285.563953 122.532571 
L 292.62166 84.315429 
L 299.679368 138.624 
L 306.737075 133.595429 
L 313.794783 112.475429 
L 320.85249 122.532571 
L 327.910198 121.526857 
L 334.967905 115.492571 
L 342.025613 90.349714 
L 349.08332 112.475429 
L 356.141028 106.441143 
L 363.198735 105.435429 
L 370.256443 110.464 
L 377.31415 98.395429 
L 384.371858 99.401143 
L 391.429565 56.155429 
L 398.487273 56.155429 
L 398.487273 56.155429 
L 398.487273 56.155429 
L 391.429565 56.155429 
L 384.371858 55.149714 
L 377.31415 55.149714 
L 370.256443 57.161143 
L 363.198735 57.161143 
L 356.141028 58.166857 
L 349.08332 59.172571 
L 342.025613 56.155429 
L 334.967905 55.149714 
L 327.910198 57.161143 
L 320.85249 56.155429 
L 313.794783 58.166857 
L 306.737075 57.161143 
L 299.679368 57.161143 
L 292.62166 55.149714 
L 285.563953 54.144 
L 278.506245 54.144 
L 271.448538 55.149714 
L 264.39083 55.149714 
L 257.333123 57.161143 
L 250.275415 56.155429 
L 243.217708 56.155429 
L 236.16 57.161143 
L 229.102292 57.161143 
L 222.044585 57.161143 
L 214.986877 58.166857 
L 207.92917 57.161143 
L 200.871462 56.155429 
L 193.813755 55.149714 
L 186.756047 56.155429 
L 179.69834 56.155429 
L 172.640632 56.155429 
L 165.582925 56.155429 
L 158.525217 54.144 
L 151.46751 57.161143 
L 144.409802 56.155429 
L 137.352095 55.149714 
L 130.294387 57.161143 
L 123.23668 57.161143 
L 116.178972 56.155429 
L 109.121265 58.166857 
L 102.063557 58.166857 
L 95.00585 56.155429 
L 87.948142 56.155429 
L 80.890435 57.161143 
L 73.832727 56.155429 
z
" clip-path="url(#p07ed4178bc)" style="fill: #d62728"/>
   </g>
   <g id="matplotlib.axis_1">
    <g id="xtick_1">
     <g id="line2d_1">
      <defs>
       <path id="ma844721b48" d="M 0 0 
L 0 3.5 
" style="stroke: #000000; stroke-width: 0.8"/>
      </defs>
      <g>
       <use xlink:href="#ma844721b48" x="73.832727" y="307.584" style="stroke: #000000; stroke-width: 0.8"/>
      </g>
     </g>
     <g id="text_1">
      <!-- 0 -->
      <g transform="translate(70.651477 322.182437) scale(0.1 -0.1)">
       <defs>
        <path id="DejaVuSans-30" d="M 2034 4250 
Q 1547 4250 1301 3770 
Q 1056 3291 1056 2328 
Q 1056 1369 1301 889 
Q 1547 409 2034 409 
Q 2525 409 2770 889 
Q 3016 1369 3016 2328 
Q 3016 3291 2770 3770 
Q 2525 4250 2034 4250 
z
M 2034 4750 
Q 2819 4750 3233 4129 
Q 3647 3509 3647 2328 
Q 3647 1150 3233 529 
Q 2819 -91 2034 -91 
Q 1250 -91 836 529 
Q 422 1150 422 2328 
Q 422 3509 836 4129 
Q 1250 4750 2034 4750 
z
" transform="scale(0.015625)"/>
       </defs>
       <use xlink:href="#DejaVuSans-30"/>
      </g>
     </g>
    </g>
    <g id="xtick_2">
     <g id="line2d_2">
      <g>
       <use xlink:href="#ma844721b48" x="144.409802" y="307.584" style="stroke: #000000; stroke-width: 0.8"/>
      </g>
     </g>
     <g id="text_2">
      <!-- 10 -->
      <g transform="translate(138.047302 322.182437) scale(0.1 -0.1)">
       <defs>
        <path id="DejaVuSans-31" d="M 794 531 
L 1825 531 
L 1825 4091 
L 703 3866 
L 703 4441 
L 1819 4666 
L 2450 4666 
L 2450 531 
L 3481 531 
L 3481 0 
L 794 0 
L 794 531 
z
" transform="scale(0.015625)"/>
       </defs>
       <use xlink:href="#DejaVuSans-31"/>
       <use xlink:href="#DejaVuSans-30" x="63.623047"/>
      </g>
     </g>
    </g>
    <g id="xtick_3">
     <g id="line2d_3">
      <g>
       <use xlink:href="#ma844721b48" x="214.986877" y="307.584" style="stroke: #000000; stroke-width: 0.8"/>
      </g>
     </g>
     <g id="text_3">
      <!-- 20 -->
      <g transform="translate(208.624377 322.182437) scale(0.1 -0.1)">
       <defs>
        <path id="DejaVuSans-32" d="M 1228 531 
L 3431 531 
L 3431 0 
L 469 0 
L 469 531 
Q 828 903 1448 1529 
Q 2069 2156 2228 2338 
Q 2531 2678 2651 2914 
Q 2772 3150 2772 3378 
Q 2772 3750 2511 3984 
Q 2250 4219 1831 4219 
Q 1534 4219 1204 4116 
Q 875 4013 500 3803 
L 500 4441 
Q 881 4594 1212 4672 
Q 1544 4750 1819 4750 
Q 2544 4750 2975 4387 
Q 3406 4025 3406 3419 
Q 3406 3131 3298 2873 
Q 3191 2616 2906 2266 
Q 2828 2175 2409 1742 
Q 1991 1309 1228 531 
z
" transform="scale(0.015625)"/>
       </defs>
       <use xlink:href="#DejaVuSans-32"/>
       <use xlink:href="#DejaVuSans-30" x="63.623047"/>
      </g>
     </g>
    </g>
    <g id="xtick_4">
     <g id="line2d_4">
      <g>
       <use xlink:href="#ma844721b48" x="285.563953" y="307.584" style="stroke: #000000; stroke-width: 0.8"/>
      </g>
     </g>
     <g id="text_4">
      <!-- 30 -->
      <g transform="translate(279.201453 322.182437) scale(0.1 -0.1)">
       <defs>
        <path id="DejaVuSans-33" d="M 2597 2516 
Q 3050 2419 3304 2112 
Q 3559 1806 3559 1356 
Q 3559 666 3084 287 
Q 2609 -91 1734 -91 
Q 1441 -91 1130 -33 
Q 819 25 488 141 
L 488 750 
Q 750 597 1062 519 
Q 1375 441 1716 441 
Q 2309 441 2620 675 
Q 2931 909 2931 1356 
Q 2931 1769 2642 2001 
Q 2353 2234 1838 2234 
L 1294 2234 
L 1294 2753 
L 1863 2753 
Q 2328 2753 2575 2939 
Q 2822 3125 2822 3475 
Q 2822 3834 2567 4026 
Q 2313 4219 1838 4219 
Q 1578 4219 1281 4162 
Q 984 4106 628 3988 
L 628 4550 
Q 988 4650 1302 4700 
Q 1616 4750 1894 4750 
Q 2613 4750 3031 4423 
Q 3450 4097 3450 3541 
Q 3450 3153 3228 2886 
Q 3006 2619 2597 2516 
z
" transform="scale(0.015625)"/>
       </defs>
       <use xlink:href="#DejaVuSans-33"/>
       <use xlink:href="#DejaVuSans-30" x="63.623047"/>
      </g>
     </g>
    </g>
    <g id="xtick_5">
     <g id="line2d_5">
      <g>
       <use xlink:href="#ma844721b48" x="356.141028" y="307.584" style="stroke: #000000; stroke-width: 0.8"/>
      </g>
     </g>
     <g id="text_5">
      <!-- 40 -->
      <g transform="translate(349.778528 322.182437) scale(0.1 -0.1)">
       <defs>
        <path id="DejaVuSans-34" d="M 2419 4116 
L 825 1625 
L 2419 1625 
L 2419 4116 
z
M 2253 4666 
L 3047 4666 
L 3047 1625 
L 3713 1625 
L 3713 1100 
L 3047 1100 
L 3047 0 
L 2419 0 
L 2419 1100 
L 313 1100 
L 313 1709 
L 2253 4666 
z
" transform="scale(0.015625)"/>
       </defs>
       <use xlink:href="#DejaVuSans-34"/>
       <use xlink:href="#DejaVuSans-30" x="63.623047"/>
      </g>
     </g>
    </g>
    <g id="text_6">
     <!-- Generations -->
     <g transform="translate(205.662344 335.860562) scale(0.1 -0.1)">
      <defs>
       <path id="DejaVuSans-47" d="M 3809 666 
L 3809 1919 
L 2778 1919 
L 2778 2438 
L 4434 2438 
L 4434 434 
Q 4069 175 3628 42 
Q 3188 -91 2688 -91 
Q 1594 -91 976 548 
Q 359 1188 359 2328 
Q 359 3472 976 4111 
Q 1594 4750 2688 4750 
Q 3144 4750 3555 4637 
Q 3966 4525 4313 4306 
L 4313 3634 
Q 3963 3931 3569 4081 
Q 3175 4231 2741 4231 
Q 1884 4231 1454 3753 
Q 1025 3275 1025 2328 
Q 1025 1384 1454 906 
Q 1884 428 2741 428 
Q 3075 428 3337 486 
Q 3600 544 3809 666 
z
" transform="scale(0.015625)"/>
       <path id="DejaVuSans-65" d="M 3597 1894 
L 3597 1613 
L 953 1613 
Q 991 1019 1311 708 
Q 1631 397 2203 397 
Q 2534 397 2845 478 
Q 3156 559 3463 722 
L 3463 178 
Q 3153 47 2828 -22 
Q 2503 -91 2169 -91 
Q 1331 -91 842 396 
Q 353 884 353 1716 
Q 353 2575 817 3079 
Q 1281 3584 2069 3584 
Q 2775 3584 3186 3129 
Q 3597 2675 3597 1894 
z
M 3022 2063 
Q 3016 2534 2758 2815 
Q 2500 3097 2075 3097 
Q 1594 3097 1305 2825 
Q 1016 2553 972 2059 
L 3022 2063 
z
" transform="scale(0.015625)"/>
       <path id="DejaVuSans-6e" d="M 3513 2113 
L 3513 0 
L 2938 0 
L 2938 2094 
Q 2938 2591 2744 2837 
Q 2550 3084 2163 3084 
Q 1697 3084 1428 2787 
Q 1159 2491 1159 1978 
L 1159 0 
L 581 0 
L 581 3500 
L 1159 3500 
L 1159 2956 
Q 1366 3272 1645 3428 
Q 1925 3584 2291 3584 
Q 2894 3584 3203 3211 
Q 3513 2838 3513 2113 
z
" transform="scale(0.015625)"/>
       <path id="DejaVuSans-72" d="M 2631 2963 
Q 2534 3019 2420 3045 
Q 2306 3072 2169 3072 
Q 1681 3072 1420 2755 
Q 1159 2438 1159 1844 
L 1159 0 
L 581 0 
L 581 3500 
L 1159 3500 
L 1159 2956 
Q 1341 3275 1631 3429 
Q 1922 3584 2338 3584 
Q 2397 3584 2469 3576 
Q 2541 3569 2628 3553 
L 2631 2963 
z
" transform="scale(0.015625)"/>
       <path id="DejaVuSans-61" d="M 2194 1759 
Q 1497 1759 1228 1600 
Q 959 1441 959 1056 
Q 959 750 1161 570 
Q 1363 391 1709 391 
Q 2188 391 2477 730 
Q 2766 1069 2766 1631 
L 2766 1759 
L 2194 1759 
z
M 3341 1997 
L 3341 0 
L 2766 0 
L 2766 531 
Q 2569 213 2275 61 
Q 1981 -91 1556 -91 
Q 1019 -91 701 211 
Q 384 513 384 1019 
Q 384 1609 779 1909 
Q 1175 2209 1959 2209 
L 2766 2209 
L 2766 2266 
Q 2766 2663 2505 2880 
Q 2244 3097 1772 3097 
Q 1472 3097 1187 3025 
Q 903 2953 641 2809 
L 641 3341 
Q 956 3463 1253 3523 
Q 1550 3584 1831 3584 
Q 2591 3584 2966 3190 
Q 3341 2797 3341 1997 
z
" transform="scale(0.015625)"/>
       <path id="DejaVuSans-74" d="M 1172 4494 
L 1172 3500 
L 2356 3500 
L 2356 3053 
L 1172 3053 
L 1172 1153 
Q 1172 725 1289 603 
Q 1406 481 1766 481 
L 2356 481 
L 2356 0 
L 1766 0 
Q 1100 0 847 248 
Q 594 497 594 1153 
L 594 3053 
L 172 3053 
L 172 3500 
L 594 3500 
L 594 4494 
L 1172 4494 
z
" transform="scale(0.015625)"/>
       <path id="DejaVuSans-69" d="M 603 3500 
L 1178 3500 
L 1178 0 
L 603 0 
L 603 3500 
z
M 603 4863 
L 1178 4863 
L 1178 4134 
L 603 4134 
L 603 4863 
z
" transform="scale(0.015625)"/>
       <path id="DejaVuSans-6f" d="M 1959 3097 
Q 1497 3097 1228 2736 
Q 959 2375 959 1747 
Q 959 1119 1226 758 
Q 1494 397 1959 397 
Q 2419 397 2687 759 
Q 2956 1122 2956 1747 
Q 2956 2369 2687 2733 
Q 2419 3097 1959 3097 
z
M 1959 3584 
Q 2709 3584 3137 3096 
Q 3566 2609 3566 1747 
Q 3566 888 3137 398 
Q 2709 -91 1959 -91 
Q 1206 -91 779 398 
Q 353 888 353 1747 
Q 353 2609 779 3096 
Q 1206 3584 1959 3584 
z
" transform="scale(0.015625)"/>
       <path id="DejaVuSans-73" d="M 2834 3397 
L 2834 2853 
Q 2591 2978 2328 3040 
Q 2066 3103 1784 3103 
Q 1356 3103 1142 2972 
Q 928 2841 928 2578 
Q 928 2378 1081 2264 
Q 1234 2150 1697 2047 
L 1894 2003 
Q 2506 1872 2764 1633 
Q 3022 1394 3022 966 
Q 3022 478 2636 193 
Q 2250 -91 1575 -91 
Q 1294 -91 989 -36 
Q 684 19 347 128 
L 347 722 
Q 666 556 975 473 
Q 1284 391 1588 391 
Q 1994 391 2212 530 
Q 2431 669 2431 922 
Q 2431 1156 2273 1281 
Q 2116 1406 1581 1522 
L 1381 1569 
Q 847 1681 609 1914 
Q 372 2147 372 2553 
Q 372 3047 722 3315 
Q 1072 3584 1716 3584 
Q 2034 3584 2315 3537 
Q 2597 3491 2834 3397 
z
" transform="scale(0.015625)"/>
      </defs>
      <use xlink:href="#DejaVuSans-47"/>
      <use xlink:href="#DejaVuSans-65" x="77.490234"/>
      <use xlink:href="#DejaVuSans-6e" x="139.013672"/>
      <use xlink:href="#DejaVuSans-65" x="202.392578"/>
      <use xlink:href="#DejaVuSans-72" x="263.916016"/>
      <use xlink:href="#DejaVuSans-61" x="305.029297"/>
      <use xlink:href="#DejaVuSans-74" x="366.308594"/>
      <use xlink:href="#DejaVuSans-69" x="405.517578"/>
      <use xlink:href="#DejaVuSans-6f" x="433.300781"/>
      <use xlink:href="#DejaVuSans-6e" x="494.482422"/>
      <use xlink:href="#DejaVuSans-73" x="557.861328"/>
     </g>
    </g>
   </g>
   <g id="matplotlib.axis_2">
    <g id="ytick_1">
     <g id="line2d_6">
      <defs>
       <path id="mac214cc37d" d="M 0 0 
L -3.5 0 
" style="stroke: #000000; stroke-width: 0.8"/>
      </defs>
      <g>
       <use xlink:href="#mac214cc37d" x="57.6" y="307.584" style="stroke: #000000; stroke-width: 0.8"/>
      </g>
     </g>
     <g id="text_7">
      <!-- 0 -->
      <g transform="translate(44.2375 311.383219) scale(0.1 -0.1)">
       <use xlink:href="#DejaVuSans-30"/>
      </g>
     </g>
    </g>
    <g id="ytick_2">
     <g id="line2d_7">
      <g>
       <use xlink:href="#mac214cc37d" x="57.6" y="257.298286" style="stroke: #000000; stroke-width: 0.8"/>
      </g>
     </g>
     <g id="text_8">
      <!-- 50 -->
      <g transform="translate(37.875 261.097504) scale(0.1 -0.1)">
       <defs>
        <path id="DejaVuSans-35" d="M 691 4666 
L 3169 4666 
L 3169 4134 
L 1269 4134 
L 1269 2991 
Q 1406 3038 1543 3061 
Q 1681 3084 1819 3084 
Q 2600 3084 3056 2656 
Q 3513 2228 3513 1497 
Q 3513 744 3044 326 
Q 2575 -91 1722 -91 
Q 1428 -91 1123 -41 
Q 819 9 494 109 
L 494 744 
Q 775 591 1075 516 
Q 1375 441 1709 441 
Q 2250 441 2565 725 
Q 2881 1009 2881 1497 
Q 2881 1984 2565 2268 
Q 2250 2553 1709 2553 
Q 1456 2553 1204 2497 
Q 953 2441 691 2322 
L 691 4666 
z
" transform="scale(0.015625)"/>
       </defs>
       <use xlink:href="#DejaVuSans-35"/>
       <use xlink:href="#DejaVuSans-30" x="63.623047"/>
      </g>
     </g>
    </g>
    <g id="ytick_3">
     <g id="line2d_8">
      <g>
       <use xlink:href="#mac214cc37d" x="57.6" y="207.012571" style="stroke: #000000; stroke-width: 0.8"/>
      </g>
     </g>
     <g id="text_9">
      <!-- 100 -->
      <g transform="translate(31.5125 210.81179) scale(0.1 -0.1)">
       <use xlink:href="#DejaVuSans-31"/>
       <use xlink:href="#DejaVuSans-30" x="63.623047"/>
       <use xlink:href="#DejaVuSans-30" x="127.246094"/>
      </g>
     </g>
    </g>
    <g id="ytick_4">
     <g id="line2d_9">
      <g>
       <use xlink:href="#mac214cc37d" x="57.6" y="156.726857" style="stroke: #000000; stroke-width: 0.8"/>
      </g>
     </g>
     <g id="text_10">
      <!-- 150 -->
      <g transform="translate(31.5125 160.526076) scale(0.1 -0.1)">
       <use xlink:href="#DejaVuSans-31"/>
       <use xlink:href="#DejaVuSans-35" x="63.623047"/>
       <use xlink:href="#DejaVuSans-30" x="127.246094"/>
      </g>
     </g>
    </g>
    <g id="ytick_5">
     <g id="line2d_10">
      <g>
       <use xlink:href="#mac214cc37d" x="57.6" y="106.441143" style="stroke: #000000; stroke-width: 0.8"/>
      </g>
     </g>
     <g id="text_11">
      <!-- 200 -->
      <g transform="translate(31.5125 110.240362) scale(0.1 -0.1)">
       <use xlink:href="#DejaVuSans-32"/>
       <use xlink:href="#DejaVuSans-30" x="63.623047"/>
       <use xlink:href="#DejaVuSans-30" x="127.246094"/>
      </g>
     </g>
    </g>
    <g id="ytick_6">
     <g id="line2d_11">
      <g>
       <use xlink:href="#mac214cc37d" x="57.6" y="56.155429" style="stroke: #000000; stroke-width: 0.8"/>
      </g>
     </g>
     <g id="text_12">
      <!-- 250 -->
      <g transform="translate(31.5125 59.954647) scale(0.1 -0.1)">
       <use xlink:href="#DejaVuSans-32"/>
       <use xlink:href="#DejaVuSans-35" x="63.623047"/>
       <use xlink:href="#DejaVuSans-30" x="127.246094"/>
      </g>
     </g>
    </g>
    <g id="text_13">
     <!-- Size per Species -->
     <g transform="translate(25.432812 215.520969) rotate(-90) scale(0.1 -0.1)">
      <defs>
       <path id="DejaVuSans-53" d="M 3425 4513 
L 3425 3897 
Q 3066 4069 2747 4153 
Q 2428 4238 2131 4238 
Q 1616 4238 1336 4038 
Q 1056 3838 1056 3469 
Q 1056 3159 1242 3001 
Q 1428 2844 1947 2747 
L 2328 2669 
Q 3034 2534 3370 2195 
Q 3706 1856 3706 1288 
Q 3706 609 3251 259 
Q 2797 -91 1919 -91 
Q 1588 -91 1214 -16 
Q 841 59 441 206 
L 441 856 
Q 825 641 1194 531 
Q 1563 422 1919 422 
Q 2459 422 2753 634 
Q 3047 847 3047 1241 
Q 3047 1584 2836 1778 
Q 2625 1972 2144 2069 
L 1759 2144 
Q 1053 2284 737 2584 
Q 422 2884 422 3419 
Q 422 4038 858 4394 
Q 1294 4750 2059 4750 
Q 2388 4750 2728 4690 
Q 3069 4631 3425 4513 
z
" transform="scale(0.015625)"/>
       <path id="DejaVuSans-7a" d="M 353 3500 
L 3084 3500 
L 3084 2975 
L 922 459 
L 3084 459 
L 3084 0 
L 275 0 
L 275 525 
L 2438 3041 
L 353 3041 
L 353 3500 
z
" transform="scale(0.015625)"/>
       <path id="DejaVuSans-20" transform="scale(0.015625)"/>
       <path id="DejaVuSans-70" d="M 1159 525 
L 1159 -1331 
L 581 -1331 
L 581 3500 
L 1159 3500 
L 1159 2969 
Q 1341 3281 1617 3432 
Q 1894 3584 2278 3584 
Q 2916 3584 3314 3078 
Q 3713 2572 3713 1747 
Q 3713 922 3314 415 
Q 2916 -91 2278 -91 
Q 1894 -91 1617 61 
Q 1341 213 1159 525 
z
M 3116 1747 
Q 3116 2381 2855 2742 
Q 2594 3103 2138 3103 
Q 1681 3103 1420 2742 
Q 1159 2381 1159 1747 
Q 1159 1113 1420 752 
Q 1681 391 2138 391 
Q 2594 391 2855 752 
Q 3116 1113 3116 1747 
z
" transform="scale(0.015625)"/>
       <path id="DejaVuSans-63" d="M 3122 3366 
L 3122 2828 
Q 2878 2963 2633 3030 
Q 2388 3097 2138 3097 
Q 1578 3097 1268 2742 
Q 959 2388 959 1747 
Q 959 1106 1268 751 
Q 1578 397 2138 397 
Q 2388 397 2633 464 
Q 2878 531 3122 666 
L 3122 134 
Q 2881 22 2623 -34 
Q 2366 -91 2075 -91 
Q 1284 -91 818 406 
Q 353 903 353 1747 
Q 353 2603 823 3093 
Q 1294 3584 2113 3584 
Q 2378 3584 2631 3529 
Q 2884 3475 3122 3366 
z
" transform="scale(0.015625)"/>
      </defs>
      <use xlink:href="#DejaVuSans-53"/>
      <use xlink:href="#DejaVuSans-69" x="63.476562"/>
      <use xlink:href="#DejaVuSans-7a" x="91.259766"/>
      <use xlink:href="#DejaVuSans-65" x="143.75"/>
      <use xlink:href="#DejaVuSans-20" x="205.273438"/>
      <use xlink:href="#DejaVuSans-70" x="237.060547"/>
      <use xlink:href="#DejaVuSans-65" x="300.537109"/>
      <use xlink:href="#DejaVuSans-72" x="362.060547"/>
      <use xlink:href="#DejaVuSans-20" x="403.173828"/>
      <use xlink:href="#DejaVuSans-53" x="434.960938"/>
      <use xlink:href="#DejaVuSans-70" x="498.4375"/>
      <use xlink:href="#DejaVuSans-65" x="561.914062"/>
      <use xlink:href="#DejaVuSans-63" x="623.4375"/>
      <use xlink:href="#DejaVuSans-69" x="678.417969"/>
      <use xlink:href="#DejaVuSans-65" x="706.201172"/>
      <use xlink:href="#DejaVuSans-73" x="767.724609"/>
     </g>
    </g>
   </g>
   <g id="patch_3">
    <path d="M 57.6 307.584 
L 57.6 41.472 
" style="fill: none; stroke: #000000; stroke-width: 0.8; stroke-linejoin: miter; stroke-linecap: square"/>
   </g>
   <g id="patch_4">
    <path d="M 414.72 307.584 
L 414.72 41.472 
" style="fill: none; stroke: #000000; stroke-width: 0.8; stroke-linejoin: miter; stroke-linecap: square"/>
   </g>
   <g id="patch_5">
    <path d="M 57.6 307.584 
L 414.72 307.584 
" style="fill: none; stroke: #000000; stroke-width: 0.8; stroke-linejoin: miter; stroke-linecap: square"/>
   </g>
   <g id="patch_6">
    <path d="M 57.6 41.472 
L 414.72 41.472 
" style="fill: none; stroke: #000000; stroke-width: 0.8; stroke-linejoin: miter; stroke-linecap: square"/>
   </g>
   <g id="text_14">
    <!-- Speciation -->
    <g transform="translate(204.714375 35.472) scale(0.12 -0.12)">
     <use xlink:href="#DejaVuSans-53"/>
     <use xlink:href="#DejaVuSans-70" x="63.476562"/>
     <use xlink:href="#DejaVuSans-65" x="126.953125"/>
     <use xlink:href="#DejaVuSans-63" x="188.476562"/>
     <use xlink:href="#DejaVuSans-69" x="243.457031"/>
     <use xlink:href="#DejaVuSans-61" x="271.240234"/>
     <use xlink:href="#DejaVuSans-74" x="332.519531"/>
     <use xlink:href="#DejaVuSans-69" x="371.728516"/>
     <use xlink:href="#DejaVuSans-6f" x="399.511719"/>
     <use xlink:href="#DejaVuSans-6e" x="460.693359"/>
    </g>
   </g>
  </g>
 </g>
 <defs>
  <clipPath id="p07ed4178bc">
   <rect x="57.6" y="41.472" width="357.12" height="266.112"/>
  </clipPath>
 </defs>
</svg>
