<?xml version="1.0" encoding="UTF-8" standalone="no"?>
<!DOCTYPE svg PUBLIC "-//W3C//DTD SVG 1.1//EN"
 "http://www.w3.org/Graphics/SVG/1.1/DTD/svg11.dtd">
<!-- Generated by graphviz version 2.43.0 (0)
 -->
<!-- Title: %3 Pages: 1 -->
<svg width="283pt" height="227pt"
 viewBox="0.00 0.00 283.32 226.69" xmlns="http://www.w3.org/2000/svg" xmlns:xlink="http://www.w3.org/1999/xlink">
<g id="graph0" class="graph" transform="scale(1 1) rotate(0) translate(4 222.69)">
<title>%3</title>
<polygon fill="white" stroke="transparent" points="-4,4 -4,-222.69 279.32,-222.69 279.32,4 -4,4"/>
<!-- x -->
<g id="node1" class="node">
<title>x</title>
<polygon fill="lightgray" stroke="black" points="229.32,-218.69 207.32,-218.69 207.32,-200.69 229.32,-200.69 229.32,-218.69"/>
<text text-anchor="middle" x="218.32" y="-207.49" font-family="Times,serif" font-size="9.00">x</text>
</g>
<!-- control -->
<g id="node5" class="node">
<title>control</title>
<ellipse fill="lightblue" stroke="black" cx="86.32" cy="-35.36" rx="35.21" ry="35.21"/>
<text text-anchor="middle" x="86.32" y="-33.16" font-family="Times,serif" font-size="9.00">control</text>
</g>
<!-- x&#45;&gt;control -->
<g id="edge3" class="edge">
<title>x&#45;&gt;control</title>
<path fill="none" stroke="red" stroke-width="0.63" stroke-dasharray="1,5" d="M207.07,-208.11C167.46,-205.79 35.54,-195.8 10.32,-164.69 -5.9,-144.67 0.01,-130.32 10.32,-106.71 18.28,-88.5 33.54,-72.9 48.3,-61.05"/>
<polygon fill="red" stroke="red" stroke-width="0.63" points="50.58,-63.71 56.41,-54.86 46.33,-58.15 50.58,-63.71"/>
</g>
<!-- 2249 -->
<g id="node6" class="node">
<title>2249</title>
<ellipse fill="white" stroke="black" cx="218.32" cy="-135.7" rx="28.98" ry="28.98"/>
<text text-anchor="middle" x="218.32" y="-133.5" font-family="Times,serif" font-size="9.00">2249</text>
</g>
<!-- x&#45;&gt;2249 -->
<g id="edge5" class="edge">
<title>x&#45;&gt;2249</title>
<path fill="none" stroke="red" stroke-width="0.44" d="M218.32,-200.44C218.32,-193.97 218.32,-184.46 218.32,-174.76"/>
<polygon fill="red" stroke="red" stroke-width="0.44" points="221.82,-174.7 218.32,-164.7 214.82,-174.7 221.82,-174.7"/>
</g>
<!-- 2418 -->
<g id="node7" class="node">
<title>2418</title>
<ellipse fill="white" stroke="black" cx="246.32" cy="-35.36" rx="28.98" ry="28.98"/>
<text text-anchor="middle" x="246.32" y="-33.16" font-family="Times,serif" font-size="9.00">2418</text>
</g>
<!-- x&#45;&gt;2418 -->
<g id="edge7" class="edge">
<title>x&#45;&gt;2418</title>
<path fill="none" stroke="red" stroke-width="0.27" d="M228.68,-200.55C237.92,-192.56 250.83,-179.45 256.32,-164.69 267.26,-135.29 263.2,-99.55 257.3,-73.26"/>
<polygon fill="red" stroke="red" stroke-width="0.27" points="260.65,-72.21 254.88,-63.32 253.84,-73.87 260.65,-72.21"/>
</g>
<!-- dx -->
<g id="node2" class="node">
<title>dx</title>
<polygon fill="lightgray" stroke="black" points="47.32,-144.7 19.32,-144.7 19.32,-126.7 47.32,-126.7 47.32,-144.7"/>
<text text-anchor="middle" x="33.32" y="-133.5" font-family="Times,serif" font-size="9.00">dx</text>
</g>
<!-- dx&#45;&gt;control -->
<g id="edge4" class="edge">
<title>dx&#45;&gt;control</title>
<path fill="none" stroke="green" stroke-width="0.31" d="M37.66,-126.65C43.65,-115.54 54.87,-94.71 65.03,-75.86"/>
<polygon fill="green" stroke="green" stroke-width="0.31" points="68.24,-77.28 69.91,-66.82 62.08,-73.96 68.24,-77.28"/>
</g>
<!-- theta -->
<g id="node3" class="node">
<title>theta</title>
<polygon fill="lightgray" stroke="black" points="106.82,-144.7 65.82,-144.7 65.82,-126.7 106.82,-126.7 106.82,-144.7"/>
<text text-anchor="middle" x="86.32" y="-133.5" font-family="Times,serif" font-size="9.00">theta</text>
</g>
<!-- theta&#45;&gt;control -->
<g id="edge1" class="edge">
<title>theta&#45;&gt;control</title>
<path fill="none" stroke="green" stroke-width="1.39" d="M86.32,-126.65C86.32,-116.53 86.32,-98.36 86.32,-80.95"/>
<polygon fill="green" stroke="green" stroke-width="1.39" points="89.82,-80.86 86.32,-70.86 82.82,-80.86 89.82,-80.86"/>
</g>
<!-- dtheta -->
<g id="node4" class="node">
<title>dtheta</title>
<polygon fill="lightgray" stroke="black" points="171.82,-144.7 124.82,-144.7 124.82,-126.7 171.82,-126.7 171.82,-144.7"/>
<text text-anchor="middle" x="148.32" y="-133.5" font-family="Times,serif" font-size="9.00">dtheta</text>
</g>
<!-- dtheta&#45;&gt;control -->
<g id="edge2" class="edge">
<title>dtheta&#45;&gt;control</title>
<path fill="none" stroke="green" stroke-width="0.53" d="M143.25,-126.65C136.08,-115.28 122.5,-93.73 110.4,-74.54"/>
<polygon fill="green" stroke="green" stroke-width="0.53" points="113.27,-72.53 104.97,-65.94 107.34,-76.26 113.27,-72.53"/>
</g>
<!-- 2249&#45;&gt;control -->
<g id="edge6" class="edge">
<title>2249&#45;&gt;control</title>
<path fill="none" stroke="red" stroke-width="0.63" d="M195.33,-117.57C175.33,-102.67 146,-80.82 122.8,-63.53"/>
<polygon fill="red" stroke="red" stroke-width="0.63" points="124.67,-60.56 114.56,-57.39 120.49,-66.17 124.67,-60.56"/>
</g>
<!-- 2249&#45;&gt;2418 -->
<g id="edge8" class="edge">
<title>2249&#45;&gt;2418</title>
<path fill="none" stroke="red" stroke-width="0.12" d="M226.05,-107.57C229.08,-96.93 232.6,-84.55 235.86,-73.13"/>
<polygon fill="red" stroke="red" stroke-width="0.12" points="239.25,-73.98 238.62,-63.4 232.52,-72.06 239.25,-73.98"/>
</g>
</g>
</svg>
