<?xml version="1.0" encoding="utf-8" standalone="no"?>
<!DOCTYPE svg PUBLIC "-//W3C//DTD SVG 1.1//EN"
  "http://www.w3.org/Graphics/SVG/1.1/DTD/svg11.dtd">
<svg xmlns:xlink="http://www.w3.org/1999/xlink" width="460.8pt" height="345.6pt" viewBox="0 0 460.8 345.6" xmlns="http://www.w3.org/2000/svg" version="1.1">
 <metadata>
  <rdf:RDF xmlns:dc="http://purl.org/dc/elements/1.1/" xmlns:cc="http://creativecommons.org/ns#" xmlns:rdf="http://www.w3.org/1999/02/22-rdf-syntax-ns#">
   <cc:Work>
    <dc:type rdf:resource="http://purl.org/dc/dcmitype/StillImage"/>
    <dc:date>2023-05-22T00:13:01.196037</dc:date>
    <dc:format>image/svg+xml</dc:format>
    <dc:creator>
     <cc:Agent>
      <dc:title>Matplotlib v3.7.0, https://matplotlib.org/</dc:title>
     </cc:Agent>
    </dc:creator>
   </cc:Work>
  </rdf:RDF>
 </metadata>
 <defs>
  <style type="text/css">*{stroke-linejoin: round; stroke-linecap: butt}</style>
 </defs>
 <g id="figure_1">
  <g id="patch_1">
   <path d="M 0 345.6 
L 460.8 345.6 
L 460.8 0 
L 0 0 
z
" style="fill: #ffffff"/>
  </g>
  <g id="axes_1">
   <g id="patch_2">
    <path d="M 57.6 307.584 
L 414.72 307.584 
L 414.72 41.472 
L 57.6 41.472 
z
" style="fill: #ffffff"/>
   </g>
   <g id="PolyCollection_1">
    <path d="M 73.832727 186.850772 
L 73.832727 307.584 
L 80.076084 307.584 
L 86.319441 307.584 
L 92.562797 307.584 
L 98.806154 307.584 
L 105.04951 307.584 
L 111.292867 307.584 
L 117.536224 307.584 
L 123.77958 307.584 
L 130.022937 307.584 
L 136.266294 307.584 
L 142.50965 307.584 
L 148.753007 307.584 
L 154.996364 307.584 
L 161.23972 307.584 
L 167.483077 307.584 
L 173.726434 307.584 
L 179.96979 307.584 
L 186.213147 307.584 
L 192.456503 307.584 
L 198.69986 307.584 
L 204.943217 307.584 
L 211.186573 307.584 
L 217.42993 307.584 
L 223.673287 307.584 
L 229.916643 307.584 
L 236.16 307.584 
L 242.403357 307.584 
L 248.646713 307.584 
L 254.89007 307.584 
L 261.133427 307.584 
L 267.376783 307.584 
L 273.62014 307.584 
L 279.863497 307.584 
L 286.106853 307.584 
L 292.35021 307.584 
L 298.593566 307.584 
L 304.836923 307.584 
L 311.08028 307.584 
L 317.323636 307.584 
L 323.566993 307.584 
L 329.81035 307.584 
L 336.053706 307.584 
L 342.297063 307.584 
L 348.54042 307.584 
L 354.783776 307.584 
L 361.027133 307.584 
L 367.27049 307.584 
L 373.513846 307.584 
L 379.757203 307.584 
L 386.000559 307.584 
L 392.243916 307.584 
L 398.487273 307.584 
L 398.487273 307.584 
L 398.487273 307.584 
L 392.243916 307.584 
L 386.000559 307.584 
L 379.757203 307.584 
L 373.513846 307.584 
L 367.27049 307.584 
L 361.027133 307.584 
L 354.783776 307.584 
L 348.54042 307.584 
L 342.297063 307.584 
L 336.053706 307.584 
L 329.81035 307.584 
L 323.566993 307.584 
L 317.323636 307.584 
L 311.08028 307.584 
L 304.836923 307.584 
L 298.593566 307.584 
L 292.35021 307.584 
L 286.106853 307.584 
L 279.863497 307.584 
L 273.62014 307.584 
L 267.376783 307.584 
L 261.133427 307.584 
L 254.89007 307.584 
L 248.646713 307.584 
L 242.403357 307.584 
L 236.16 307.584 
L 229.916643 307.584 
L 223.673287 307.584 
L 217.42993 307.584 
L 211.186573 307.584 
L 204.943217 307.584 
L 198.69986 295.610457 
L 192.456503 302.595024 
L 186.213147 306.586205 
L 179.96979 300.599433 
L 173.726434 304.590614 
L 167.483077 280.643528 
L 161.23972 285.632504 
L 154.996364 276.652346 
L 148.753007 265.676598 
L 142.50965 278.647937 
L 136.266294 282.639118 
L 130.022937 270.665575 
L 123.77958 276.652346 
L 117.536224 279.645732 
L 111.292867 294.612661 
L 105.04951 303.592819 
L 98.806154 304.590614 
L 92.562797 303.592819 
L 86.319441 304.590614 
L 80.076084 303.592819 
L 73.832727 186.850772 
z
" clip-path="url(#p2683fa8d9a)" style="fill: #1f77b4"/>
   </g>
   <g id="PolyCollection_2">
    <path d="M 73.832727 185.852976 
L 73.832727 186.850772 
L 80.076084 303.592819 
L 86.319441 304.590614 
L 92.562797 303.592819 
L 98.806154 304.590614 
L 105.04951 303.592819 
L 111.292867 294.612661 
L 117.536224 279.645732 
L 123.77958 276.652346 
L 130.022937 270.665575 
L 136.266294 282.639118 
L 142.50965 278.647937 
L 148.753007 265.676598 
L 154.996364 276.652346 
L 161.23972 285.632504 
L 167.483077 280.643528 
L 173.726434 304.590614 
L 179.96979 300.599433 
L 186.213147 306.586205 
L 192.456503 302.595024 
L 198.69986 295.610457 
L 204.943217 307.584 
L 211.186573 307.584 
L 217.42993 307.584 
L 223.673287 307.584 
L 229.916643 307.584 
L 236.16 307.584 
L 242.403357 307.584 
L 248.646713 307.584 
L 254.89007 307.584 
L 261.133427 307.584 
L 267.376783 307.584 
L 273.62014 307.584 
L 279.863497 307.584 
L 286.106853 307.584 
L 292.35021 307.584 
L 298.593566 307.584 
L 304.836923 307.584 
L 311.08028 307.584 
L 317.323636 307.584 
L 323.566993 307.584 
L 329.81035 307.584 
L 336.053706 307.584 
L 342.297063 307.584 
L 348.54042 307.584 
L 354.783776 307.584 
L 361.027133 307.584 
L 367.27049 307.584 
L 373.513846 307.584 
L 379.757203 307.584 
L 386.000559 307.584 
L 392.243916 307.584 
L 398.487273 307.584 
L 398.487273 307.584 
L 398.487273 307.584 
L 392.243916 307.584 
L 386.000559 307.584 
L 379.757203 307.584 
L 373.513846 307.584 
L 367.27049 307.584 
L 361.027133 307.584 
L 354.783776 307.584 
L 348.54042 307.584 
L 342.297063 307.584 
L 336.053706 307.584 
L 329.81035 307.584 
L 323.566993 290.62148 
L 317.323636 288.62589 
L 311.08028 286.630299 
L 304.836923 283.636913 
L 298.593566 286.630299 
L 292.35021 287.628094 
L 286.106853 283.636913 
L 279.863497 291.619276 
L 273.62014 293.614866 
L 267.376783 292.617071 
L 261.133427 291.619276 
L 254.89007 290.62148 
L 248.646713 292.617071 
L 242.403357 289.623685 
L 236.16 290.62148 
L 229.916643 292.617071 
L 223.673287 292.617071 
L 217.42993 291.619276 
L 211.186573 290.62148 
L 204.943217 289.623685 
L 198.69986 279.645732 
L 192.456503 284.634709 
L 186.213147 290.62148 
L 179.96979 286.630299 
L 173.726434 289.623685 
L 167.483077 269.66778 
L 161.23972 275.654551 
L 154.996364 265.676598 
L 148.753007 252.70526 
L 142.50965 266.674394 
L 136.266294 269.66778 
L 130.022937 258.692031 
L 123.77958 262.683213 
L 117.536224 263.681008 
L 111.292867 277.650142 
L 105.04951 288.62589 
L 98.806154 294.612661 
L 92.562797 295.610457 
L 86.319441 297.606047 
L 80.076084 298.603843 
L 73.832727 185.852976 
z
" clip-path="url(#p2683fa8d9a)" style="fill: #ff7f0e"/>
   </g>
   <g id="PolyCollection_3">
    <path d="M 73.832727 149.932346 
L 73.832727 185.852976 
L 80.076084 298.603843 
L 86.319441 297.606047 
L 92.562797 295.610457 
L 98.806154 294.612661 
L 105.04951 288.62589 
L 111.292867 277.650142 
L 117.536224 263.681008 
L 123.77958 262.683213 
L 130.022937 258.692031 
L 136.266294 269.66778 
L 142.50965 266.674394 
L 148.753007 252.70526 
L 154.996364 265.676598 
L 161.23972 275.654551 
L 167.483077 269.66778 
L 173.726434 289.623685 
L 179.96979 286.630299 
L 186.213147 290.62148 
L 192.456503 284.634709 
L 198.69986 279.645732 
L 204.943217 289.623685 
L 211.186573 290.62148 
L 217.42993 291.619276 
L 223.673287 292.617071 
L 229.916643 292.617071 
L 236.16 290.62148 
L 242.403357 289.623685 
L 248.646713 292.617071 
L 254.89007 290.62148 
L 261.133427 291.619276 
L 267.376783 292.617071 
L 273.62014 293.614866 
L 279.863497 291.619276 
L 286.106853 283.636913 
L 292.35021 287.628094 
L 298.593566 286.630299 
L 304.836923 283.636913 
L 311.08028 286.630299 
L 317.323636 288.62589 
L 323.566993 290.62148 
L 329.81035 307.584 
L 336.053706 307.584 
L 342.297063 307.584 
L 348.54042 307.584 
L 354.783776 307.584 
L 361.027133 307.584 
L 367.27049 307.584 
L 373.513846 307.584 
L 379.757203 307.584 
L 386.000559 307.584 
L 392.243916 307.584 
L 398.487273 307.584 
L 398.487273 290.62148 
L 398.487273 290.62148 
L 392.243916 293.614866 
L 386.000559 290.62148 
L 379.757203 275.654551 
L 373.513846 281.641323 
L 367.27049 294.612661 
L 361.027133 287.628094 
L 354.783776 297.606047 
L 348.54042 279.645732 
L 342.297063 282.639118 
L 336.053706 269.66778 
L 329.81035 258.692031 
L 323.566993 263.681008 
L 317.323636 264.678803 
L 311.08028 245.720693 
L 304.836923 263.681008 
L 298.593566 274.656756 
L 292.35021 265.676598 
L 286.106853 257.694236 
L 279.863497 270.665575 
L 273.62014 269.66778 
L 267.376783 215.786835 
L 261.133427 266.674394 
L 254.89007 251.707465 
L 248.646713 272.661165 
L 242.403357 258.692031 
L 236.16 266.674394 
L 229.916643 270.665575 
L 223.673287 257.694236 
L 217.42993 256.696441 
L 211.186573 243.725102 
L 204.943217 244.722898 
L 198.69986 248.714079 
L 192.456503 238.736126 
L 186.213147 247.716283 
L 179.96979 246.718488 
L 173.726434 241.729512 
L 167.483077 242.727307 
L 161.23972 256.696441 
L 154.996364 258.692031 
L 148.753007 248.714079 
L 142.50965 259.689827 
L 136.266294 264.678803 
L 130.022937 257.694236 
L 123.77958 239.733921 
L 117.536224 240.731717 
L 111.292867 263.681008 
L 105.04951 268.669984 
L 98.806154 281.641323 
L 92.562797 266.674394 
L 86.319441 263.681008 
L 80.076084 265.676598 
L 73.832727 149.932346 
z
" clip-path="url(#p2683fa8d9a)" style="fill: #2ca02c"/>
   </g>
   <g id="PolyCollection_4">
    <path d="M 73.832727 127.98085 
L 73.832727 149.932346 
L 80.076084 265.676598 
L 86.319441 263.681008 
L 92.562797 266.674394 
L 98.806154 281.641323 
L 105.04951 268.669984 
L 111.292867 263.681008 
L 117.536224 240.731717 
L 123.77958 239.733921 
L 130.022937 257.694236 
L 136.266294 264.678803 
L 142.50965 259.689827 
L 148.753007 248.714079 
L 154.996364 258.692031 
L 161.23972 256.696441 
L 167.483077 242.727307 
L 173.726434 241.729512 
L 179.96979 246.718488 
L 186.213147 247.716283 
L 192.456503 238.736126 
L 198.69986 248.714079 
L 204.943217 244.722898 
L 211.186573 243.725102 
L 217.42993 256.696441 
L 223.673287 257.694236 
L 229.916643 270.665575 
L 236.16 266.674394 
L 242.403357 258.692031 
L 248.646713 272.661165 
L 254.89007 251.707465 
L 261.133427 266.674394 
L 267.376783 215.786835 
L 273.62014 269.66778 
L 279.863497 270.665575 
L 286.106853 257.694236 
L 292.35021 265.676598 
L 298.593566 274.656756 
L 304.836923 263.681008 
L 311.08028 245.720693 
L 317.323636 264.678803 
L 323.566993 263.681008 
L 329.81035 258.692031 
L 336.053706 269.66778 
L 342.297063 282.639118 
L 348.54042 279.645732 
L 354.783776 297.606047 
L 361.027133 287.628094 
L 367.27049 294.612661 
L 373.513846 281.641323 
L 379.757203 275.654551 
L 386.000559 290.62148 
L 392.243916 293.614866 
L 398.487273 290.62148 
L 398.487273 290.62148 
L 398.487273 290.62148 
L 392.243916 293.614866 
L 386.000559 290.62148 
L 379.757203 275.654551 
L 373.513846 281.641323 
L 367.27049 294.612661 
L 361.027133 287.628094 
L 354.783776 297.606047 
L 348.54042 279.645732 
L 342.297063 282.639118 
L 336.053706 269.66778 
L 329.81035 258.692031 
L 323.566993 263.681008 
L 317.323636 264.678803 
L 311.08028 245.720693 
L 304.836923 263.681008 
L 298.593566 274.656756 
L 292.35021 265.676598 
L 286.106853 257.694236 
L 279.863497 270.665575 
L 273.62014 269.66778 
L 267.376783 215.786835 
L 261.133427 266.674394 
L 254.89007 251.707465 
L 248.646713 272.661165 
L 242.403357 258.692031 
L 236.16 266.674394 
L 229.916643 270.665575 
L 223.673287 246.718488 
L 217.42993 245.720693 
L 211.186573 227.760378 
L 204.943217 231.751559 
L 198.69986 236.740535 
L 192.456503 224.766992 
L 186.213147 239.733921 
L 179.96979 243.725102 
L 173.726434 231.751559 
L 167.483077 239.733921 
L 161.23972 239.733921 
L 154.996364 239.733921 
L 148.753007 236.740535 
L 142.50965 248.714079 
L 136.266294 241.729512 
L 130.022937 247.716283 
L 123.77958 227.760378 
L 117.536224 227.760378 
L 111.292867 239.733921 
L 105.04951 246.718488 
L 98.806154 260.687622 
L 92.562797 246.718488 
L 86.319441 246.718488 
L 80.076084 245.720693 
L 73.832727 127.98085 
z
" clip-path="url(#p2683fa8d9a)" style="fill: #d62728"/>
   </g>
   <g id="PolyCollection_5">
    <path d="M 73.832727 119.998488 
L 73.832727 127.98085 
L 80.076084 245.720693 
L 86.319441 246.718488 
L 92.562797 246.718488 
L 98.806154 260.687622 
L 105.04951 246.718488 
L 111.292867 239.733921 
L 117.536224 227.760378 
L 123.77958 227.760378 
L 130.022937 247.716283 
L 136.266294 241.729512 
L 142.50965 248.714079 
L 148.753007 236.740535 
L 154.996364 239.733921 
L 161.23972 239.733921 
L 167.483077 239.733921 
L 173.726434 231.751559 
L 179.96979 243.725102 
L 186.213147 239.733921 
L 192.456503 224.766992 
L 198.69986 236.740535 
L 204.943217 231.751559 
L 211.186573 227.760378 
L 217.42993 245.720693 
L 223.673287 246.718488 
L 229.916643 270.665575 
L 236.16 266.674394 
L 242.403357 258.692031 
L 248.646713 272.661165 
L 254.89007 251.707465 
L 261.133427 266.674394 
L 267.376783 215.786835 
L 273.62014 269.66778 
L 279.863497 270.665575 
L 286.106853 257.694236 
L 292.35021 265.676598 
L 298.593566 274.656756 
L 304.836923 263.681008 
L 311.08028 245.720693 
L 317.323636 264.678803 
L 323.566993 263.681008 
L 329.81035 258.692031 
L 336.053706 269.66778 
L 342.297063 282.639118 
L 348.54042 279.645732 
L 354.783776 297.606047 
L 361.027133 287.628094 
L 367.27049 294.612661 
L 373.513846 281.641323 
L 379.757203 275.654551 
L 386.000559 290.62148 
L 392.243916 293.614866 
L 398.487273 290.62148 
L 398.487273 290.62148 
L 398.487273 290.62148 
L 392.243916 293.614866 
L 386.000559 290.62148 
L 379.757203 275.654551 
L 373.513846 281.641323 
L 367.27049 294.612661 
L 361.027133 287.628094 
L 354.783776 297.606047 
L 348.54042 279.645732 
L 342.297063 282.639118 
L 336.053706 269.66778 
L 329.81035 258.692031 
L 323.566993 263.681008 
L 317.323636 264.678803 
L 311.08028 245.720693 
L 304.836923 263.681008 
L 298.593566 274.656756 
L 292.35021 265.676598 
L 286.106853 257.694236 
L 279.863497 270.665575 
L 273.62014 269.66778 
L 267.376783 215.786835 
L 261.133427 266.674394 
L 254.89007 251.707465 
L 248.646713 272.661165 
L 242.403357 258.692031 
L 236.16 266.674394 
L 229.916643 270.665575 
L 223.673287 246.718488 
L 217.42993 222.771402 
L 211.186573 220.775811 
L 204.943217 220.775811 
L 198.69986 231.751559 
L 192.456503 190.841953 
L 186.213147 192.837543 
L 179.96979 186.850772 
L 173.726434 183.857386 
L 167.483077 192.837543 
L 161.23972 195.830929 
L 154.996364 179.866205 
L 148.753007 223.769197 
L 142.50965 226.762583 
L 136.266294 218.78022 
L 130.022937 203.813291 
L 123.77958 186.850772 
L 117.536224 183.857386 
L 111.292867 216.78463 
L 105.04951 218.78022 
L 98.806154 235.74274 
L 92.562797 216.78463 
L 86.319441 228.758173 
L 80.076084 215.786835 
L 73.832727 119.998488 
z
" clip-path="url(#p2683fa8d9a)" style="fill: #9467bd"/>
   </g>
   <g id="PolyCollection_6">
    <path d="M 73.832727 119.000693 
L 73.832727 119.998488 
L 80.076084 215.786835 
L 86.319441 228.758173 
L 92.562797 216.78463 
L 98.806154 235.74274 
L 105.04951 218.78022 
L 111.292867 216.78463 
L 117.536224 183.857386 
L 123.77958 186.850772 
L 130.022937 203.813291 
L 136.266294 218.78022 
L 142.50965 226.762583 
L 148.753007 223.769197 
L 154.996364 179.866205 
L 161.23972 195.830929 
L 167.483077 192.837543 
L 173.726434 183.857386 
L 179.96979 186.850772 
L 186.213147 192.837543 
L 192.456503 190.841953 
L 198.69986 231.751559 
L 204.943217 220.775811 
L 211.186573 220.775811 
L 217.42993 222.771402 
L 223.673287 246.718488 
L 229.916643 270.665575 
L 236.16 266.674394 
L 242.403357 258.692031 
L 248.646713 272.661165 
L 254.89007 251.707465 
L 261.133427 266.674394 
L 267.376783 215.786835 
L 273.62014 269.66778 
L 279.863497 270.665575 
L 286.106853 257.694236 
L 292.35021 265.676598 
L 298.593566 274.656756 
L 304.836923 263.681008 
L 311.08028 245.720693 
L 317.323636 264.678803 
L 323.566993 263.681008 
L 329.81035 258.692031 
L 336.053706 269.66778 
L 342.297063 282.639118 
L 348.54042 279.645732 
L 354.783776 297.606047 
L 361.027133 287.628094 
L 367.27049 294.612661 
L 373.513846 281.641323 
L 379.757203 275.654551 
L 386.000559 290.62148 
L 392.243916 293.614866 
L 398.487273 290.62148 
L 398.487273 290.62148 
L 398.487273 290.62148 
L 392.243916 293.614866 
L 386.000559 290.62148 
L 379.757203 275.654551 
L 373.513846 281.641323 
L 367.27049 294.612661 
L 361.027133 287.628094 
L 354.783776 297.606047 
L 348.54042 279.645732 
L 342.297063 282.639118 
L 336.053706 269.66778 
L 329.81035 258.692031 
L 323.566993 263.681008 
L 317.323636 264.678803 
L 311.08028 245.720693 
L 304.836923 263.681008 
L 298.593566 274.656756 
L 292.35021 265.676598 
L 286.106853 257.694236 
L 279.863497 270.665575 
L 273.62014 269.66778 
L 267.376783 215.786835 
L 261.133427 266.674394 
L 254.89007 251.707465 
L 248.646713 272.661165 
L 242.403357 258.692031 
L 236.16 266.674394 
L 229.916643 270.665575 
L 223.673287 246.718488 
L 217.42993 222.771402 
L 211.186573 217.782425 
L 204.943217 218.78022 
L 198.69986 228.758173 
L 192.456503 188.846362 
L 186.213147 189.844157 
L 179.96979 184.855181 
L 173.726434 180.864 
L 167.483077 190.841953 
L 161.23972 192.837543 
L 154.996364 175.875024 
L 148.753007 220.775811 
L 142.50965 222.771402 
L 136.266294 215.786835 
L 130.022937 199.82211 
L 123.77958 181.861795 
L 117.536224 179.866205 
L 111.292867 211.795654 
L 105.04951 215.786835 
L 98.806154 230.753764 
L 92.562797 209.800063 
L 86.319441 222.771402 
L 80.076084 210.797858 
L 73.832727 119.000693 
z
" clip-path="url(#p2683fa8d9a)" style="fill: #8c564b"/>
   </g>
   <g id="PolyCollection_7">
    <path d="M 73.832727 99.044787 
L 73.832727 119.000693 
L 80.076084 210.797858 
L 86.319441 222.771402 
L 92.562797 209.800063 
L 98.806154 230.753764 
L 105.04951 215.786835 
L 111.292867 211.795654 
L 117.536224 179.866205 
L 123.77958 181.861795 
L 130.022937 199.82211 
L 136.266294 215.786835 
L 142.50965 222.771402 
L 148.753007 220.775811 
L 154.996364 175.875024 
L 161.23972 192.837543 
L 167.483077 190.841953 
L 173.726434 180.864 
L 179.96979 184.855181 
L 186.213147 189.844157 
L 192.456503 188.846362 
L 198.69986 228.758173 
L 204.943217 218.78022 
L 211.186573 217.782425 
L 217.42993 222.771402 
L 223.673287 246.718488 
L 229.916643 270.665575 
L 236.16 266.674394 
L 242.403357 258.692031 
L 248.646713 272.661165 
L 254.89007 251.707465 
L 261.133427 266.674394 
L 267.376783 215.786835 
L 273.62014 269.66778 
L 279.863497 270.665575 
L 286.106853 257.694236 
L 292.35021 265.676598 
L 298.593566 274.656756 
L 304.836923 263.681008 
L 311.08028 245.720693 
L 317.323636 264.678803 
L 323.566993 263.681008 
L 329.81035 258.692031 
L 336.053706 269.66778 
L 342.297063 282.639118 
L 348.54042 279.645732 
L 354.783776 297.606047 
L 361.027133 287.628094 
L 367.27049 294.612661 
L 373.513846 281.641323 
L 379.757203 275.654551 
L 386.000559 290.62148 
L 392.243916 293.614866 
L 398.487273 290.62148 
L 398.487273 290.62148 
L 398.487273 290.62148 
L 392.243916 293.614866 
L 386.000559 290.62148 
L 379.757203 275.654551 
L 373.513846 281.641323 
L 367.27049 294.612661 
L 361.027133 287.628094 
L 354.783776 297.606047 
L 348.54042 279.645732 
L 342.297063 282.639118 
L 336.053706 269.66778 
L 329.81035 258.692031 
L 323.566993 263.681008 
L 317.323636 264.678803 
L 311.08028 245.720693 
L 304.836923 263.681008 
L 298.593566 274.656756 
L 292.35021 265.676598 
L 286.106853 257.694236 
L 279.863497 270.665575 
L 273.62014 269.66778 
L 267.376783 215.786835 
L 261.133427 266.674394 
L 254.89007 251.707465 
L 248.646713 272.661165 
L 242.403357 258.692031 
L 236.16 266.674394 
L 229.916643 270.665575 
L 223.673287 238.736126 
L 217.42993 211.795654 
L 211.186573 205.808882 
L 204.943217 209.800063 
L 198.69986 215.786835 
L 192.456503 179.866205 
L 186.213147 187.848567 
L 179.96979 181.861795 
L 173.726434 157.914709 
L 167.483077 172.881638 
L 161.23972 174.877228 
L 154.996364 163.90148 
L 148.753007 189.844157 
L 142.50965 201.817701 
L 136.266294 187.848567 
L 130.022937 175.875024 
L 123.77958 161.90589 
L 117.536224 144.94337 
L 111.292867 174.877228 
L 105.04951 177.870614 
L 98.806154 173.879433 
L 92.562797 151.927937 
L 86.319441 160.908094 
L 80.076084 169.888252 
L 73.832727 99.044787 
z
" clip-path="url(#p2683fa8d9a)" style="fill: #e377c2"/>
   </g>
   <g id="PolyCollection_8">
    <path d="M 73.832727 93.058016 
L 73.832727 99.044787 
L 80.076084 169.888252 
L 86.319441 160.908094 
L 92.562797 151.927937 
L 98.806154 173.879433 
L 105.04951 177.870614 
L 111.292867 174.877228 
L 117.536224 144.94337 
L 123.77958 161.90589 
L 130.022937 175.875024 
L 136.266294 187.848567 
L 142.50965 201.817701 
L 148.753007 189.844157 
L 154.996364 163.90148 
L 161.23972 174.877228 
L 167.483077 172.881638 
L 173.726434 157.914709 
L 179.96979 181.861795 
L 186.213147 187.848567 
L 192.456503 179.866205 
L 198.69986 215.786835 
L 204.943217 209.800063 
L 211.186573 205.808882 
L 217.42993 211.795654 
L 223.673287 238.736126 
L 229.916643 270.665575 
L 236.16 266.674394 
L 242.403357 258.692031 
L 248.646713 272.661165 
L 254.89007 251.707465 
L 261.133427 266.674394 
L 267.376783 215.786835 
L 273.62014 269.66778 
L 279.863497 270.665575 
L 286.106853 257.694236 
L 292.35021 265.676598 
L 298.593566 274.656756 
L 304.836923 263.681008 
L 311.08028 245.720693 
L 317.323636 264.678803 
L 323.566993 263.681008 
L 329.81035 258.692031 
L 336.053706 269.66778 
L 342.297063 282.639118 
L 348.54042 279.645732 
L 354.783776 297.606047 
L 361.027133 287.628094 
L 367.27049 294.612661 
L 373.513846 281.641323 
L 379.757203 275.654551 
L 386.000559 290.62148 
L 392.243916 293.614866 
L 398.487273 290.62148 
L 398.487273 266.674394 
L 398.487273 266.674394 
L 392.243916 284.634709 
L 386.000559 259.689827 
L 379.757203 264.678803 
L 373.513846 252.70526 
L 367.27049 216.78463 
L 361.027133 211.795654 
L 354.783776 222.771402 
L 348.54042 211.795654 
L 342.297063 225.764787 
L 336.053706 177.870614 
L 329.81035 247.716283 
L 323.566993 232.749354 
L 317.323636 183.857386 
L 311.08028 223.769197 
L 304.836923 245.720693 
L 298.593566 199.82211 
L 292.35021 203.813291 
L 286.106853 204.811087 
L 279.863497 205.808882 
L 273.62014 254.70085 
L 267.376783 203.813291 
L 261.133427 244.722898 
L 254.89007 229.755969 
L 248.646713 252.70526 
L 242.403357 230.753764 
L 236.16 224.766992 
L 229.916643 237.738331 
L 223.673287 212.793449 
L 217.42993 183.857386 
L 211.186573 190.841953 
L 204.943217 196.828724 
L 198.69986 200.819906 
L 192.456503 175.875024 
L 186.213147 181.861795 
L 179.96979 161.90589 
L 173.726434 137.958803 
L 167.483077 151.927937 
L 161.23972 150.930142 
L 154.996364 154.921323 
L 148.753007 155.919118 
L 142.50965 164.899276 
L 136.266294 128.978646 
L 130.022937 163.90148 
L 123.77958 140.952189 
L 117.536224 136.961008 
L 111.292867 169.888252 
L 105.04951 173.879433 
L 98.806154 169.888252 
L 92.562797 145.941165 
L 86.319441 153.923528 
L 80.076084 163.90148 
L 73.832727 93.058016 
z
" clip-path="url(#p2683fa8d9a)" style="fill: #7f7f7f"/>
   </g>
   <g id="PolyCollection_9">
    <path d="M 73.832727 86.073449 
L 73.832727 93.058016 
L 80.076084 163.90148 
L 86.319441 153.923528 
L 92.562797 145.941165 
L 98.806154 169.888252 
L 105.04951 173.879433 
L 111.292867 169.888252 
L 117.536224 136.961008 
L 123.77958 140.952189 
L 130.022937 163.90148 
L 136.266294 128.978646 
L 142.50965 164.899276 
L 148.753007 155.919118 
L 154.996364 154.921323 
L 161.23972 150.930142 
L 167.483077 151.927937 
L 173.726434 137.958803 
L 179.96979 161.90589 
L 186.213147 181.861795 
L 192.456503 175.875024 
L 198.69986 200.819906 
L 204.943217 196.828724 
L 211.186573 190.841953 
L 217.42993 183.857386 
L 223.673287 212.793449 
L 229.916643 237.738331 
L 236.16 224.766992 
L 242.403357 230.753764 
L 248.646713 252.70526 
L 254.89007 229.755969 
L 261.133427 244.722898 
L 267.376783 203.813291 
L 273.62014 254.70085 
L 279.863497 205.808882 
L 286.106853 204.811087 
L 292.35021 203.813291 
L 298.593566 199.82211 
L 304.836923 245.720693 
L 311.08028 223.769197 
L 317.323636 183.857386 
L 323.566993 232.749354 
L 329.81035 247.716283 
L 336.053706 177.870614 
L 342.297063 225.764787 
L 348.54042 211.795654 
L 354.783776 222.771402 
L 361.027133 211.795654 
L 367.27049 216.78463 
L 373.513846 252.70526 
L 379.757203 264.678803 
L 386.000559 259.689827 
L 392.243916 284.634709 
L 398.487273 266.674394 
L 398.487273 193.835339 
L 398.487273 193.835339 
L 392.243916 168.890457 
L 386.000559 210.797858 
L 379.757203 213.791244 
L 373.513846 238.736126 
L 367.27049 203.813291 
L 361.027133 197.82652 
L 354.783776 211.795654 
L 348.54042 198.824315 
L 342.297063 205.808882 
L 336.053706 175.875024 
L 329.81035 216.78463 
L 323.566993 201.817701 
L 317.323636 173.879433 
L 311.08028 193.835339 
L 304.836923 211.795654 
L 298.593566 171.883843 
L 292.35021 172.881638 
L 286.106853 196.828724 
L 279.863497 195.830929 
L 273.62014 208.802268 
L 267.376783 154.921323 
L 261.133427 177.870614 
L 254.89007 199.82211 
L 248.646713 240.731717 
L 242.403357 197.82652 
L 236.16 195.830929 
L 229.916643 212.793449 
L 223.673287 193.835339 
L 217.42993 170.886047 
L 211.186573 173.879433 
L 204.943217 183.857386 
L 198.69986 189.844157 
L 192.456503 161.90589 
L 186.213147 164.899276 
L 179.96979 139.954394 
L 173.726434 123.989669 
L 167.483077 139.954394 
L 161.23972 145.941165 
L 154.996364 150.930142 
L 148.753007 148.934551 
L 142.50965 153.923528 
L 136.266294 123.989669 
L 130.022937 152.925732 
L 123.77958 131.972031 
L 117.536224 132.969827 
L 111.292867 159.910299 
L 105.04951 166.894866 
L 98.806154 159.910299 
L 92.562797 136.961008 
L 86.319441 132.969827 
L 80.076084 136.961008 
L 73.832727 86.073449 
z
" clip-path="url(#p2683fa8d9a)" style="fill: #bcbd22"/>
   </g>
   <g id="PolyCollection_10">
    <path d="M 73.832727 83.080063 
L 73.832727 86.073449 
L 80.076084 136.961008 
L 86.319441 132.969827 
L 92.562797 136.961008 
L 98.806154 159.910299 
L 105.04951 166.894866 
L 111.292867 159.910299 
L 117.536224 132.969827 
L 123.77958 131.972031 
L 130.022937 152.925732 
L 136.266294 123.989669 
L 142.50965 153.923528 
L 148.753007 148.934551 
L 154.996364 150.930142 
L 161.23972 145.941165 
L 167.483077 139.954394 
L 173.726434 123.989669 
L 179.96979 139.954394 
L 186.213147 164.899276 
L 192.456503 161.90589 
L 198.69986 189.844157 
L 204.943217 183.857386 
L 211.186573 173.879433 
L 217.42993 170.886047 
L 223.673287 193.835339 
L 229.916643 212.793449 
L 236.16 195.830929 
L 242.403357 197.82652 
L 248.646713 240.731717 
L 254.89007 199.82211 
L 261.133427 177.870614 
L 267.376783 154.921323 
L 273.62014 208.802268 
L 279.863497 195.830929 
L 286.106853 196.828724 
L 292.35021 172.881638 
L 298.593566 171.883843 
L 304.836923 211.795654 
L 311.08028 193.835339 
L 317.323636 173.879433 
L 323.566993 201.817701 
L 329.81035 216.78463 
L 336.053706 175.875024 
L 342.297063 205.808882 
L 348.54042 198.824315 
L 354.783776 211.795654 
L 361.027133 197.82652 
L 367.27049 203.813291 
L 373.513846 238.736126 
L 379.757203 213.791244 
L 386.000559 210.797858 
L 392.243916 168.890457 
L 398.487273 193.835339 
L 398.487273 193.835339 
L 398.487273 193.835339 
L 392.243916 168.890457 
L 386.000559 210.797858 
L 379.757203 213.791244 
L 373.513846 187.848567 
L 367.27049 173.879433 
L 361.027133 168.890457 
L 354.783776 176.872819 
L 348.54042 154.921323 
L 342.297063 164.899276 
L 336.053706 136.961008 
L 329.81035 172.881638 
L 323.566993 168.890457 
L 317.323636 147.936756 
L 311.08028 155.919118 
L 304.836923 149.932346 
L 298.593566 149.932346 
L 292.35021 139.954394 
L 286.106853 159.910299 
L 279.863497 155.919118 
L 273.62014 165.897071 
L 267.376783 129.976441 
L 261.133427 152.925732 
L 254.89007 151.927937 
L 248.646713 180.864 
L 242.403357 178.868409 
L 236.16 170.886047 
L 229.916643 181.861795 
L 223.673287 167.892661 
L 217.42993 145.941165 
L 211.186573 153.923528 
L 204.943217 171.883843 
L 198.69986 164.899276 
L 192.456503 146.938961 
L 186.213147 144.94337 
L 179.96979 121.994079 
L 173.726434 105.031559 
L 167.483077 126.983055 
L 161.23972 129.976441 
L 154.996364 127.98085 
L 148.753007 139.954394 
L 142.50965 133.967622 
L 136.266294 116.007307 
L 130.022937 115.009512 
L 123.77958 123.989669 
L 117.536224 128.978646 
L 111.292867 156.916913 
L 105.04951 162.903685 
L 98.806154 154.921323 
L 92.562797 132.969827 
L 86.319441 129.976441 
L 80.076084 132.969827 
L 73.832727 83.080063 
z
" clip-path="url(#p2683fa8d9a)" style="fill: #17becf"/>
   </g>
   <g id="PolyCollection_11">
    <path d="M 73.832727 78.091087 
L 73.832727 83.080063 
L 80.076084 132.969827 
L 86.319441 129.976441 
L 92.562797 132.969827 
L 98.806154 154.921323 
L 105.04951 162.903685 
L 111.292867 156.916913 
L 117.536224 128.978646 
L 123.77958 123.989669 
L 130.022937 115.009512 
L 136.266294 116.007307 
L 142.50965 133.967622 
L 148.753007 139.954394 
L 154.996364 127.98085 
L 161.23972 129.976441 
L 167.483077 126.983055 
L 173.726434 105.031559 
L 179.96979 121.994079 
L 186.213147 144.94337 
L 192.456503 146.938961 
L 198.69986 164.899276 
L 204.943217 171.883843 
L 211.186573 153.923528 
L 217.42993 145.941165 
L 223.673287 167.892661 
L 229.916643 181.861795 
L 236.16 170.886047 
L 242.403357 178.868409 
L 248.646713 180.864 
L 254.89007 151.927937 
L 261.133427 152.925732 
L 267.376783 129.976441 
L 273.62014 165.897071 
L 279.863497 155.919118 
L 286.106853 159.910299 
L 292.35021 139.954394 
L 298.593566 149.932346 
L 304.836923 149.932346 
L 311.08028 155.919118 
L 317.323636 147.936756 
L 323.566993 168.890457 
L 329.81035 172.881638 
L 336.053706 136.961008 
L 342.297063 164.899276 
L 348.54042 154.921323 
L 354.783776 176.872819 
L 361.027133 168.890457 
L 367.27049 173.879433 
L 373.513846 187.848567 
L 379.757203 213.791244 
L 386.000559 210.797858 
L 392.243916 168.890457 
L 398.487273 193.835339 
L 398.487273 176.872819 
L 398.487273 176.872819 
L 392.243916 151.927937 
L 386.000559 195.830929 
L 379.757203 195.830929 
L 373.513846 169.888252 
L 367.27049 161.90589 
L 361.027133 155.919118 
L 354.783776 163.90148 
L 348.54042 141.949984 
L 342.297063 153.923528 
L 336.053706 123.989669 
L 329.81035 158.912504 
L 323.566993 156.916913 
L 317.323636 133.967622 
L 311.08028 142.94778 
L 304.836923 137.958803 
L 298.593566 136.961008 
L 292.35021 123.989669 
L 286.106853 144.94337 
L 279.863497 142.94778 
L 273.62014 153.923528 
L 267.376783 120.996283 
L 261.133427 144.94337 
L 254.89007 143.945575 
L 248.646713 172.881638 
L 242.403357 170.886047 
L 236.16 159.910299 
L 229.916643 167.892661 
L 223.673287 157.914709 
L 217.42993 136.961008 
L 211.186573 146.938961 
L 204.943217 162.903685 
L 198.69986 159.910299 
L 192.456503 140.952189 
L 186.213147 139.954394 
L 179.96979 116.007307 
L 173.726434 100.042583 
L 167.483077 120.996283 
L 161.23972 124.987465 
L 154.996364 122.991874 
L 148.753007 135.963213 
L 142.50965 127.98085 
L 136.266294 111.018331 
L 130.022937 110.020535 
L 123.77958 119.998488 
L 117.536224 124.987465 
L 111.292867 153.923528 
L 105.04951 157.914709 
L 98.806154 150.930142 
L 92.562797 126.983055 
L 86.319441 123.989669 
L 80.076084 127.98085 
L 73.832727 78.091087 
z
" clip-path="url(#p2683fa8d9a)" style="fill: #1f77b4"/>
   </g>
   <g id="PolyCollection_12">
    <path d="M 73.832727 77.093291 
L 73.832727 78.091087 
L 80.076084 127.98085 
L 86.319441 123.989669 
L 92.562797 126.983055 
L 98.806154 150.930142 
L 105.04951 157.914709 
L 111.292867 153.923528 
L 117.536224 124.987465 
L 123.77958 119.998488 
L 130.022937 110.020535 
L 136.266294 111.018331 
L 142.50965 127.98085 
L 148.753007 135.963213 
L 154.996364 122.991874 
L 161.23972 124.987465 
L 167.483077 120.996283 
L 173.726434 100.042583 
L 179.96979 116.007307 
L 186.213147 139.954394 
L 192.456503 140.952189 
L 198.69986 159.910299 
L 204.943217 162.903685 
L 211.186573 146.938961 
L 217.42993 136.961008 
L 223.673287 157.914709 
L 229.916643 167.892661 
L 236.16 159.910299 
L 242.403357 170.886047 
L 248.646713 172.881638 
L 254.89007 143.945575 
L 261.133427 144.94337 
L 267.376783 120.996283 
L 273.62014 153.923528 
L 279.863497 142.94778 
L 286.106853 144.94337 
L 292.35021 123.989669 
L 298.593566 136.961008 
L 304.836923 137.958803 
L 311.08028 142.94778 
L 317.323636 133.967622 
L 323.566993 156.916913 
L 329.81035 158.912504 
L 336.053706 123.989669 
L 342.297063 153.923528 
L 348.54042 141.949984 
L 354.783776 163.90148 
L 361.027133 155.919118 
L 367.27049 161.90589 
L 373.513846 169.888252 
L 379.757203 195.830929 
L 386.000559 195.830929 
L 392.243916 151.927937 
L 398.487273 176.872819 
L 398.487273 165.897071 
L 398.487273 165.897071 
L 392.243916 147.936756 
L 386.000559 123.989669 
L 379.757203 126.983055 
L 373.513846 134.965417 
L 367.27049 139.954394 
L 361.027133 140.952189 
L 354.783776 145.941165 
L 348.54042 131.972031 
L 342.297063 121.994079 
L 336.053706 110.020535 
L 329.81035 150.930142 
L 323.566993 125.98526 
L 317.323636 111.018331 
L 311.08028 139.954394 
L 304.836923 132.969827 
L 298.593566 131.972031 
L 292.35021 119.998488 
L 286.106853 139.954394 
L 279.863497 138.956598 
L 273.62014 150.930142 
L 267.376783 117.005102 
L 261.133427 141.949984 
L 254.89007 141.949984 
L 248.646713 168.890457 
L 242.403357 165.897071 
L 236.16 155.919118 
L 229.916643 164.899276 
L 223.673287 153.923528 
L 217.42993 133.967622 
L 211.186573 144.94337 
L 204.943217 159.910299 
L 198.69986 157.914709 
L 192.456503 138.956598 
L 186.213147 137.958803 
L 179.96979 113.013921 
L 173.726434 98.046992 
L 167.483077 119.000693 
L 161.23972 121.994079 
L 154.996364 120.996283 
L 148.753007 132.969827 
L 142.50965 124.987465 
L 136.266294 109.02274 
L 130.022937 108.024945 
L 123.77958 118.002898 
L 117.536224 121.994079 
L 111.292867 149.932346 
L 105.04951 153.923528 
L 98.806154 147.936756 
L 92.562797 122.991874 
L 86.319441 120.996283 
L 80.076084 125.98526 
L 73.832727 77.093291 
z
" clip-path="url(#p2683fa8d9a)" style="fill: #ff7f0e"/>
   </g>
   <g id="PolyCollection_13">
    <path d="M 73.832727 71.10652 
L 73.832727 77.093291 
L 80.076084 125.98526 
L 86.319441 120.996283 
L 92.562797 122.991874 
L 98.806154 147.936756 
L 105.04951 153.923528 
L 111.292867 149.932346 
L 117.536224 121.994079 
L 123.77958 118.002898 
L 130.022937 108.024945 
L 136.266294 109.02274 
L 142.50965 124.987465 
L 148.753007 132.969827 
L 154.996364 120.996283 
L 161.23972 121.994079 
L 167.483077 119.000693 
L 173.726434 98.046992 
L 179.96979 113.013921 
L 186.213147 137.958803 
L 192.456503 138.956598 
L 198.69986 157.914709 
L 204.943217 159.910299 
L 211.186573 144.94337 
L 217.42993 133.967622 
L 223.673287 153.923528 
L 229.916643 164.899276 
L 236.16 155.919118 
L 242.403357 165.897071 
L 248.646713 168.890457 
L 254.89007 141.949984 
L 261.133427 141.949984 
L 267.376783 117.005102 
L 273.62014 150.930142 
L 279.863497 138.956598 
L 286.106853 139.954394 
L 292.35021 119.998488 
L 298.593566 131.972031 
L 304.836923 132.969827 
L 311.08028 139.954394 
L 317.323636 111.018331 
L 323.566993 125.98526 
L 329.81035 150.930142 
L 336.053706 110.020535 
L 342.297063 121.994079 
L 348.54042 131.972031 
L 354.783776 145.941165 
L 361.027133 140.952189 
L 367.27049 139.954394 
L 373.513846 134.965417 
L 379.757203 126.983055 
L 386.000559 123.989669 
L 392.243916 147.936756 
L 398.487273 165.897071 
L 398.487273 165.897071 
L 398.487273 165.897071 
L 392.243916 147.936756 
L 386.000559 123.989669 
L 379.757203 126.983055 
L 373.513846 134.965417 
L 367.27049 139.954394 
L 361.027133 140.952189 
L 354.783776 145.941165 
L 348.54042 131.972031 
L 342.297063 121.994079 
L 336.053706 110.020535 
L 329.81035 150.930142 
L 323.566993 125.98526 
L 317.323636 111.018331 
L 311.08028 139.954394 
L 304.836923 132.969827 
L 298.593566 131.972031 
L 292.35021 109.02274 
L 286.106853 125.98526 
L 279.863497 121.994079 
L 273.62014 134.965417 
L 267.376783 109.02274 
L 261.133427 132.969827 
L 254.89007 128.978646 
L 248.646713 154.921323 
L 242.403357 153.923528 
L 236.16 140.952189 
L 229.916643 149.932346 
L 223.673287 142.94778 
L 217.42993 124.987465 
L 211.186573 134.965417 
L 204.943217 148.934551 
L 198.69986 141.949984 
L 192.456503 130.974236 
L 186.213147 127.98085 
L 179.96979 100.042583 
L 173.726434 88.069039 
L 167.483077 110.020535 
L 161.23972 113.013921 
L 154.996364 110.020535 
L 148.753007 123.989669 
L 142.50965 115.009512 
L 136.266294 100.042583 
L 130.022937 99.044787 
L 123.77958 111.018331 
L 117.536224 110.020535 
L 111.292867 139.954394 
L 105.04951 140.952189 
L 98.806154 137.958803 
L 92.562797 116.007307 
L 86.319441 115.009512 
L 80.076084 122.991874 
L 73.832727 71.10652 
z
" clip-path="url(#p2683fa8d9a)" style="fill: #2ca02c"/>
   </g>
   <g id="PolyCollection_14">
    <path d="M 73.832727 70.108724 
L 73.832727 71.10652 
L 80.076084 122.991874 
L 86.319441 115.009512 
L 92.562797 116.007307 
L 98.806154 137.958803 
L 105.04951 140.952189 
L 111.292867 139.954394 
L 117.536224 110.020535 
L 123.77958 111.018331 
L 130.022937 99.044787 
L 136.266294 100.042583 
L 142.50965 115.009512 
L 148.753007 123.989669 
L 154.996364 110.020535 
L 161.23972 113.013921 
L 167.483077 110.020535 
L 173.726434 88.069039 
L 179.96979 100.042583 
L 186.213147 127.98085 
L 192.456503 130.974236 
L 198.69986 141.949984 
L 204.943217 148.934551 
L 211.186573 134.965417 
L 217.42993 124.987465 
L 223.673287 142.94778 
L 229.916643 149.932346 
L 236.16 140.952189 
L 242.403357 153.923528 
L 248.646713 154.921323 
L 254.89007 128.978646 
L 261.133427 132.969827 
L 267.376783 109.02274 
L 273.62014 134.965417 
L 279.863497 121.994079 
L 286.106853 125.98526 
L 292.35021 109.02274 
L 298.593566 131.972031 
L 304.836923 132.969827 
L 311.08028 139.954394 
L 317.323636 111.018331 
L 323.566993 125.98526 
L 329.81035 150.930142 
L 336.053706 110.020535 
L 342.297063 121.994079 
L 348.54042 131.972031 
L 354.783776 145.941165 
L 361.027133 140.952189 
L 367.27049 139.954394 
L 373.513846 134.965417 
L 379.757203 126.983055 
L 386.000559 123.989669 
L 392.243916 147.936756 
L 398.487273 165.897071 
L 398.487273 93.058016 
L 398.487273 93.058016 
L 392.243916 103.035969 
L 386.000559 106.029354 
L 379.757203 105.031559 
L 373.513846 90.06463 
L 367.27049 100.042583 
L 361.027133 101.040378 
L 354.783776 100.042583 
L 348.54042 99.044787 
L 342.297063 103.035969 
L 336.053706 99.044787 
L 329.81035 143.945575 
L 323.566993 119.000693 
L 317.323636 106.029354 
L 311.08028 131.972031 
L 304.836923 128.978646 
L 298.593566 128.978646 
L 292.35021 104.033764 
L 286.106853 121.994079 
L 279.863497 119.998488 
L 273.62014 131.972031 
L 267.376783 105.031559 
L 261.133427 127.98085 
L 254.89007 126.983055 
L 248.646713 151.927937 
L 242.403357 149.932346 
L 236.16 137.958803 
L 229.916643 147.936756 
L 223.673287 137.958803 
L 217.42993 122.991874 
L 211.186573 131.972031 
L 204.943217 146.938961 
L 198.69986 138.956598 
L 192.456503 128.978646 
L 186.213147 125.98526 
L 179.96979 97.049197 
L 173.726434 84.077858 
L 167.483077 107.02715 
L 161.23972 109.02274 
L 154.996364 107.02715 
L 148.753007 119.998488 
L 142.50965 112.016126 
L 136.266294 98.046992 
L 130.022937 96.051402 
L 123.77958 109.02274 
L 117.536224 107.02715 
L 111.292867 135.963213 
L 105.04951 135.963213 
L 98.806154 133.967622 
L 92.562797 111.018331 
L 86.319441 112.016126 
L 80.076084 120.996283 
L 73.832727 70.108724 
z
" clip-path="url(#p2683fa8d9a)" style="fill: #d62728"/>
   </g>
   <g id="PolyCollection_15">
    <path d="M 73.832727 69.110929 
L 73.832727 70.108724 
L 80.076084 120.996283 
L 86.319441 112.016126 
L 92.562797 111.018331 
L 98.806154 133.967622 
L 105.04951 135.963213 
L 111.292867 135.963213 
L 117.536224 107.02715 
L 123.77958 109.02274 
L 130.022937 96.051402 
L 136.266294 98.046992 
L 142.50965 112.016126 
L 148.753007 119.998488 
L 154.996364 107.02715 
L 161.23972 109.02274 
L 167.483077 107.02715 
L 173.726434 84.077858 
L 179.96979 97.049197 
L 186.213147 125.98526 
L 192.456503 128.978646 
L 198.69986 138.956598 
L 204.943217 146.938961 
L 211.186573 131.972031 
L 217.42993 122.991874 
L 223.673287 137.958803 
L 229.916643 147.936756 
L 236.16 137.958803 
L 242.403357 149.932346 
L 248.646713 151.927937 
L 254.89007 126.983055 
L 261.133427 127.98085 
L 267.376783 105.031559 
L 273.62014 131.972031 
L 279.863497 119.998488 
L 286.106853 121.994079 
L 292.35021 104.033764 
L 298.593566 128.978646 
L 304.836923 128.978646 
L 311.08028 131.972031 
L 317.323636 106.029354 
L 323.566993 119.000693 
L 329.81035 143.945575 
L 336.053706 99.044787 
L 342.297063 103.035969 
L 348.54042 99.044787 
L 354.783776 100.042583 
L 361.027133 101.040378 
L 367.27049 100.042583 
L 373.513846 90.06463 
L 379.757203 105.031559 
L 386.000559 106.029354 
L 392.243916 103.035969 
L 398.487273 93.058016 
L 398.487273 93.058016 
L 398.487273 93.058016 
L 392.243916 103.035969 
L 386.000559 106.029354 
L 379.757203 105.031559 
L 373.513846 90.06463 
L 367.27049 100.042583 
L 361.027133 101.040378 
L 354.783776 100.042583 
L 348.54042 99.044787 
L 342.297063 103.035969 
L 336.053706 99.044787 
L 329.81035 132.969827 
L 323.566993 95.053606 
L 317.323636 85.075654 
L 311.08028 108.024945 
L 304.836923 107.02715 
L 298.593566 112.016126 
L 292.35021 101.040378 
L 286.106853 99.044787 
L 279.863497 100.042583 
L 273.62014 112.016126 
L 267.376783 86.073449 
L 261.133427 112.016126 
L 254.89007 109.02274 
L 248.646713 126.983055 
L 242.403357 125.98526 
L 236.16 107.02715 
L 229.916643 118.002898 
L 223.673287 119.000693 
L 217.42993 105.031559 
L 211.186573 115.009512 
L 204.943217 131.972031 
L 198.69986 124.987465 
L 192.456503 112.016126 
L 186.213147 104.033764 
L 179.96979 89.066835 
L 173.726434 75.097701 
L 167.483077 100.042583 
L 161.23972 94.055811 
L 154.996364 93.058016 
L 148.753007 101.040378 
L 142.50965 88.069039 
L 136.266294 79.088882 
L 130.022937 79.088882 
L 123.77958 91.062425 
L 117.536224 88.069039 
L 111.292867 114.011717 
L 105.04951 113.013921 
L 98.806154 115.009512 
L 92.562797 102.038173 
L 86.319441 103.035969 
L 80.076084 108.024945 
L 73.832727 69.110929 
z
" clip-path="url(#p2683fa8d9a)" style="fill: #9467bd"/>
   </g>
   <g id="PolyCollection_16">
    <path d="M 73.832727 63.124157 
L 73.832727 69.110929 
L 80.076084 108.024945 
L 86.319441 103.035969 
L 92.562797 102.038173 
L 98.806154 115.009512 
L 105.04951 113.013921 
L 111.292867 114.011717 
L 117.536224 88.069039 
L 123.77958 91.062425 
L 130.022937 79.088882 
L 136.266294 79.088882 
L 142.50965 88.069039 
L 148.753007 101.040378 
L 154.996364 93.058016 
L 161.23972 94.055811 
L 167.483077 100.042583 
L 173.726434 75.097701 
L 179.96979 89.066835 
L 186.213147 104.033764 
L 192.456503 112.016126 
L 198.69986 124.987465 
L 204.943217 131.972031 
L 211.186573 115.009512 
L 217.42993 105.031559 
L 223.673287 119.000693 
L 229.916643 118.002898 
L 236.16 107.02715 
L 242.403357 125.98526 
L 248.646713 126.983055 
L 254.89007 109.02274 
L 261.133427 112.016126 
L 267.376783 86.073449 
L 273.62014 112.016126 
L 279.863497 100.042583 
L 286.106853 99.044787 
L 292.35021 101.040378 
L 298.593566 112.016126 
L 304.836923 107.02715 
L 311.08028 108.024945 
L 317.323636 85.075654 
L 323.566993 95.053606 
L 329.81035 132.969827 
L 336.053706 99.044787 
L 342.297063 103.035969 
L 348.54042 99.044787 
L 354.783776 100.042583 
L 361.027133 101.040378 
L 367.27049 100.042583 
L 373.513846 90.06463 
L 379.757203 105.031559 
L 386.000559 106.029354 
L 392.243916 103.035969 
L 398.487273 93.058016 
L 398.487273 93.058016 
L 398.487273 93.058016 
L 392.243916 103.035969 
L 386.000559 106.029354 
L 379.757203 105.031559 
L 373.513846 90.06463 
L 367.27049 100.042583 
L 361.027133 101.040378 
L 354.783776 100.042583 
L 348.54042 99.044787 
L 342.297063 103.035969 
L 336.053706 99.044787 
L 329.81035 132.969827 
L 323.566993 95.053606 
L 317.323636 85.075654 
L 311.08028 108.024945 
L 304.836923 107.02715 
L 298.593566 112.016126 
L 292.35021 101.040378 
L 286.106853 99.044787 
L 279.863497 86.073449 
L 273.62014 103.035969 
L 267.376783 76.095496 
L 261.133427 100.042583 
L 254.89007 93.058016 
L 248.646713 100.042583 
L 242.403357 96.051402 
L 236.16 94.055811 
L 229.916643 84.077858 
L 223.673287 96.051402 
L 217.42993 87.071244 
L 211.186573 100.042583 
L 204.943217 116.007307 
L 198.69986 112.016126 
L 192.456503 100.042583 
L 186.213147 94.055811 
L 179.96979 79.088882 
L 173.726434 70.108724 
L 167.483077 89.066835 
L 161.23972 81.084472 
L 154.996364 83.080063 
L 148.753007 93.058016 
L 142.50965 85.075654 
L 136.266294 73.10211 
L 130.022937 72.104315 
L 123.77958 72.104315 
L 117.536224 74.099906 
L 111.292867 76.095496 
L 105.04951 76.095496 
L 98.806154 77.093291 
L 92.562797 81.084472 
L 86.319441 87.071244 
L 80.076084 85.075654 
L 73.832727 63.124157 
z
" clip-path="url(#p2683fa8d9a)" style="fill: #8c564b"/>
   </g>
   <g id="PolyCollection_17">
    <path d="M 73.832727 62.126362 
L 73.832727 63.124157 
L 80.076084 85.075654 
L 86.319441 87.071244 
L 92.562797 81.084472 
L 98.806154 77.093291 
L 105.04951 76.095496 
L 111.292867 76.095496 
L 117.536224 74.099906 
L 123.77958 72.104315 
L 130.022937 72.104315 
L 136.266294 73.10211 
L 142.50965 85.075654 
L 148.753007 93.058016 
L 154.996364 83.080063 
L 161.23972 81.084472 
L 167.483077 89.066835 
L 173.726434 70.108724 
L 179.96979 79.088882 
L 186.213147 94.055811 
L 192.456503 100.042583 
L 198.69986 112.016126 
L 204.943217 116.007307 
L 211.186573 100.042583 
L 217.42993 87.071244 
L 223.673287 96.051402 
L 229.916643 84.077858 
L 236.16 94.055811 
L 242.403357 96.051402 
L 248.646713 100.042583 
L 254.89007 93.058016 
L 261.133427 100.042583 
L 267.376783 76.095496 
L 273.62014 103.035969 
L 279.863497 86.073449 
L 286.106853 99.044787 
L 292.35021 101.040378 
L 298.593566 112.016126 
L 304.836923 107.02715 
L 311.08028 108.024945 
L 317.323636 85.075654 
L 323.566993 95.053606 
L 329.81035 132.969827 
L 336.053706 99.044787 
L 342.297063 103.035969 
L 348.54042 99.044787 
L 354.783776 100.042583 
L 361.027133 101.040378 
L 367.27049 100.042583 
L 373.513846 90.06463 
L 379.757203 105.031559 
L 386.000559 106.029354 
L 392.243916 103.035969 
L 398.487273 93.058016 
L 398.487273 93.058016 
L 398.487273 93.058016 
L 392.243916 103.035969 
L 386.000559 106.029354 
L 379.757203 105.031559 
L 373.513846 90.06463 
L 367.27049 100.042583 
L 361.027133 101.040378 
L 354.783776 100.042583 
L 348.54042 99.044787 
L 342.297063 103.035969 
L 336.053706 99.044787 
L 329.81035 132.969827 
L 323.566993 95.053606 
L 317.323636 85.075654 
L 311.08028 108.024945 
L 304.836923 107.02715 
L 298.593566 112.016126 
L 292.35021 101.040378 
L 286.106853 99.044787 
L 279.863497 86.073449 
L 273.62014 103.035969 
L 267.376783 76.095496 
L 261.133427 100.042583 
L 254.89007 93.058016 
L 248.646713 100.042583 
L 242.403357 96.051402 
L 236.16 94.055811 
L 229.916643 84.077858 
L 223.673287 96.051402 
L 217.42993 87.071244 
L 211.186573 100.042583 
L 204.943217 114.011717 
L 198.69986 110.020535 
L 192.456503 98.046992 
L 186.213147 92.06022 
L 179.96979 77.093291 
L 173.726434 67.115339 
L 167.483077 87.071244 
L 161.23972 79.088882 
L 154.996364 80.086677 
L 148.753007 91.062425 
L 142.50965 82.082268 
L 136.266294 71.10652 
L 130.022937 70.108724 
L 123.77958 69.110929 
L 117.536224 70.108724 
L 111.292867 73.10211 
L 105.04951 72.104315 
L 98.806154 74.099906 
L 92.562797 76.095496 
L 86.319441 80.086677 
L 80.076084 79.088882 
L 73.832727 62.126362 
z
" clip-path="url(#p2683fa8d9a)" style="fill: #e377c2"/>
   </g>
   <g id="PolyCollection_18">
    <path d="M 73.832727 61.128567 
L 73.832727 62.126362 
L 80.076084 79.088882 
L 86.319441 80.086677 
L 92.562797 76.095496 
L 98.806154 74.099906 
L 105.04951 72.104315 
L 111.292867 73.10211 
L 117.536224 70.108724 
L 123.77958 69.110929 
L 130.022937 70.108724 
L 136.266294 71.10652 
L 142.50965 82.082268 
L 148.753007 91.062425 
L 154.996364 80.086677 
L 161.23972 79.088882 
L 167.483077 87.071244 
L 173.726434 67.115339 
L 179.96979 77.093291 
L 186.213147 92.06022 
L 192.456503 98.046992 
L 198.69986 110.020535 
L 204.943217 114.011717 
L 211.186573 100.042583 
L 217.42993 87.071244 
L 223.673287 96.051402 
L 229.916643 84.077858 
L 236.16 94.055811 
L 242.403357 96.051402 
L 248.646713 100.042583 
L 254.89007 93.058016 
L 261.133427 100.042583 
L 267.376783 76.095496 
L 273.62014 103.035969 
L 279.863497 86.073449 
L 286.106853 99.044787 
L 292.35021 101.040378 
L 298.593566 112.016126 
L 304.836923 107.02715 
L 311.08028 108.024945 
L 317.323636 85.075654 
L 323.566993 95.053606 
L 329.81035 132.969827 
L 336.053706 99.044787 
L 342.297063 103.035969 
L 348.54042 99.044787 
L 354.783776 100.042583 
L 361.027133 101.040378 
L 367.27049 100.042583 
L 373.513846 90.06463 
L 379.757203 105.031559 
L 386.000559 106.029354 
L 392.243916 103.035969 
L 398.487273 93.058016 
L 398.487273 82.082268 
L 398.487273 82.082268 
L 392.243916 86.073449 
L 386.000559 89.066835 
L 379.757203 84.077858 
L 373.513846 75.097701 
L 367.27049 91.062425 
L 361.027133 90.06463 
L 354.783776 93.058016 
L 348.54042 89.066835 
L 342.297063 93.058016 
L 336.053706 89.066835 
L 329.81035 121.994079 
L 323.566993 86.073449 
L 317.323636 74.099906 
L 311.08028 96.051402 
L 304.836923 97.049197 
L 298.593566 100.042583 
L 292.35021 88.069039 
L 286.106853 89.066835 
L 279.863497 76.095496 
L 273.62014 93.058016 
L 267.376783 69.110929 
L 261.133427 89.066835 
L 254.89007 85.075654 
L 248.646713 91.062425 
L 242.403357 85.075654 
L 236.16 88.069039 
L 229.916643 79.088882 
L 223.673287 90.06463 
L 217.42993 82.082268 
L 211.186573 96.051402 
L 204.943217 109.02274 
L 198.69986 106.029354 
L 192.456503 93.058016 
L 186.213147 90.06463 
L 179.96979 72.104315 
L 173.726434 64.121953 
L 167.483077 82.082268 
L 161.23972 75.097701 
L 154.996364 76.095496 
L 148.753007 87.071244 
L 142.50965 78.091087 
L 136.266294 68.113134 
L 130.022937 68.113134 
L 123.77958 66.117543 
L 117.536224 66.117543 
L 111.292867 70.108724 
L 105.04951 67.115339 
L 98.806154 68.113134 
L 92.562797 71.10652 
L 86.319441 73.10211 
L 80.076084 74.099906 
L 73.832727 61.128567 
z
" clip-path="url(#p2683fa8d9a)" style="fill: #7f7f7f"/>
   </g>
   <g id="PolyCollection_19">
    <path d="M 73.832727 60.130772 
L 73.832727 61.128567 
L 80.076084 74.099906 
L 86.319441 73.10211 
L 92.562797 71.10652 
L 98.806154 68.113134 
L 105.04951 67.115339 
L 111.292867 70.108724 
L 117.536224 66.117543 
L 123.77958 66.117543 
L 130.022937 68.113134 
L 136.266294 68.113134 
L 142.50965 78.091087 
L 148.753007 87.071244 
L 154.996364 76.095496 
L 161.23972 75.097701 
L 167.483077 82.082268 
L 173.726434 64.121953 
L 179.96979 72.104315 
L 186.213147 90.06463 
L 192.456503 93.058016 
L 198.69986 106.029354 
L 204.943217 109.02274 
L 211.186573 96.051402 
L 217.42993 82.082268 
L 223.673287 90.06463 
L 229.916643 79.088882 
L 236.16 88.069039 
L 242.403357 85.075654 
L 248.646713 91.062425 
L 254.89007 85.075654 
L 261.133427 89.066835 
L 267.376783 69.110929 
L 273.62014 93.058016 
L 279.863497 76.095496 
L 286.106853 89.066835 
L 292.35021 88.069039 
L 298.593566 100.042583 
L 304.836923 97.049197 
L 311.08028 96.051402 
L 317.323636 74.099906 
L 323.566993 86.073449 
L 329.81035 121.994079 
L 336.053706 89.066835 
L 342.297063 93.058016 
L 348.54042 89.066835 
L 354.783776 93.058016 
L 361.027133 90.06463 
L 367.27049 91.062425 
L 373.513846 75.097701 
L 379.757203 84.077858 
L 386.000559 89.066835 
L 392.243916 86.073449 
L 398.487273 82.082268 
L 398.487273 82.082268 
L 398.487273 82.082268 
L 392.243916 86.073449 
L 386.000559 89.066835 
L 379.757203 84.077858 
L 373.513846 75.097701 
L 367.27049 72.104315 
L 361.027133 74.099906 
L 354.783776 79.088882 
L 348.54042 74.099906 
L 342.297063 78.091087 
L 336.053706 81.084472 
L 329.81035 76.095496 
L 323.566993 72.104315 
L 317.323636 65.119748 
L 311.08028 66.117543 
L 304.836923 67.115339 
L 298.593566 68.113134 
L 292.35021 71.10652 
L 286.106853 69.110929 
L 279.863497 63.124157 
L 273.62014 64.121953 
L 267.376783 64.121953 
L 261.133427 65.119748 
L 254.89007 66.117543 
L 248.646713 66.117543 
L 242.403357 66.117543 
L 236.16 67.115339 
L 229.916643 71.10652 
L 223.673287 70.108724 
L 217.42993 67.115339 
L 211.186573 66.117543 
L 204.943217 68.113134 
L 198.69986 63.124157 
L 192.456503 61.128567 
L 186.213147 68.113134 
L 179.96979 62.126362 
L 173.726434 62.126362 
L 167.483077 62.126362 
L 161.23972 61.128567 
L 154.996364 61.128567 
L 148.753007 60.130772 
L 142.50965 61.128567 
L 136.266294 62.126362 
L 130.022937 64.121953 
L 123.77958 63.124157 
L 117.536224 62.126362 
L 111.292867 67.115339 
L 105.04951 64.121953 
L 98.806154 65.119748 
L 92.562797 68.113134 
L 86.319441 66.117543 
L 80.076084 67.115339 
L 73.832727 60.130772 
z
" clip-path="url(#p2683fa8d9a)" style="fill: #bcbd22"/>
   </g>
   <g id="PolyCollection_20">
    <path d="M 73.832727 59.132976 
L 73.832727 60.130772 
L 80.076084 67.115339 
L 86.319441 66.117543 
L 92.562797 68.113134 
L 98.806154 65.119748 
L 105.04951 64.121953 
L 111.292867 67.115339 
L 117.536224 62.126362 
L 123.77958 63.124157 
L 130.022937 64.121953 
L 136.266294 62.126362 
L 142.50965 61.128567 
L 148.753007 60.130772 
L 154.996364 61.128567 
L 161.23972 61.128567 
L 167.483077 62.126362 
L 173.726434 62.126362 
L 179.96979 62.126362 
L 186.213147 68.113134 
L 192.456503 61.128567 
L 198.69986 63.124157 
L 204.943217 68.113134 
L 211.186573 66.117543 
L 217.42993 67.115339 
L 223.673287 70.108724 
L 229.916643 71.10652 
L 236.16 67.115339 
L 242.403357 66.117543 
L 248.646713 66.117543 
L 254.89007 66.117543 
L 261.133427 65.119748 
L 267.376783 64.121953 
L 273.62014 64.121953 
L 279.863497 63.124157 
L 286.106853 69.110929 
L 292.35021 71.10652 
L 298.593566 68.113134 
L 304.836923 67.115339 
L 311.08028 66.117543 
L 317.323636 65.119748 
L 323.566993 72.104315 
L 329.81035 76.095496 
L 336.053706 81.084472 
L 342.297063 78.091087 
L 348.54042 74.099906 
L 354.783776 79.088882 
L 361.027133 74.099906 
L 367.27049 72.104315 
L 373.513846 75.097701 
L 379.757203 84.077858 
L 386.000559 89.066835 
L 392.243916 86.073449 
L 398.487273 82.082268 
L 398.487273 82.082268 
L 398.487273 82.082268 
L 392.243916 86.073449 
L 386.000559 89.066835 
L 379.757203 84.077858 
L 373.513846 75.097701 
L 367.27049 72.104315 
L 361.027133 74.099906 
L 354.783776 79.088882 
L 348.54042 74.099906 
L 342.297063 78.091087 
L 336.053706 81.084472 
L 329.81035 76.095496 
L 323.566993 72.104315 
L 317.323636 65.119748 
L 311.08028 66.117543 
L 304.836923 67.115339 
L 298.593566 68.113134 
L 292.35021 71.10652 
L 286.106853 69.110929 
L 279.863497 63.124157 
L 273.62014 64.121953 
L 267.376783 62.126362 
L 261.133427 64.121953 
L 254.89007 64.121953 
L 248.646713 63.124157 
L 242.403357 63.124157 
L 236.16 64.121953 
L 229.916643 67.115339 
L 223.673287 67.115339 
L 217.42993 65.119748 
L 211.186573 64.121953 
L 204.943217 65.119748 
L 198.69986 59.132976 
L 192.456503 58.135181 
L 186.213147 66.117543 
L 179.96979 60.130772 
L 173.726434 60.130772 
L 167.483077 60.130772 
L 161.23972 59.132976 
L 154.996364 59.132976 
L 148.753007 57.137386 
L 142.50965 57.137386 
L 136.266294 60.130772 
L 130.022937 62.126362 
L 123.77958 60.130772 
L 117.536224 59.132976 
L 111.292867 64.121953 
L 105.04951 60.130772 
L 98.806154 62.126362 
L 92.562797 63.124157 
L 86.319441 61.128567 
L 80.076084 61.128567 
L 73.832727 59.132976 
z
" clip-path="url(#p2683fa8d9a)" style="fill: #17becf"/>
   </g>
   <g id="PolyCollection_21">
    <path d="M 73.832727 58.135181 
L 73.832727 59.132976 
L 80.076084 61.128567 
L 86.319441 61.128567 
L 92.562797 63.124157 
L 98.806154 62.126362 
L 105.04951 60.130772 
L 111.292867 64.121953 
L 117.536224 59.132976 
L 123.77958 60.130772 
L 130.022937 62.126362 
L 136.266294 60.130772 
L 142.50965 57.137386 
L 148.753007 57.137386 
L 154.996364 59.132976 
L 161.23972 59.132976 
L 167.483077 60.130772 
L 173.726434 60.130772 
L 179.96979 60.130772 
L 186.213147 66.117543 
L 192.456503 58.135181 
L 198.69986 59.132976 
L 204.943217 65.119748 
L 211.186573 64.121953 
L 217.42993 65.119748 
L 223.673287 67.115339 
L 229.916643 67.115339 
L 236.16 64.121953 
L 242.403357 63.124157 
L 248.646713 63.124157 
L 254.89007 64.121953 
L 261.133427 64.121953 
L 267.376783 62.126362 
L 273.62014 64.121953 
L 279.863497 63.124157 
L 286.106853 69.110929 
L 292.35021 71.10652 
L 298.593566 68.113134 
L 304.836923 67.115339 
L 311.08028 66.117543 
L 317.323636 65.119748 
L 323.566993 72.104315 
L 329.81035 76.095496 
L 336.053706 81.084472 
L 342.297063 78.091087 
L 348.54042 74.099906 
L 354.783776 79.088882 
L 361.027133 74.099906 
L 367.27049 72.104315 
L 373.513846 75.097701 
L 379.757203 84.077858 
L 386.000559 89.066835 
L 392.243916 86.073449 
L 398.487273 82.082268 
L 398.487273 59.132976 
L 398.487273 59.132976 
L 392.243916 60.130772 
L 386.000559 58.135181 
L 379.757203 60.130772 
L 373.513846 57.137386 
L 367.27049 60.130772 
L 361.027133 58.135181 
L 354.783776 60.130772 
L 348.54042 58.135181 
L 342.297063 60.130772 
L 336.053706 59.132976 
L 329.81035 57.137386 
L 323.566993 57.137386 
L 317.323636 55.141795 
L 311.08028 56.139591 
L 304.836923 58.135181 
L 298.593566 58.135181 
L 292.35021 59.132976 
L 286.106853 60.130772 
L 279.863497 60.130772 
L 273.62014 60.130772 
L 267.376783 60.130772 
L 261.133427 61.128567 
L 254.89007 60.130772 
L 248.646713 57.137386 
L 242.403357 58.135181 
L 236.16 58.135181 
L 229.916643 59.132976 
L 223.673287 61.128567 
L 217.42993 58.135181 
L 211.186573 60.130772 
L 204.943217 59.132976 
L 198.69986 54.144 
L 192.456503 57.137386 
L 186.213147 59.132976 
L 179.96979 55.141795 
L 173.726434 56.139591 
L 167.483077 55.141795 
L 161.23972 55.141795 
L 154.996364 56.139591 
L 148.753007 55.141795 
L 142.50965 55.141795 
L 136.266294 58.135181 
L 130.022937 59.132976 
L 123.77958 58.135181 
L 117.536224 55.141795 
L 111.292867 61.128567 
L 105.04951 56.139591 
L 98.806154 59.132976 
L 92.562797 59.132976 
L 86.319441 59.132976 
L 80.076084 59.132976 
L 73.832727 58.135181 
z
" clip-path="url(#p2683fa8d9a)" style="fill: #1f77b4"/>
   </g>
   <g id="matplotlib.axis_1">
    <g id="xtick_1">
     <g id="line2d_1">
      <defs>
       <path id="m4814247ddb" d="M 0 0 
L 0 3.5 
" style="stroke: #000000; stroke-width: 0.8"/>
      </defs>
      <g>
       <use xlink:href="#m4814247ddb" x="73.832727" y="307.584" style="stroke: #000000; stroke-width: 0.8"/>
      </g>
     </g>
     <g id="text_1">
      <!-- 0 -->
      <g transform="translate(70.651477 322.182437) scale(0.1 -0.1)">
       <defs>
        <path id="DejaVuSans-30" d="M 2034 4250 
Q 1547 4250 1301 3770 
Q 1056 3291 1056 2328 
Q 1056 1369 1301 889 
Q 1547 409 2034 409 
Q 2525 409 2770 889 
Q 3016 1369 3016 2328 
Q 3016 3291 2770 3770 
Q 2525 4250 2034 4250 
z
M 2034 4750 
Q 2819 4750 3233 4129 
Q 3647 3509 3647 2328 
Q 3647 1150 3233 529 
Q 2819 -91 2034 -91 
Q 1250 -91 836 529 
Q 422 1150 422 2328 
Q 422 3509 836 4129 
Q 1250 4750 2034 4750 
z
" transform="scale(0.015625)"/>
       </defs>
       <use xlink:href="#DejaVuSans-30"/>
      </g>
     </g>
    </g>
    <g id="xtick_2">
     <g id="line2d_2">
      <g>
       <use xlink:href="#m4814247ddb" x="136.266294" y="307.584" style="stroke: #000000; stroke-width: 0.8"/>
      </g>
     </g>
     <g id="text_2">
      <!-- 10 -->
      <g transform="translate(129.903794 322.182437) scale(0.1 -0.1)">
       <defs>
        <path id="DejaVuSans-31" d="M 794 531 
L 1825 531 
L 1825 4091 
L 703 3866 
L 703 4441 
L 1819 4666 
L 2450 4666 
L 2450 531 
L 3481 531 
L 3481 0 
L 794 0 
L 794 531 
z
" transform="scale(0.015625)"/>
       </defs>
       <use xlink:href="#DejaVuSans-31"/>
       <use xlink:href="#DejaVuSans-30" x="63.623047"/>
      </g>
     </g>
    </g>
    <g id="xtick_3">
     <g id="line2d_3">
      <g>
       <use xlink:href="#m4814247ddb" x="198.69986" y="307.584" style="stroke: #000000; stroke-width: 0.8"/>
      </g>
     </g>
     <g id="text_3">
      <!-- 20 -->
      <g transform="translate(192.33736 322.182437) scale(0.1 -0.1)">
       <defs>
        <path id="DejaVuSans-32" d="M 1228 531 
L 3431 531 
L 3431 0 
L 469 0 
L 469 531 
Q 828 903 1448 1529 
Q 2069 2156 2228 2338 
Q 2531 2678 2651 2914 
Q 2772 3150 2772 3378 
Q 2772 3750 2511 3984 
Q 2250 4219 1831 4219 
Q 1534 4219 1204 4116 
Q 875 4013 500 3803 
L 500 4441 
Q 881 4594 1212 4672 
Q 1544 4750 1819 4750 
Q 2544 4750 2975 4387 
Q 3406 4025 3406 3419 
Q 3406 3131 3298 2873 
Q 3191 2616 2906 2266 
Q 2828 2175 2409 1742 
Q 1991 1309 1228 531 
z
" transform="scale(0.015625)"/>
       </defs>
       <use xlink:href="#DejaVuSans-32"/>
       <use xlink:href="#DejaVuSans-30" x="63.623047"/>
      </g>
     </g>
    </g>
    <g id="xtick_4">
     <g id="line2d_4">
      <g>
       <use xlink:href="#m4814247ddb" x="261.133427" y="307.584" style="stroke: #000000; stroke-width: 0.8"/>
      </g>
     </g>
     <g id="text_4">
      <!-- 30 -->
      <g transform="translate(254.770927 322.182437) scale(0.1 -0.1)">
       <defs>
        <path id="DejaVuSans-33" d="M 2597 2516 
Q 3050 2419 3304 2112 
Q 3559 1806 3559 1356 
Q 3559 666 3084 287 
Q 2609 -91 1734 -91 
Q 1441 -91 1130 -33 
Q 819 25 488 141 
L 488 750 
Q 750 597 1062 519 
Q 1375 441 1716 441 
Q 2309 441 2620 675 
Q 2931 909 2931 1356 
Q 2931 1769 2642 2001 
Q 2353 2234 1838 2234 
L 1294 2234 
L 1294 2753 
L 1863 2753 
Q 2328 2753 2575 2939 
Q 2822 3125 2822 3475 
Q 2822 3834 2567 4026 
Q 2313 4219 1838 4219 
Q 1578 4219 1281 4162 
Q 984 4106 628 3988 
L 628 4550 
Q 988 4650 1302 4700 
Q 1616 4750 1894 4750 
Q 2613 4750 3031 4423 
Q 3450 4097 3450 3541 
Q 3450 3153 3228 2886 
Q 3006 2619 2597 2516 
z
" transform="scale(0.015625)"/>
       </defs>
       <use xlink:href="#DejaVuSans-33"/>
       <use xlink:href="#DejaVuSans-30" x="63.623047"/>
      </g>
     </g>
    </g>
    <g id="xtick_5">
     <g id="line2d_5">
      <g>
       <use xlink:href="#m4814247ddb" x="323.566993" y="307.584" style="stroke: #000000; stroke-width: 0.8"/>
      </g>
     </g>
     <g id="text_5">
      <!-- 40 -->
      <g transform="translate(317.204493 322.182437) scale(0.1 -0.1)">
       <defs>
        <path id="DejaVuSans-34" d="M 2419 4116 
L 825 1625 
L 2419 1625 
L 2419 4116 
z
M 2253 4666 
L 3047 4666 
L 3047 1625 
L 3713 1625 
L 3713 1100 
L 3047 1100 
L 3047 0 
L 2419 0 
L 2419 1100 
L 313 1100 
L 313 1709 
L 2253 4666 
z
" transform="scale(0.015625)"/>
       </defs>
       <use xlink:href="#DejaVuSans-34"/>
       <use xlink:href="#DejaVuSans-30" x="63.623047"/>
      </g>
     </g>
    </g>
    <g id="xtick_6">
     <g id="line2d_6">
      <g>
       <use xlink:href="#m4814247ddb" x="386.000559" y="307.584" style="stroke: #000000; stroke-width: 0.8"/>
      </g>
     </g>
     <g id="text_6">
      <!-- 50 -->
      <g transform="translate(379.638059 322.182437) scale(0.1 -0.1)">
       <defs>
        <path id="DejaVuSans-35" d="M 691 4666 
L 3169 4666 
L 3169 4134 
L 1269 4134 
L 1269 2991 
Q 1406 3038 1543 3061 
Q 1681 3084 1819 3084 
Q 2600 3084 3056 2656 
Q 3513 2228 3513 1497 
Q 3513 744 3044 326 
Q 2575 -91 1722 -91 
Q 1428 -91 1123 -41 
Q 819 9 494 109 
L 494 744 
Q 775 591 1075 516 
Q 1375 441 1709 441 
Q 2250 441 2565 725 
Q 2881 1009 2881 1497 
Q 2881 1984 2565 2268 
Q 2250 2553 1709 2553 
Q 1456 2553 1204 2497 
Q 953 2441 691 2322 
L 691 4666 
z
" transform="scale(0.015625)"/>
       </defs>
       <use xlink:href="#DejaVuSans-35"/>
       <use xlink:href="#DejaVuSans-30" x="63.623047"/>
      </g>
     </g>
    </g>
    <g id="text_7">
     <!-- Generations -->
     <g transform="translate(205.662344 335.860562) scale(0.1 -0.1)">
      <defs>
       <path id="DejaVuSans-47" d="M 3809 666 
L 3809 1919 
L 2778 1919 
L 2778 2438 
L 4434 2438 
L 4434 434 
Q 4069 175 3628 42 
Q 3188 -91 2688 -91 
Q 1594 -91 976 548 
Q 359 1188 359 2328 
Q 359 3472 976 4111 
Q 1594 4750 2688 4750 
Q 3144 4750 3555 4637 
Q 3966 4525 4313 4306 
L 4313 3634 
Q 3963 3931 3569 4081 
Q 3175 4231 2741 4231 
Q 1884 4231 1454 3753 
Q 1025 3275 1025 2328 
Q 1025 1384 1454 906 
Q 1884 428 2741 428 
Q 3075 428 3337 486 
Q 3600 544 3809 666 
z
" transform="scale(0.015625)"/>
       <path id="DejaVuSans-65" d="M 3597 1894 
L 3597 1613 
L 953 1613 
Q 991 1019 1311 708 
Q 1631 397 2203 397 
Q 2534 397 2845 478 
Q 3156 559 3463 722 
L 3463 178 
Q 3153 47 2828 -22 
Q 2503 -91 2169 -91 
Q 1331 -91 842 396 
Q 353 884 353 1716 
Q 353 2575 817 3079 
Q 1281 3584 2069 3584 
Q 2775 3584 3186 3129 
Q 3597 2675 3597 1894 
z
M 3022 2063 
Q 3016 2534 2758 2815 
Q 2500 3097 2075 3097 
Q 1594 3097 1305 2825 
Q 1016 2553 972 2059 
L 3022 2063 
z
" transform="scale(0.015625)"/>
       <path id="DejaVuSans-6e" d="M 3513 2113 
L 3513 0 
L 2938 0 
L 2938 2094 
Q 2938 2591 2744 2837 
Q 2550 3084 2163 3084 
Q 1697 3084 1428 2787 
Q 1159 2491 1159 1978 
L 1159 0 
L 581 0 
L 581 3500 
L 1159 3500 
L 1159 2956 
Q 1366 3272 1645 3428 
Q 1925 3584 2291 3584 
Q 2894 3584 3203 3211 
Q 3513 2838 3513 2113 
z
" transform="scale(0.015625)"/>
       <path id="DejaVuSans-72" d="M 2631 2963 
Q 2534 3019 2420 3045 
Q 2306 3072 2169 3072 
Q 1681 3072 1420 2755 
Q 1159 2438 1159 1844 
L 1159 0 
L 581 0 
L 581 3500 
L 1159 3500 
L 1159 2956 
Q 1341 3275 1631 3429 
Q 1922 3584 2338 3584 
Q 2397 3584 2469 3576 
Q 2541 3569 2628 3553 
L 2631 2963 
z
" transform="scale(0.015625)"/>
       <path id="DejaVuSans-61" d="M 2194 1759 
Q 1497 1759 1228 1600 
Q 959 1441 959 1056 
Q 959 750 1161 570 
Q 1363 391 1709 391 
Q 2188 391 2477 730 
Q 2766 1069 2766 1631 
L 2766 1759 
L 2194 1759 
z
M 3341 1997 
L 3341 0 
L 2766 0 
L 2766 531 
Q 2569 213 2275 61 
Q 1981 -91 1556 -91 
Q 1019 -91 701 211 
Q 384 513 384 1019 
Q 384 1609 779 1909 
Q 1175 2209 1959 2209 
L 2766 2209 
L 2766 2266 
Q 2766 2663 2505 2880 
Q 2244 3097 1772 3097 
Q 1472 3097 1187 3025 
Q 903 2953 641 2809 
L 641 3341 
Q 956 3463 1253 3523 
Q 1550 3584 1831 3584 
Q 2591 3584 2966 3190 
Q 3341 2797 3341 1997 
z
" transform="scale(0.015625)"/>
       <path id="DejaVuSans-74" d="M 1172 4494 
L 1172 3500 
L 2356 3500 
L 2356 3053 
L 1172 3053 
L 1172 1153 
Q 1172 725 1289 603 
Q 1406 481 1766 481 
L 2356 481 
L 2356 0 
L 1766 0 
Q 1100 0 847 248 
Q 594 497 594 1153 
L 594 3053 
L 172 3053 
L 172 3500 
L 594 3500 
L 594 4494 
L 1172 4494 
z
" transform="scale(0.015625)"/>
       <path id="DejaVuSans-69" d="M 603 3500 
L 1178 3500 
L 1178 0 
L 603 0 
L 603 3500 
z
M 603 4863 
L 1178 4863 
L 1178 4134 
L 603 4134 
L 603 4863 
z
" transform="scale(0.015625)"/>
       <path id="DejaVuSans-6f" d="M 1959 3097 
Q 1497 3097 1228 2736 
Q 959 2375 959 1747 
Q 959 1119 1226 758 
Q 1494 397 1959 397 
Q 2419 397 2687 759 
Q 2956 1122 2956 1747 
Q 2956 2369 2687 2733 
Q 2419 3097 1959 3097 
z
M 1959 3584 
Q 2709 3584 3137 3096 
Q 3566 2609 3566 1747 
Q 3566 888 3137 398 
Q 2709 -91 1959 -91 
Q 1206 -91 779 398 
Q 353 888 353 1747 
Q 353 2609 779 3096 
Q 1206 3584 1959 3584 
z
" transform="scale(0.015625)"/>
       <path id="DejaVuSans-73" d="M 2834 3397 
L 2834 2853 
Q 2591 2978 2328 3040 
Q 2066 3103 1784 3103 
Q 1356 3103 1142 2972 
Q 928 2841 928 2578 
Q 928 2378 1081 2264 
Q 1234 2150 1697 2047 
L 1894 2003 
Q 2506 1872 2764 1633 
Q 3022 1394 3022 966 
Q 3022 478 2636 193 
Q 2250 -91 1575 -91 
Q 1294 -91 989 -36 
Q 684 19 347 128 
L 347 722 
Q 666 556 975 473 
Q 1284 391 1588 391 
Q 1994 391 2212 530 
Q 2431 669 2431 922 
Q 2431 1156 2273 1281 
Q 2116 1406 1581 1522 
L 1381 1569 
Q 847 1681 609 1914 
Q 372 2147 372 2553 
Q 372 3047 722 3315 
Q 1072 3584 1716 3584 
Q 2034 3584 2315 3537 
Q 2597 3491 2834 3397 
z
" transform="scale(0.015625)"/>
      </defs>
      <use xlink:href="#DejaVuSans-47"/>
      <use xlink:href="#DejaVuSans-65" x="77.490234"/>
      <use xlink:href="#DejaVuSans-6e" x="139.013672"/>
      <use xlink:href="#DejaVuSans-65" x="202.392578"/>
      <use xlink:href="#DejaVuSans-72" x="263.916016"/>
      <use xlink:href="#DejaVuSans-61" x="305.029297"/>
      <use xlink:href="#DejaVuSans-74" x="366.308594"/>
      <use xlink:href="#DejaVuSans-69" x="405.517578"/>
      <use xlink:href="#DejaVuSans-6f" x="433.300781"/>
      <use xlink:href="#DejaVuSans-6e" x="494.482422"/>
      <use xlink:href="#DejaVuSans-73" x="557.861328"/>
     </g>
    </g>
   </g>
   <g id="matplotlib.axis_2">
    <g id="ytick_1">
     <g id="line2d_7">
      <defs>
       <path id="m87eabe3f59" d="M 0 0 
L -3.5 0 
" style="stroke: #000000; stroke-width: 0.8"/>
      </defs>
      <g>
       <use xlink:href="#m87eabe3f59" x="57.6" y="307.584" style="stroke: #000000; stroke-width: 0.8"/>
      </g>
     </g>
     <g id="text_8">
      <!-- 0 -->
      <g transform="translate(44.2375 311.383219) scale(0.1 -0.1)">
       <use xlink:href="#DejaVuSans-30"/>
      </g>
     </g>
    </g>
    <g id="ytick_2">
     <g id="line2d_8">
      <g>
       <use xlink:href="#m87eabe3f59" x="57.6" y="257.694236" style="stroke: #000000; stroke-width: 0.8"/>
      </g>
     </g>
     <g id="text_9">
      <!-- 50 -->
      <g transform="translate(37.875 261.493455) scale(0.1 -0.1)">
       <use xlink:href="#DejaVuSans-35"/>
       <use xlink:href="#DejaVuSans-30" x="63.623047"/>
      </g>
     </g>
    </g>
    <g id="ytick_3">
     <g id="line2d_9">
      <g>
       <use xlink:href="#m87eabe3f59" x="57.6" y="207.804472" style="stroke: #000000; stroke-width: 0.8"/>
      </g>
     </g>
     <g id="text_10">
      <!-- 100 -->
      <g transform="translate(31.5125 211.603691) scale(0.1 -0.1)">
       <use xlink:href="#DejaVuSans-31"/>
       <use xlink:href="#DejaVuSans-30" x="63.623047"/>
       <use xlink:href="#DejaVuSans-30" x="127.246094"/>
      </g>
     </g>
    </g>
    <g id="ytick_4">
     <g id="line2d_10">
      <g>
       <use xlink:href="#m87eabe3f59" x="57.6" y="157.914709" style="stroke: #000000; stroke-width: 0.8"/>
      </g>
     </g>
     <g id="text_11">
      <!-- 150 -->
      <g transform="translate(31.5125 161.713927) scale(0.1 -0.1)">
       <use xlink:href="#DejaVuSans-31"/>
       <use xlink:href="#DejaVuSans-35" x="63.623047"/>
       <use xlink:href="#DejaVuSans-30" x="127.246094"/>
      </g>
     </g>
    </g>
    <g id="ytick_5">
     <g id="line2d_11">
      <g>
       <use xlink:href="#m87eabe3f59" x="57.6" y="108.024945" style="stroke: #000000; stroke-width: 0.8"/>
      </g>
     </g>
     <g id="text_12">
      <!-- 200 -->
      <g transform="translate(31.5125 111.824164) scale(0.1 -0.1)">
       <use xlink:href="#DejaVuSans-32"/>
       <use xlink:href="#DejaVuSans-30" x="63.623047"/>
       <use xlink:href="#DejaVuSans-30" x="127.246094"/>
      </g>
     </g>
    </g>
    <g id="ytick_6">
     <g id="line2d_12">
      <g>
       <use xlink:href="#m87eabe3f59" x="57.6" y="58.135181" style="stroke: #000000; stroke-width: 0.8"/>
      </g>
     </g>
     <g id="text_13">
      <!-- 250 -->
      <g transform="translate(31.5125 61.9344) scale(0.1 -0.1)">
       <use xlink:href="#DejaVuSans-32"/>
       <use xlink:href="#DejaVuSans-35" x="63.623047"/>
       <use xlink:href="#DejaVuSans-30" x="127.246094"/>
      </g>
     </g>
    </g>
    <g id="text_14">
     <!-- Size per Species -->
     <g transform="translate(25.432812 215.520969) rotate(-90) scale(0.1 -0.1)">
      <defs>
       <path id="DejaVuSans-53" d="M 3425 4513 
L 3425 3897 
Q 3066 4069 2747 4153 
Q 2428 4238 2131 4238 
Q 1616 4238 1336 4038 
Q 1056 3838 1056 3469 
Q 1056 3159 1242 3001 
Q 1428 2844 1947 2747 
L 2328 2669 
Q 3034 2534 3370 2195 
Q 3706 1856 3706 1288 
Q 3706 609 3251 259 
Q 2797 -91 1919 -91 
Q 1588 -91 1214 -16 
Q 841 59 441 206 
L 441 856 
Q 825 641 1194 531 
Q 1563 422 1919 422 
Q 2459 422 2753 634 
Q 3047 847 3047 1241 
Q 3047 1584 2836 1778 
Q 2625 1972 2144 2069 
L 1759 2144 
Q 1053 2284 737 2584 
Q 422 2884 422 3419 
Q 422 4038 858 4394 
Q 1294 4750 2059 4750 
Q 2388 4750 2728 4690 
Q 3069 4631 3425 4513 
z
" transform="scale(0.015625)"/>
       <path id="DejaVuSans-7a" d="M 353 3500 
L 3084 3500 
L 3084 2975 
L 922 459 
L 3084 459 
L 3084 0 
L 275 0 
L 275 525 
L 2438 3041 
L 353 3041 
L 353 3500 
z
" transform="scale(0.015625)"/>
       <path id="DejaVuSans-20" transform="scale(0.015625)"/>
       <path id="DejaVuSans-70" d="M 1159 525 
L 1159 -1331 
L 581 -1331 
L 581 3500 
L 1159 3500 
L 1159 2969 
Q 1341 3281 1617 3432 
Q 1894 3584 2278 3584 
Q 2916 3584 3314 3078 
Q 3713 2572 3713 1747 
Q 3713 922 3314 415 
Q 2916 -91 2278 -91 
Q 1894 -91 1617 61 
Q 1341 213 1159 525 
z
M 3116 1747 
Q 3116 2381 2855 2742 
Q 2594 3103 2138 3103 
Q 1681 3103 1420 2742 
Q 1159 2381 1159 1747 
Q 1159 1113 1420 752 
Q 1681 391 2138 391 
Q 2594 391 2855 752 
Q 3116 1113 3116 1747 
z
" transform="scale(0.015625)"/>
       <path id="DejaVuSans-63" d="M 3122 3366 
L 3122 2828 
Q 2878 2963 2633 3030 
Q 2388 3097 2138 3097 
Q 1578 3097 1268 2742 
Q 959 2388 959 1747 
Q 959 1106 1268 751 
Q 1578 397 2138 397 
Q 2388 397 2633 464 
Q 2878 531 3122 666 
L 3122 134 
Q 2881 22 2623 -34 
Q 2366 -91 2075 -91 
Q 1284 -91 818 406 
Q 353 903 353 1747 
Q 353 2603 823 3093 
Q 1294 3584 2113 3584 
Q 2378 3584 2631 3529 
Q 2884 3475 3122 3366 
z
" transform="scale(0.015625)"/>
      </defs>
      <use xlink:href="#DejaVuSans-53"/>
      <use xlink:href="#DejaVuSans-69" x="63.476562"/>
      <use xlink:href="#DejaVuSans-7a" x="91.259766"/>
      <use xlink:href="#DejaVuSans-65" x="143.75"/>
      <use xlink:href="#DejaVuSans-20" x="205.273438"/>
      <use xlink:href="#DejaVuSans-70" x="237.060547"/>
      <use xlink:href="#DejaVuSans-65" x="300.537109"/>
      <use xlink:href="#DejaVuSans-72" x="362.060547"/>
      <use xlink:href="#DejaVuSans-20" x="403.173828"/>
      <use xlink:href="#DejaVuSans-53" x="434.960938"/>
      <use xlink:href="#DejaVuSans-70" x="498.4375"/>
      <use xlink:href="#DejaVuSans-65" x="561.914062"/>
      <use xlink:href="#DejaVuSans-63" x="623.4375"/>
      <use xlink:href="#DejaVuSans-69" x="678.417969"/>
      <use xlink:href="#DejaVuSans-65" x="706.201172"/>
      <use xlink:href="#DejaVuSans-73" x="767.724609"/>
     </g>
    </g>
   </g>
   <g id="patch_3">
    <path d="M 57.6 307.584 
L 57.6 41.472 
" style="fill: none; stroke: #000000; stroke-width: 0.8; stroke-linejoin: miter; stroke-linecap: square"/>
   </g>
   <g id="patch_4">
    <path d="M 414.72 307.584 
L 414.72 41.472 
" style="fill: none; stroke: #000000; stroke-width: 0.8; stroke-linejoin: miter; stroke-linecap: square"/>
   </g>
   <g id="patch_5">
    <path d="M 57.6 307.584 
L 414.72 307.584 
" style="fill: none; stroke: #000000; stroke-width: 0.8; stroke-linejoin: miter; stroke-linecap: square"/>
   </g>
   <g id="patch_6">
    <path d="M 57.6 41.472 
L 414.72 41.472 
" style="fill: none; stroke: #000000; stroke-width: 0.8; stroke-linejoin: miter; stroke-linecap: square"/>
   </g>
   <g id="text_15">
    <!-- Speciation -->
    <g transform="translate(204.714375 35.472) scale(0.12 -0.12)">
     <use xlink:href="#DejaVuSans-53"/>
     <use xlink:href="#DejaVuSans-70" x="63.476562"/>
     <use xlink:href="#DejaVuSans-65" x="126.953125"/>
     <use xlink:href="#DejaVuSans-63" x="188.476562"/>
     <use xlink:href="#DejaVuSans-69" x="243.457031"/>
     <use xlink:href="#DejaVuSans-61" x="271.240234"/>
     <use xlink:href="#DejaVuSans-74" x="332.519531"/>
     <use xlink:href="#DejaVuSans-69" x="371.728516"/>
     <use xlink:href="#DejaVuSans-6f" x="399.511719"/>
     <use xlink:href="#DejaVuSans-6e" x="460.693359"/>
    </g>
   </g>
  </g>
 </g>
 <defs>
  <clipPath id="p2683fa8d9a">
   <rect x="57.6" y="41.472" width="357.12" height="266.112"/>
  </clipPath>
 </defs>
</svg>
