<?xml version="1.0" encoding="UTF-8" standalone="no"?>
<!DOCTYPE svg PUBLIC "-//W3C//DTD SVG 1.1//EN"
 "http://www.w3.org/Graphics/SVG/1.1/DTD/svg11.dtd">
<!-- Generated by graphviz version 2.43.0 (0)
 -->
<!-- Title: %3 Pages: 1 -->
<svg width="242pt" height="321pt"
 viewBox="0.00 0.00 241.99 320.68" xmlns="http://www.w3.org/2000/svg" xmlns:xlink="http://www.w3.org/1999/xlink">
<g id="graph0" class="graph" transform="scale(1 1) rotate(0) translate(4 316.68)">
<title>%3</title>
<polygon fill="white" stroke="transparent" points="-4,4 -4,-316.68 237.99,-316.68 237.99,4 -4,4"/>
<!-- x -->
<g id="node1" class="node">
<title>x</title>
<polygon fill="lightgray" stroke="black" points="22,-144.7 0,-144.7 0,-126.7 22,-126.7 22,-144.7"/>
<text text-anchor="middle" x="11" y="-133.5" font-family="Times,serif" font-size="9.00">x</text>
</g>
<!-- control -->
<g id="node5" class="node">
<title>control</title>
<ellipse fill="lightblue" stroke="black" cx="110" cy="-35.36" rx="35.21" ry="35.21"/>
<text text-anchor="middle" x="110" y="-33.16" font-family="Times,serif" font-size="9.00">control</text>
</g>
<!-- x&#45;&gt;control -->
<g id="edge5" class="edge">
<title>x&#45;&gt;control</title>
<path fill="none" stroke="green" stroke-width="0.32" d="M16.16,-126.5C19.95,-120.72 25.41,-112.93 31,-106.71 44.36,-91.84 60.64,-76.89 74.94,-64.63"/>
<polygon fill="green" stroke="green" stroke-width="0.32" points="77.28,-67.24 82.65,-58.11 72.76,-61.89 77.28,-67.24"/>
</g>
<!-- dx -->
<g id="node2" class="node">
<title>dx</title>
<polygon fill="lightgray" stroke="black" points="208,-312.68 180,-312.68 180,-294.68 208,-294.68 208,-312.68"/>
<text text-anchor="middle" x="194" y="-301.48" font-family="Times,serif" font-size="9.00">dx</text>
</g>
<!-- theta -->
<g id="node3" class="node">
<title>theta</title>
<polygon fill="lightgray" stroke="black" points="81.5,-144.7 40.5,-144.7 40.5,-126.7 81.5,-126.7 81.5,-144.7"/>
<text text-anchor="middle" x="61" y="-133.5" font-family="Times,serif" font-size="9.00">theta</text>
</g>
<!-- theta&#45;&gt;control -->
<g id="edge1" class="edge">
<title>theta&#45;&gt;control</title>
<path fill="none" stroke="green" stroke-width="1.41" d="M65.01,-126.65C70.51,-115.62 80.78,-95.01 90.12,-76.26"/>
<polygon fill="green" stroke="green" stroke-width="1.41" points="93.27,-77.77 94.6,-67.26 87.01,-74.65 93.27,-77.77"/>
</g>
<!-- dtheta -->
<g id="node4" class="node">
<title>dtheta</title>
<polygon fill="lightgray" stroke="black" points="161.5,-312.68 114.5,-312.68 114.5,-294.68 161.5,-294.68 161.5,-312.68"/>
<text text-anchor="middle" x="138" y="-301.48" font-family="Times,serif" font-size="9.00">dtheta</text>
</g>
<!-- dtheta&#45;&gt;control -->
<g id="edge2" class="edge">
<title>dtheta&#45;&gt;control</title>
<path fill="none" stroke="green" stroke-width="0.14" d="M136.06,-294.62C134.01,-285.83 130.83,-271.33 129,-258.68 120.13,-197.32 114.93,-125.79 112.27,-80.79"/>
<polygon fill="green" stroke="green" stroke-width="0.14" points="115.76,-80.56 111.7,-70.77 108.77,-80.96 115.76,-80.56"/>
</g>
<!-- 1018 -->
<g id="node6" class="node">
<title>1018</title>
<ellipse fill="white" stroke="black" cx="167" cy="-229.68" rx="28.98" ry="28.98"/>
<text text-anchor="middle" x="167" y="-227.48" font-family="Times,serif" font-size="9.00">1018</text>
</g>
<!-- dtheta&#45;&gt;1018 -->
<g id="edge3" class="edge">
<title>dtheta&#45;&gt;1018</title>
<path fill="none" stroke="green" stroke-width="0.71" stroke-dasharray="1,5" d="M141.33,-294.42C144.15,-287.41 148.41,-276.83 152.65,-266.3"/>
<polygon fill="green" stroke="green" stroke-width="0.71" points="156.01,-267.32 156.5,-256.74 149.52,-264.71 156.01,-267.32"/>
</g>
<!-- 1018&#45;&gt;control -->
<g id="edge4" class="edge">
<title>1018&#45;&gt;control</title>
<path fill="none" stroke="red" stroke-width="0.44" stroke-dasharray="1,5" d="M158.95,-201.54C149.52,-169.69 133.76,-116.51 122.67,-79.11"/>
<polygon fill="red" stroke="red" stroke-width="0.44" points="126.02,-78.09 119.82,-69.49 119.31,-80.07 126.02,-78.09"/>
</g>
<!-- 2289 -->
<g id="node7" class="node">
<title>2289</title>
<ellipse fill="white" stroke="black" cx="205" cy="-135.7" rx="28.98" ry="28.98"/>
<text text-anchor="middle" x="205" y="-133.5" font-family="Times,serif" font-size="9.00">2289</text>
</g>
<!-- 1018&#45;&gt;2289 -->
<g id="edge6" class="edge">
<title>1018&#45;&gt;2289</title>
<path fill="none" stroke="green" stroke-width="0.42" d="M177.79,-202.57C181.68,-193.15 186.14,-182.36 190.31,-172.27"/>
<polygon fill="green" stroke="green" stroke-width="0.42" points="193.6,-173.46 194.19,-162.88 187.13,-170.79 193.6,-173.46"/>
</g>
<!-- 2289&#45;&gt;control -->
<g id="edge7" class="edge">
<title>2289&#45;&gt;control</title>
<path fill="none" stroke="green" stroke-width="0.17" d="M185.32,-114.32C172.73,-101.29 156.11,-84.09 141.7,-69.17"/>
<polygon fill="green" stroke="green" stroke-width="0.17" points="143.85,-66.36 134.39,-61.6 138.82,-71.23 143.85,-66.36"/>
</g>
</g>
</svg>
