<?xml version="1.0" encoding="utf-8" standalone="no"?>
<!DOCTYPE svg PUBLIC "-//W3C//DTD SVG 1.1//EN"
  "http://www.w3.org/Graphics/SVG/1.1/DTD/svg11.dtd">
<svg xmlns:xlink="http://www.w3.org/1999/xlink" width="460.8pt" height="345.6pt" viewBox="0 0 460.8 345.6" xmlns="http://www.w3.org/2000/svg" version="1.1">
 <metadata>
  <rdf:RDF xmlns:dc="http://purl.org/dc/elements/1.1/" xmlns:cc="http://creativecommons.org/ns#" xmlns:rdf="http://www.w3.org/1999/02/22-rdf-syntax-ns#">
   <cc:Work>
    <dc:type rdf:resource="http://purl.org/dc/dcmitype/StillImage"/>
    <dc:date>2023-05-22T01:03:30.050783</dc:date>
    <dc:format>image/svg+xml</dc:format>
    <dc:creator>
     <cc:Agent>
      <dc:title>Matplotlib v3.7.0, https://matplotlib.org/</dc:title>
     </cc:Agent>
    </dc:creator>
   </cc:Work>
  </rdf:RDF>
 </metadata>
 <defs>
  <style type="text/css">*{stroke-linejoin: round; stroke-linecap: butt}</style>
 </defs>
 <g id="figure_1">
  <g id="patch_1">
   <path d="M 0 345.6 
L 460.8 345.6 
L 460.8 0 
L 0 0 
z
" style="fill: #ffffff"/>
  </g>
  <g id="axes_1">
   <g id="patch_2">
    <path d="M 57.6 307.584 
L 414.72 307.584 
L 414.72 41.472 
L 57.6 41.472 
z
" style="fill: #ffffff"/>
   </g>
   <g id="PolyCollection_1">
    <path d="M 73.832727 271.66337 
L 73.832727 307.584 
L 80.740271 307.584 
L 87.647814 307.584 
L 94.555358 307.584 
L 101.462901 307.584 
L 108.370445 307.584 
L 115.277988 307.584 
L 122.185532 307.584 
L 129.093075 307.584 
L 136.000619 307.584 
L 142.908162 307.584 
L 149.815706 307.584 
L 156.72325 307.584 
L 163.630793 307.584 
L 170.538337 307.584 
L 177.44588 307.584 
L 184.353424 307.584 
L 191.260967 307.584 
L 198.168511 307.584 
L 205.076054 307.584 
L 211.983598 307.584 
L 218.891141 307.584 
L 225.798685 307.584 
L 232.706228 307.584 
L 239.613772 307.584 
L 246.521315 307.584 
L 253.428859 307.584 
L 260.336402 307.584 
L 267.243946 307.584 
L 274.151489 307.584 
L 281.059033 307.584 
L 287.966576 307.584 
L 294.87412 307.584 
L 301.781663 307.584 
L 308.689207 307.584 
L 315.59675 307.584 
L 322.504294 307.584 
L 329.411838 307.584 
L 336.319381 307.584 
L 343.226925 307.584 
L 350.134468 307.584 
L 357.042012 307.584 
L 363.949555 307.584 
L 370.857099 307.584 
L 377.764642 307.584 
L 384.672186 307.584 
L 391.579729 307.584 
L 398.487273 307.584 
L 398.487273 307.584 
L 398.487273 307.584 
L 391.579729 307.584 
L 384.672186 307.584 
L 377.764642 307.584 
L 370.857099 307.584 
L 363.949555 307.584 
L 357.042012 259.689827 
L 350.134468 286.630299 
L 343.226925 290.62148 
L 336.319381 284.634709 
L 329.411838 256.696441 
L 322.504294 248.714079 
L 315.59675 233.74715 
L 308.689207 288.62589 
L 301.781663 301.597228 
L 294.87412 302.595024 
L 287.966576 290.62148 
L 281.059033 248.714079 
L 274.151489 244.722898 
L 267.243946 270.665575 
L 260.336402 288.62589 
L 253.428859 285.632504 
L 246.521315 286.630299 
L 239.613772 297.606047 
L 232.706228 286.630299 
L 225.798685 295.610457 
L 218.891141 282.639118 
L 211.983598 286.630299 
L 205.076054 277.650142 
L 198.168511 276.652346 
L 191.260967 258.692031 
L 184.353424 250.709669 
L 177.44588 290.62148 
L 170.538337 263.681008 
L 163.630793 295.610457 
L 156.72325 285.632504 
L 149.815706 275.654551 
L 142.908162 289.623685 
L 136.000619 289.623685 
L 129.093075 289.623685 
L 122.185532 292.617071 
L 115.277988 273.658961 
L 108.370445 277.650142 
L 101.462901 290.62148 
L 94.555358 297.606047 
L 87.647814 289.623685 
L 80.740271 291.619276 
L 73.832727 271.66337 
z
" clip-path="url(#pcd61708bd8)" style="fill: #1f77b4"/>
   </g>
   <g id="PolyCollection_2">
    <path d="M 73.832727 261.685417 
L 73.832727 271.66337 
L 80.740271 291.619276 
L 87.647814 289.623685 
L 94.555358 297.606047 
L 101.462901 290.62148 
L 108.370445 277.650142 
L 115.277988 273.658961 
L 122.185532 292.617071 
L 129.093075 289.623685 
L 136.000619 289.623685 
L 142.908162 289.623685 
L 149.815706 275.654551 
L 156.72325 285.632504 
L 163.630793 295.610457 
L 170.538337 263.681008 
L 177.44588 290.62148 
L 184.353424 250.709669 
L 191.260967 258.692031 
L 198.168511 276.652346 
L 205.076054 277.650142 
L 211.983598 286.630299 
L 218.891141 282.639118 
L 225.798685 295.610457 
L 232.706228 286.630299 
L 239.613772 297.606047 
L 246.521315 286.630299 
L 253.428859 285.632504 
L 260.336402 288.62589 
L 267.243946 270.665575 
L 274.151489 244.722898 
L 281.059033 248.714079 
L 287.966576 290.62148 
L 294.87412 302.595024 
L 301.781663 301.597228 
L 308.689207 288.62589 
L 315.59675 233.74715 
L 322.504294 248.714079 
L 329.411838 256.696441 
L 336.319381 284.634709 
L 343.226925 290.62148 
L 350.134468 286.630299 
L 357.042012 259.689827 
L 363.949555 307.584 
L 370.857099 307.584 
L 377.764642 307.584 
L 384.672186 307.584 
L 391.579729 307.584 
L 398.487273 307.584 
L 398.487273 307.584 
L 398.487273 307.584 
L 391.579729 307.584 
L 384.672186 307.584 
L 377.764642 307.584 
L 370.857099 307.584 
L 363.949555 307.584 
L 357.042012 259.689827 
L 350.134468 286.630299 
L 343.226925 290.62148 
L 336.319381 284.634709 
L 329.411838 256.696441 
L 322.504294 248.714079 
L 315.59675 233.74715 
L 308.689207 288.62589 
L 301.781663 301.597228 
L 294.87412 302.595024 
L 287.966576 290.62148 
L 281.059033 248.714079 
L 274.151489 244.722898 
L 267.243946 270.665575 
L 260.336402 288.62589 
L 253.428859 285.632504 
L 246.521315 276.652346 
L 239.613772 284.634709 
L 232.706228 280.643528 
L 225.798685 288.62589 
L 218.891141 278.647937 
L 211.983598 284.634709 
L 205.076054 274.656756 
L 198.168511 272.661165 
L 191.260967 254.70085 
L 184.353424 247.716283 
L 177.44588 269.66778 
L 170.538337 256.696441 
L 163.630793 288.62589 
L 156.72325 264.678803 
L 149.815706 258.692031 
L 142.908162 265.676598 
L 136.000619 276.652346 
L 129.093075 266.674394 
L 122.185532 280.643528 
L 115.277988 253.703055 
L 108.370445 260.687622 
L 101.462901 263.681008 
L 94.555358 273.658961 
L 87.647814 280.643528 
L 80.740271 267.672189 
L 73.832727 261.685417 
z
" clip-path="url(#pcd61708bd8)" style="fill: #ff7f0e"/>
   </g>
   <g id="PolyCollection_3">
    <path d="M 73.832727 219.778016 
L 73.832727 261.685417 
L 80.740271 267.672189 
L 87.647814 280.643528 
L 94.555358 273.658961 
L 101.462901 263.681008 
L 108.370445 260.687622 
L 115.277988 253.703055 
L 122.185532 280.643528 
L 129.093075 266.674394 
L 136.000619 276.652346 
L 142.908162 265.676598 
L 149.815706 258.692031 
L 156.72325 264.678803 
L 163.630793 288.62589 
L 170.538337 256.696441 
L 177.44588 269.66778 
L 184.353424 247.716283 
L 191.260967 254.70085 
L 198.168511 272.661165 
L 205.076054 274.656756 
L 211.983598 284.634709 
L 218.891141 278.647937 
L 225.798685 288.62589 
L 232.706228 280.643528 
L 239.613772 284.634709 
L 246.521315 276.652346 
L 253.428859 285.632504 
L 260.336402 288.62589 
L 267.243946 270.665575 
L 274.151489 244.722898 
L 281.059033 248.714079 
L 287.966576 290.62148 
L 294.87412 302.595024 
L 301.781663 301.597228 
L 308.689207 288.62589 
L 315.59675 233.74715 
L 322.504294 248.714079 
L 329.411838 256.696441 
L 336.319381 284.634709 
L 343.226925 290.62148 
L 350.134468 286.630299 
L 357.042012 259.689827 
L 363.949555 307.584 
L 370.857099 307.584 
L 377.764642 307.584 
L 384.672186 307.584 
L 391.579729 307.584 
L 398.487273 307.584 
L 398.487273 276.652346 
L 398.487273 276.652346 
L 391.579729 280.643528 
L 384.672186 278.647937 
L 377.764642 292.617071 
L 370.857099 290.62148 
L 363.949555 286.630299 
L 357.042012 228.758173 
L 350.134468 257.694236 
L 343.226925 246.718488 
L 336.319381 243.725102 
L 329.411838 247.716283 
L 322.504294 201.817701 
L 315.59675 211.795654 
L 308.689207 261.685417 
L 301.781663 285.632504 
L 294.87412 278.647937 
L 287.966576 280.643528 
L 281.059033 243.725102 
L 274.151489 236.740535 
L 267.243946 256.696441 
L 260.336402 277.650142 
L 253.428859 272.661165 
L 246.521315 265.676598 
L 239.613772 279.645732 
L 232.706228 272.661165 
L 225.798685 286.630299 
L 218.891141 272.661165 
L 211.983598 269.66778 
L 205.076054 257.694236 
L 198.168511 252.70526 
L 191.260967 229.755969 
L 184.353424 228.758173 
L 177.44588 252.70526 
L 170.538337 252.70526 
L 163.630793 265.676598 
L 156.72325 239.733921 
L 149.815706 237.738331 
L 142.908162 241.729512 
L 136.000619 256.696441 
L 129.093075 241.729512 
L 122.185532 248.714079 
L 115.277988 224.766992 
L 108.370445 229.755969 
L 101.462901 227.760378 
L 94.555358 234.744945 
L 87.647814 250.709669 
L 80.740271 250.709669 
L 73.832727 219.778016 
z
" clip-path="url(#pcd61708bd8)" style="fill: #2ca02c"/>
   </g>
   <g id="PolyCollection_4">
    <path d="M 73.832727 170.886047 
L 73.832727 219.778016 
L 80.740271 250.709669 
L 87.647814 250.709669 
L 94.555358 234.744945 
L 101.462901 227.760378 
L 108.370445 229.755969 
L 115.277988 224.766992 
L 122.185532 248.714079 
L 129.093075 241.729512 
L 136.000619 256.696441 
L 142.908162 241.729512 
L 149.815706 237.738331 
L 156.72325 239.733921 
L 163.630793 265.676598 
L 170.538337 252.70526 
L 177.44588 252.70526 
L 184.353424 228.758173 
L 191.260967 229.755969 
L 198.168511 252.70526 
L 205.076054 257.694236 
L 211.983598 269.66778 
L 218.891141 272.661165 
L 225.798685 286.630299 
L 232.706228 272.661165 
L 239.613772 279.645732 
L 246.521315 265.676598 
L 253.428859 272.661165 
L 260.336402 277.650142 
L 267.243946 256.696441 
L 274.151489 236.740535 
L 281.059033 243.725102 
L 287.966576 280.643528 
L 294.87412 278.647937 
L 301.781663 285.632504 
L 308.689207 261.685417 
L 315.59675 211.795654 
L 322.504294 201.817701 
L 329.411838 247.716283 
L 336.319381 243.725102 
L 343.226925 246.718488 
L 350.134468 257.694236 
L 357.042012 228.758173 
L 363.949555 286.630299 
L 370.857099 290.62148 
L 377.764642 292.617071 
L 384.672186 278.647937 
L 391.579729 280.643528 
L 398.487273 276.652346 
L 398.487273 276.652346 
L 398.487273 276.652346 
L 391.579729 280.643528 
L 384.672186 278.647937 
L 377.764642 292.617071 
L 370.857099 290.62148 
L 363.949555 286.630299 
L 357.042012 228.758173 
L 350.134468 257.694236 
L 343.226925 246.718488 
L 336.319381 243.725102 
L 329.411838 247.716283 
L 322.504294 201.817701 
L 315.59675 211.795654 
L 308.689207 261.685417 
L 301.781663 285.632504 
L 294.87412 278.647937 
L 287.966576 280.643528 
L 281.059033 243.725102 
L 274.151489 236.740535 
L 267.243946 256.696441 
L 260.336402 277.650142 
L 253.428859 272.661165 
L 246.521315 265.676598 
L 239.613772 279.645732 
L 232.706228 272.661165 
L 225.798685 286.630299 
L 218.891141 265.676598 
L 211.983598 252.70526 
L 205.076054 241.729512 
L 198.168511 242.727307 
L 191.260967 214.789039 
L 184.353424 197.82652 
L 177.44588 218.78022 
L 170.538337 237.738331 
L 163.630793 255.698646 
L 156.72325 223.769197 
L 149.815706 220.775811 
L 142.908162 226.762583 
L 136.000619 239.733921 
L 129.093075 228.758173 
L 122.185532 227.760378 
L 115.277988 194.833134 
L 108.370445 210.797858 
L 101.462901 213.791244 
L 94.555358 207.804472 
L 87.647814 235.74274 
L 80.740271 224.766992 
L 73.832727 170.886047 
z
" clip-path="url(#pcd61708bd8)" style="fill: #d62728"/>
   </g>
   <g id="PolyCollection_5">
    <path d="M 73.832727 151.927937 
L 73.832727 170.886047 
L 80.740271 224.766992 
L 87.647814 235.74274 
L 94.555358 207.804472 
L 101.462901 213.791244 
L 108.370445 210.797858 
L 115.277988 194.833134 
L 122.185532 227.760378 
L 129.093075 228.758173 
L 136.000619 239.733921 
L 142.908162 226.762583 
L 149.815706 220.775811 
L 156.72325 223.769197 
L 163.630793 255.698646 
L 170.538337 237.738331 
L 177.44588 218.78022 
L 184.353424 197.82652 
L 191.260967 214.789039 
L 198.168511 242.727307 
L 205.076054 241.729512 
L 211.983598 252.70526 
L 218.891141 265.676598 
L 225.798685 286.630299 
L 232.706228 272.661165 
L 239.613772 279.645732 
L 246.521315 265.676598 
L 253.428859 272.661165 
L 260.336402 277.650142 
L 267.243946 256.696441 
L 274.151489 236.740535 
L 281.059033 243.725102 
L 287.966576 280.643528 
L 294.87412 278.647937 
L 301.781663 285.632504 
L 308.689207 261.685417 
L 315.59675 211.795654 
L 322.504294 201.817701 
L 329.411838 247.716283 
L 336.319381 243.725102 
L 343.226925 246.718488 
L 350.134468 257.694236 
L 357.042012 228.758173 
L 363.949555 286.630299 
L 370.857099 290.62148 
L 377.764642 292.617071 
L 384.672186 278.647937 
L 391.579729 280.643528 
L 398.487273 276.652346 
L 398.487273 268.669984 
L 398.487273 268.669984 
L 391.579729 264.678803 
L 384.672186 254.70085 
L 377.764642 253.703055 
L 370.857099 268.669984 
L 363.949555 254.70085 
L 357.042012 207.804472 
L 350.134468 236.740535 
L 343.226925 230.753764 
L 336.319381 232.749354 
L 329.411838 213.791244 
L 322.504294 193.835339 
L 315.59675 187.848567 
L 308.689207 226.762583 
L 301.781663 265.676598 
L 294.87412 269.66778 
L 287.966576 251.707465 
L 281.059033 230.753764 
L 274.151489 228.758173 
L 267.243946 240.731717 
L 260.336402 266.674394 
L 253.428859 260.687622 
L 246.521315 261.685417 
L 239.613772 258.692031 
L 232.706228 265.676598 
L 225.798685 273.658961 
L 218.891141 246.718488 
L 211.983598 227.760378 
L 205.076054 229.755969 
L 198.168511 227.760378 
L 191.260967 189.844157 
L 184.353424 177.870614 
L 177.44588 196.828724 
L 170.538337 225.764787 
L 163.630793 236.740535 
L 156.72325 193.835339 
L 149.815706 203.813291 
L 142.908162 213.791244 
L 136.000619 214.789039 
L 129.093075 200.819906 
L 122.185532 214.789039 
L 115.277988 187.848567 
L 108.370445 201.817701 
L 101.462901 199.82211 
L 94.555358 195.830929 
L 87.647814 222.771402 
L 80.740271 209.800063 
L 73.832727 151.927937 
z
" clip-path="url(#pcd61708bd8)" style="fill: #9467bd"/>
   </g>
   <g id="PolyCollection_6">
    <path d="M 73.832727 148.934551 
L 73.832727 151.927937 
L 80.740271 209.800063 
L 87.647814 222.771402 
L 94.555358 195.830929 
L 101.462901 199.82211 
L 108.370445 201.817701 
L 115.277988 187.848567 
L 122.185532 214.789039 
L 129.093075 200.819906 
L 136.000619 214.789039 
L 142.908162 213.791244 
L 149.815706 203.813291 
L 156.72325 193.835339 
L 163.630793 236.740535 
L 170.538337 225.764787 
L 177.44588 196.828724 
L 184.353424 177.870614 
L 191.260967 189.844157 
L 198.168511 227.760378 
L 205.076054 229.755969 
L 211.983598 227.760378 
L 218.891141 246.718488 
L 225.798685 273.658961 
L 232.706228 265.676598 
L 239.613772 258.692031 
L 246.521315 261.685417 
L 253.428859 260.687622 
L 260.336402 266.674394 
L 267.243946 240.731717 
L 274.151489 228.758173 
L 281.059033 230.753764 
L 287.966576 251.707465 
L 294.87412 269.66778 
L 301.781663 265.676598 
L 308.689207 226.762583 
L 315.59675 187.848567 
L 322.504294 193.835339 
L 329.411838 213.791244 
L 336.319381 232.749354 
L 343.226925 230.753764 
L 350.134468 236.740535 
L 357.042012 207.804472 
L 363.949555 254.70085 
L 370.857099 268.669984 
L 377.764642 253.703055 
L 384.672186 254.70085 
L 391.579729 264.678803 
L 398.487273 268.669984 
L 398.487273 268.669984 
L 398.487273 268.669984 
L 391.579729 264.678803 
L 384.672186 254.70085 
L 377.764642 253.703055 
L 370.857099 268.669984 
L 363.949555 254.70085 
L 357.042012 207.804472 
L 350.134468 236.740535 
L 343.226925 230.753764 
L 336.319381 232.749354 
L 329.411838 213.791244 
L 322.504294 193.835339 
L 315.59675 187.848567 
L 308.689207 226.762583 
L 301.781663 265.676598 
L 294.87412 269.66778 
L 287.966576 251.707465 
L 281.059033 230.753764 
L 274.151489 228.758173 
L 267.243946 240.731717 
L 260.336402 266.674394 
L 253.428859 260.687622 
L 246.521315 261.685417 
L 239.613772 258.692031 
L 232.706228 265.676598 
L 225.798685 270.665575 
L 218.891141 244.722898 
L 211.983598 225.764787 
L 205.076054 227.760378 
L 198.168511 224.766992 
L 191.260967 187.848567 
L 184.353424 175.875024 
L 177.44588 194.833134 
L 170.538337 223.769197 
L 163.630793 234.744945 
L 156.72325 190.841953 
L 149.815706 201.817701 
L 142.908162 211.795654 
L 136.000619 211.795654 
L 129.093075 198.824315 
L 122.185532 212.793449 
L 115.277988 184.855181 
L 108.370445 199.82211 
L 101.462901 197.82652 
L 94.555358 192.837543 
L 87.647814 220.775811 
L 80.740271 208.802268 
L 73.832727 148.934551 
z
" clip-path="url(#pcd61708bd8)" style="fill: #8c564b"/>
   </g>
   <g id="PolyCollection_7">
    <path d="M 73.832727 147.936756 
L 73.832727 148.934551 
L 80.740271 208.802268 
L 87.647814 220.775811 
L 94.555358 192.837543 
L 101.462901 197.82652 
L 108.370445 199.82211 
L 115.277988 184.855181 
L 122.185532 212.793449 
L 129.093075 198.824315 
L 136.000619 211.795654 
L 142.908162 211.795654 
L 149.815706 201.817701 
L 156.72325 190.841953 
L 163.630793 234.744945 
L 170.538337 223.769197 
L 177.44588 194.833134 
L 184.353424 175.875024 
L 191.260967 187.848567 
L 198.168511 224.766992 
L 205.076054 227.760378 
L 211.983598 225.764787 
L 218.891141 244.722898 
L 225.798685 270.665575 
L 232.706228 265.676598 
L 239.613772 258.692031 
L 246.521315 261.685417 
L 253.428859 260.687622 
L 260.336402 266.674394 
L 267.243946 240.731717 
L 274.151489 228.758173 
L 281.059033 230.753764 
L 287.966576 251.707465 
L 294.87412 269.66778 
L 301.781663 265.676598 
L 308.689207 226.762583 
L 315.59675 187.848567 
L 322.504294 193.835339 
L 329.411838 213.791244 
L 336.319381 232.749354 
L 343.226925 230.753764 
L 350.134468 236.740535 
L 357.042012 207.804472 
L 363.949555 254.70085 
L 370.857099 268.669984 
L 377.764642 253.703055 
L 384.672186 254.70085 
L 391.579729 264.678803 
L 398.487273 268.669984 
L 398.487273 268.669984 
L 398.487273 268.669984 
L 391.579729 264.678803 
L 384.672186 254.70085 
L 377.764642 253.703055 
L 370.857099 268.669984 
L 363.949555 254.70085 
L 357.042012 207.804472 
L 350.134468 236.740535 
L 343.226925 230.753764 
L 336.319381 207.804472 
L 329.411838 182.859591 
L 322.504294 169.888252 
L 315.59675 171.883843 
L 308.689207 209.800063 
L 301.781663 246.718488 
L 294.87412 251.707465 
L 287.966576 232.749354 
L 281.059033 211.795654 
L 274.151489 216.78463 
L 267.243946 227.760378 
L 260.336402 254.70085 
L 253.428859 243.725102 
L 246.521315 241.729512 
L 239.613772 245.720693 
L 232.706228 246.718488 
L 225.798685 254.70085 
L 218.891141 229.755969 
L 211.983598 212.793449 
L 205.076054 212.793449 
L 198.168511 208.802268 
L 191.260967 171.883843 
L 184.353424 160.908094 
L 177.44588 182.859591 
L 170.538337 210.797858 
L 163.630793 216.78463 
L 156.72325 180.864 
L 149.815706 195.830929 
L 142.908162 201.817701 
L 136.000619 201.817701 
L 129.093075 189.844157 
L 122.185532 201.817701 
L 115.277988 168.890457 
L 108.370445 185.852976 
L 101.462901 191.839748 
L 94.555358 187.848567 
L 87.647814 214.789039 
L 80.740271 205.808882 
L 73.832727 147.936756 
z
" clip-path="url(#pcd61708bd8)" style="fill: #e377c2"/>
   </g>
   <g id="PolyCollection_8">
    <path d="M 73.832727 146.938961 
L 73.832727 147.936756 
L 80.740271 205.808882 
L 87.647814 214.789039 
L 94.555358 187.848567 
L 101.462901 191.839748 
L 108.370445 185.852976 
L 115.277988 168.890457 
L 122.185532 201.817701 
L 129.093075 189.844157 
L 136.000619 201.817701 
L 142.908162 201.817701 
L 149.815706 195.830929 
L 156.72325 180.864 
L 163.630793 216.78463 
L 170.538337 210.797858 
L 177.44588 182.859591 
L 184.353424 160.908094 
L 191.260967 171.883843 
L 198.168511 208.802268 
L 205.076054 212.793449 
L 211.983598 212.793449 
L 218.891141 229.755969 
L 225.798685 254.70085 
L 232.706228 246.718488 
L 239.613772 245.720693 
L 246.521315 241.729512 
L 253.428859 243.725102 
L 260.336402 254.70085 
L 267.243946 227.760378 
L 274.151489 216.78463 
L 281.059033 211.795654 
L 287.966576 232.749354 
L 294.87412 251.707465 
L 301.781663 246.718488 
L 308.689207 209.800063 
L 315.59675 171.883843 
L 322.504294 169.888252 
L 329.411838 182.859591 
L 336.319381 207.804472 
L 343.226925 230.753764 
L 350.134468 236.740535 
L 357.042012 207.804472 
L 363.949555 254.70085 
L 370.857099 268.669984 
L 377.764642 253.703055 
L 384.672186 254.70085 
L 391.579729 264.678803 
L 398.487273 268.669984 
L 398.487273 243.725102 
L 398.487273 243.725102 
L 391.579729 238.736126 
L 384.672186 237.738331 
L 377.764642 233.74715 
L 370.857099 259.689827 
L 363.949555 234.744945 
L 357.042012 192.837543 
L 350.134468 210.797858 
L 343.226925 214.789039 
L 336.319381 188.846362 
L 329.411838 175.875024 
L 322.504294 167.892661 
L 315.59675 151.927937 
L 308.689207 202.815496 
L 301.781663 206.806677 
L 294.87412 226.762583 
L 287.966576 194.833134 
L 281.059033 169.888252 
L 274.151489 199.82211 
L 267.243946 216.78463 
L 260.336402 207.804472 
L 253.428859 216.78463 
L 246.521315 216.78463 
L 239.613772 206.806677 
L 232.706228 213.791244 
L 225.798685 217.782425 
L 218.891141 207.804472 
L 211.983598 181.861795 
L 205.076054 173.879433 
L 198.168511 181.861795 
L 191.260967 165.897071 
L 184.353424 159.910299 
L 177.44588 172.881638 
L 170.538337 173.879433 
L 163.630793 182.859591 
L 156.72325 173.879433 
L 149.815706 181.861795 
L 142.908162 182.859591 
L 136.000619 183.857386 
L 129.093075 183.857386 
L 122.185532 198.824315 
L 115.277988 166.894866 
L 108.370445 182.859591 
L 101.462901 186.850772 
L 94.555358 181.861795 
L 87.647814 210.797858 
L 80.740271 200.819906 
L 73.832727 146.938961 
z
" clip-path="url(#pcd61708bd8)" style="fill: #7f7f7f"/>
   </g>
   <g id="PolyCollection_9">
    <path d="M 73.832727 135.963213 
L 73.832727 146.938961 
L 80.740271 200.819906 
L 87.647814 210.797858 
L 94.555358 181.861795 
L 101.462901 186.850772 
L 108.370445 182.859591 
L 115.277988 166.894866 
L 122.185532 198.824315 
L 129.093075 183.857386 
L 136.000619 183.857386 
L 142.908162 182.859591 
L 149.815706 181.861795 
L 156.72325 173.879433 
L 163.630793 182.859591 
L 170.538337 173.879433 
L 177.44588 172.881638 
L 184.353424 159.910299 
L 191.260967 165.897071 
L 198.168511 181.861795 
L 205.076054 173.879433 
L 211.983598 181.861795 
L 218.891141 207.804472 
L 225.798685 217.782425 
L 232.706228 213.791244 
L 239.613772 206.806677 
L 246.521315 216.78463 
L 253.428859 216.78463 
L 260.336402 207.804472 
L 267.243946 216.78463 
L 274.151489 199.82211 
L 281.059033 169.888252 
L 287.966576 194.833134 
L 294.87412 226.762583 
L 301.781663 206.806677 
L 308.689207 202.815496 
L 315.59675 151.927937 
L 322.504294 167.892661 
L 329.411838 175.875024 
L 336.319381 188.846362 
L 343.226925 214.789039 
L 350.134468 210.797858 
L 357.042012 192.837543 
L 363.949555 234.744945 
L 370.857099 259.689827 
L 377.764642 233.74715 
L 384.672186 237.738331 
L 391.579729 238.736126 
L 398.487273 243.725102 
L 398.487273 243.725102 
L 398.487273 243.725102 
L 391.579729 238.736126 
L 384.672186 237.738331 
L 377.764642 233.74715 
L 370.857099 259.689827 
L 363.949555 234.744945 
L 357.042012 192.837543 
L 350.134468 210.797858 
L 343.226925 214.789039 
L 336.319381 188.846362 
L 329.411838 175.875024 
L 322.504294 167.892661 
L 315.59675 151.927937 
L 308.689207 202.815496 
L 301.781663 206.806677 
L 294.87412 226.762583 
L 287.966576 194.833134 
L 281.059033 154.921323 
L 274.151489 185.852976 
L 267.243946 203.813291 
L 260.336402 196.828724 
L 253.428859 205.808882 
L 246.521315 203.813291 
L 239.613772 191.839748 
L 232.706228 197.82652 
L 225.798685 206.806677 
L 218.891141 196.828724 
L 211.983598 166.894866 
L 205.076054 160.908094 
L 198.168511 171.883843 
L 191.260967 154.921323 
L 184.353424 148.934551 
L 177.44588 163.90148 
L 170.538337 161.90589 
L 163.630793 172.881638 
L 156.72325 158.912504 
L 149.815706 158.912504 
L 142.908162 159.910299 
L 136.000619 170.886047 
L 129.093075 163.90148 
L 122.185532 177.870614 
L 115.277988 151.927937 
L 108.370445 176.872819 
L 101.462901 173.879433 
L 94.555358 173.879433 
L 87.647814 199.82211 
L 80.740271 180.864 
L 73.832727 135.963213 
z
" clip-path="url(#pcd61708bd8)" style="fill: #bcbd22"/>
   </g>
   <g id="PolyCollection_10">
    <path d="M 73.832727 134.965417 
L 73.832727 135.963213 
L 80.740271 180.864 
L 87.647814 199.82211 
L 94.555358 173.879433 
L 101.462901 173.879433 
L 108.370445 176.872819 
L 115.277988 151.927937 
L 122.185532 177.870614 
L 129.093075 163.90148 
L 136.000619 170.886047 
L 142.908162 159.910299 
L 149.815706 158.912504 
L 156.72325 158.912504 
L 163.630793 172.881638 
L 170.538337 161.90589 
L 177.44588 163.90148 
L 184.353424 148.934551 
L 191.260967 154.921323 
L 198.168511 171.883843 
L 205.076054 160.908094 
L 211.983598 166.894866 
L 218.891141 196.828724 
L 225.798685 206.806677 
L 232.706228 197.82652 
L 239.613772 191.839748 
L 246.521315 203.813291 
L 253.428859 205.808882 
L 260.336402 196.828724 
L 267.243946 203.813291 
L 274.151489 185.852976 
L 281.059033 154.921323 
L 287.966576 194.833134 
L 294.87412 226.762583 
L 301.781663 206.806677 
L 308.689207 202.815496 
L 315.59675 151.927937 
L 322.504294 167.892661 
L 329.411838 175.875024 
L 336.319381 188.846362 
L 343.226925 214.789039 
L 350.134468 210.797858 
L 357.042012 192.837543 
L 363.949555 234.744945 
L 370.857099 259.689827 
L 377.764642 233.74715 
L 384.672186 237.738331 
L 391.579729 238.736126 
L 398.487273 243.725102 
L 398.487273 243.725102 
L 398.487273 243.725102 
L 391.579729 238.736126 
L 384.672186 237.738331 
L 377.764642 233.74715 
L 370.857099 259.689827 
L 363.949555 234.744945 
L 357.042012 192.837543 
L 350.134468 210.797858 
L 343.226925 214.789039 
L 336.319381 188.846362 
L 329.411838 175.875024 
L 322.504294 164.899276 
L 315.59675 149.932346 
L 308.689207 199.82211 
L 301.781663 204.811087 
L 294.87412 224.766992 
L 287.966576 192.837543 
L 281.059033 152.925732 
L 274.151489 183.857386 
L 267.243946 200.819906 
L 260.336402 192.837543 
L 253.428859 202.815496 
L 246.521315 201.817701 
L 239.613772 189.844157 
L 232.706228 194.833134 
L 225.798685 204.811087 
L 218.891141 194.833134 
L 211.983598 163.90148 
L 205.076054 158.912504 
L 198.168511 169.888252 
L 191.260967 151.927937 
L 184.353424 146.938961 
L 177.44588 161.90589 
L 170.538337 158.912504 
L 163.630793 170.886047 
L 156.72325 156.916913 
L 149.815706 155.919118 
L 142.908162 157.914709 
L 136.000619 167.892661 
L 129.093075 161.90589 
L 122.185532 174.877228 
L 115.277988 149.932346 
L 108.370445 172.881638 
L 101.462901 170.886047 
L 94.555358 168.890457 
L 87.647814 193.835339 
L 80.740271 176.872819 
L 73.832727 134.965417 
z
" clip-path="url(#pcd61708bd8)" style="fill: #17becf"/>
   </g>
   <g id="PolyCollection_11">
    <path d="M 73.832727 105.031559 
L 73.832727 134.965417 
L 80.740271 176.872819 
L 87.647814 193.835339 
L 94.555358 168.890457 
L 101.462901 170.886047 
L 108.370445 172.881638 
L 115.277988 149.932346 
L 122.185532 174.877228 
L 129.093075 161.90589 
L 136.000619 167.892661 
L 142.908162 157.914709 
L 149.815706 155.919118 
L 156.72325 156.916913 
L 163.630793 170.886047 
L 170.538337 158.912504 
L 177.44588 161.90589 
L 184.353424 146.938961 
L 191.260967 151.927937 
L 198.168511 169.888252 
L 205.076054 158.912504 
L 211.983598 163.90148 
L 218.891141 194.833134 
L 225.798685 204.811087 
L 232.706228 194.833134 
L 239.613772 189.844157 
L 246.521315 201.817701 
L 253.428859 202.815496 
L 260.336402 192.837543 
L 267.243946 200.819906 
L 274.151489 183.857386 
L 281.059033 152.925732 
L 287.966576 192.837543 
L 294.87412 224.766992 
L 301.781663 204.811087 
L 308.689207 199.82211 
L 315.59675 149.932346 
L 322.504294 164.899276 
L 329.411838 175.875024 
L 336.319381 188.846362 
L 343.226925 214.789039 
L 350.134468 210.797858 
L 357.042012 192.837543 
L 363.949555 234.744945 
L 370.857099 259.689827 
L 377.764642 233.74715 
L 384.672186 237.738331 
L 391.579729 238.736126 
L 398.487273 243.725102 
L 398.487273 215.786835 
L 398.487273 215.786835 
L 391.579729 198.824315 
L 384.672186 226.762583 
L 377.764642 219.778016 
L 370.857099 240.731717 
L 363.949555 212.793449 
L 357.042012 185.852976 
L 350.134468 191.839748 
L 343.226925 204.811087 
L 336.319381 178.868409 
L 329.411838 166.894866 
L 322.504294 150.930142 
L 315.59675 146.938961 
L 308.689207 179.866205 
L 301.781663 191.839748 
L 294.87412 199.82211 
L 287.966576 166.894866 
L 281.059033 148.934551 
L 274.151489 160.908094 
L 267.243946 187.848567 
L 260.336402 177.870614 
L 253.428859 193.835339 
L 246.521315 196.828724 
L 239.613772 153.923528 
L 232.706228 174.877228 
L 225.798685 177.870614 
L 218.891141 192.837543 
L 211.983598 157.914709 
L 205.076054 144.94337 
L 198.168511 150.930142 
L 191.260967 133.967622 
L 184.353424 123.989669 
L 177.44588 124.987465 
L 170.538337 148.934551 
L 163.630793 150.930142 
L 156.72325 133.967622 
L 149.815706 138.956598 
L 142.908162 132.969827 
L 136.000619 145.941165 
L 129.093075 146.938961 
L 122.185532 160.908094 
L 115.277988 137.958803 
L 108.370445 149.932346 
L 101.462901 150.930142 
L 94.555358 145.941165 
L 87.647814 174.877228 
L 80.740271 159.910299 
L 73.832727 105.031559 
z
" clip-path="url(#pcd61708bd8)" style="fill: #1f77b4"/>
   </g>
   <g id="PolyCollection_12">
    <path d="M 73.832727 85.075654 
L 73.832727 105.031559 
L 80.740271 159.910299 
L 87.647814 174.877228 
L 94.555358 145.941165 
L 101.462901 150.930142 
L 108.370445 149.932346 
L 115.277988 137.958803 
L 122.185532 160.908094 
L 129.093075 146.938961 
L 136.000619 145.941165 
L 142.908162 132.969827 
L 149.815706 138.956598 
L 156.72325 133.967622 
L 163.630793 150.930142 
L 170.538337 148.934551 
L 177.44588 124.987465 
L 184.353424 123.989669 
L 191.260967 133.967622 
L 198.168511 150.930142 
L 205.076054 144.94337 
L 211.983598 157.914709 
L 218.891141 192.837543 
L 225.798685 177.870614 
L 232.706228 174.877228 
L 239.613772 153.923528 
L 246.521315 196.828724 
L 253.428859 193.835339 
L 260.336402 177.870614 
L 267.243946 187.848567 
L 274.151489 160.908094 
L 281.059033 148.934551 
L 287.966576 166.894866 
L 294.87412 199.82211 
L 301.781663 191.839748 
L 308.689207 179.866205 
L 315.59675 146.938961 
L 322.504294 150.930142 
L 329.411838 166.894866 
L 336.319381 178.868409 
L 343.226925 204.811087 
L 350.134468 191.839748 
L 357.042012 185.852976 
L 363.949555 212.793449 
L 370.857099 240.731717 
L 377.764642 219.778016 
L 384.672186 226.762583 
L 391.579729 198.824315 
L 398.487273 215.786835 
L 398.487273 182.859591 
L 398.487273 182.859591 
L 391.579729 188.846362 
L 384.672186 213.791244 
L 377.764642 190.841953 
L 370.857099 217.782425 
L 363.949555 185.852976 
L 357.042012 159.910299 
L 350.134468 171.883843 
L 343.226925 182.859591 
L 336.319381 171.883843 
L 329.411838 159.910299 
L 322.504294 139.954394 
L 315.59675 125.98526 
L 308.689207 169.888252 
L 301.781663 187.848567 
L 294.87412 186.850772 
L 287.966576 160.908094 
L 281.059033 138.956598 
L 274.151489 144.94337 
L 267.243946 163.90148 
L 260.336402 172.881638 
L 253.428859 156.916913 
L 246.521315 153.923528 
L 239.613772 141.949984 
L 232.706228 148.934551 
L 225.798685 151.927937 
L 218.891141 153.923528 
L 211.983598 150.930142 
L 205.076054 143.945575 
L 198.168511 146.938961 
L 191.260967 128.978646 
L 184.353424 120.996283 
L 177.44588 121.994079 
L 170.538337 144.94337 
L 163.630793 145.941165 
L 156.72325 129.976441 
L 149.815706 133.967622 
L 142.908162 129.976441 
L 136.000619 142.94778 
L 129.093075 143.945575 
L 122.185532 154.921323 
L 115.277988 132.969827 
L 108.370445 143.945575 
L 101.462901 143.945575 
L 94.555358 136.961008 
L 87.647814 161.90589 
L 80.740271 148.934551 
L 73.832727 85.075654 
z
" clip-path="url(#pcd61708bd8)" style="fill: #ff7f0e"/>
   </g>
   <g id="PolyCollection_13">
    <path d="M 73.832727 84.077858 
L 73.832727 85.075654 
L 80.740271 148.934551 
L 87.647814 161.90589 
L 94.555358 136.961008 
L 101.462901 143.945575 
L 108.370445 143.945575 
L 115.277988 132.969827 
L 122.185532 154.921323 
L 129.093075 143.945575 
L 136.000619 142.94778 
L 142.908162 129.976441 
L 149.815706 133.967622 
L 156.72325 129.976441 
L 163.630793 145.941165 
L 170.538337 144.94337 
L 177.44588 121.994079 
L 184.353424 120.996283 
L 191.260967 128.978646 
L 198.168511 146.938961 
L 205.076054 143.945575 
L 211.983598 150.930142 
L 218.891141 153.923528 
L 225.798685 151.927937 
L 232.706228 148.934551 
L 239.613772 141.949984 
L 246.521315 153.923528 
L 253.428859 156.916913 
L 260.336402 172.881638 
L 267.243946 163.90148 
L 274.151489 144.94337 
L 281.059033 138.956598 
L 287.966576 160.908094 
L 294.87412 186.850772 
L 301.781663 187.848567 
L 308.689207 169.888252 
L 315.59675 125.98526 
L 322.504294 139.954394 
L 329.411838 159.910299 
L 336.319381 171.883843 
L 343.226925 182.859591 
L 350.134468 171.883843 
L 357.042012 159.910299 
L 363.949555 185.852976 
L 370.857099 217.782425 
L 377.764642 190.841953 
L 384.672186 213.791244 
L 391.579729 188.846362 
L 398.487273 182.859591 
L 398.487273 168.890457 
L 398.487273 168.890457 
L 391.579729 155.919118 
L 384.672186 184.855181 
L 377.764642 176.872819 
L 370.857099 214.789039 
L 363.949555 183.857386 
L 357.042012 156.916913 
L 350.134468 167.892661 
L 343.226925 178.868409 
L 336.319381 168.890457 
L 329.411838 157.914709 
L 322.504294 136.961008 
L 315.59675 124.987465 
L 308.689207 166.894866 
L 301.781663 185.852976 
L 294.87412 181.861795 
L 287.966576 158.912504 
L 281.059033 135.963213 
L 274.151489 142.94778 
L 267.243946 161.90589 
L 260.336402 168.890457 
L 253.428859 153.923528 
L 246.521315 150.930142 
L 239.613772 137.958803 
L 232.706228 146.938961 
L 225.798685 149.932346 
L 218.891141 151.927937 
L 211.983598 147.936756 
L 205.076054 140.952189 
L 198.168511 142.94778 
L 191.260967 125.98526 
L 184.353424 119.000693 
L 177.44588 119.000693 
L 170.538337 141.949984 
L 163.630793 143.945575 
L 156.72325 127.98085 
L 149.815706 130.974236 
L 142.908162 126.983055 
L 136.000619 140.952189 
L 129.093075 140.952189 
L 122.185532 151.927937 
L 115.277988 130.974236 
L 108.370445 140.952189 
L 101.462901 139.954394 
L 94.555358 130.974236 
L 87.647814 156.916913 
L 80.740271 146.938961 
L 73.832727 84.077858 
z
" clip-path="url(#pcd61708bd8)" style="fill: #2ca02c"/>
   </g>
   <g id="PolyCollection_14">
    <path d="M 73.832727 74.099906 
L 73.832727 84.077858 
L 80.740271 146.938961 
L 87.647814 156.916913 
L 94.555358 130.974236 
L 101.462901 139.954394 
L 108.370445 140.952189 
L 115.277988 130.974236 
L 122.185532 151.927937 
L 129.093075 140.952189 
L 136.000619 140.952189 
L 142.908162 126.983055 
L 149.815706 130.974236 
L 156.72325 127.98085 
L 163.630793 143.945575 
L 170.538337 141.949984 
L 177.44588 119.000693 
L 184.353424 119.000693 
L 191.260967 125.98526 
L 198.168511 142.94778 
L 205.076054 140.952189 
L 211.983598 147.936756 
L 218.891141 151.927937 
L 225.798685 149.932346 
L 232.706228 146.938961 
L 239.613772 137.958803 
L 246.521315 150.930142 
L 253.428859 153.923528 
L 260.336402 168.890457 
L 267.243946 161.90589 
L 274.151489 142.94778 
L 281.059033 135.963213 
L 287.966576 158.912504 
L 294.87412 181.861795 
L 301.781663 185.852976 
L 308.689207 166.894866 
L 315.59675 124.987465 
L 322.504294 136.961008 
L 329.411838 157.914709 
L 336.319381 168.890457 
L 343.226925 178.868409 
L 350.134468 167.892661 
L 357.042012 156.916913 
L 363.949555 183.857386 
L 370.857099 214.789039 
L 377.764642 176.872819 
L 384.672186 184.855181 
L 391.579729 155.919118 
L 398.487273 168.890457 
L 398.487273 135.963213 
L 398.487273 135.963213 
L 391.579729 135.963213 
L 384.672186 136.961008 
L 377.764642 131.972031 
L 370.857099 147.936756 
L 363.949555 133.967622 
L 357.042012 138.956598 
L 350.134468 139.954394 
L 343.226925 141.949984 
L 336.319381 141.949984 
L 329.411838 132.969827 
L 322.504294 128.978646 
L 315.59675 112.016126 
L 308.689207 142.94778 
L 301.781663 161.90589 
L 294.87412 122.991874 
L 287.966576 111.018331 
L 281.059033 120.996283 
L 274.151489 135.963213 
L 267.243946 126.983055 
L 260.336402 154.921323 
L 253.428859 145.941165 
L 246.521315 133.967622 
L 239.613772 119.000693 
L 232.706228 132.969827 
L 225.798685 129.976441 
L 218.891141 136.961008 
L 211.983598 137.958803 
L 205.076054 135.963213 
L 198.168511 139.954394 
L 191.260967 111.018331 
L 184.353424 111.018331 
L 177.44588 118.002898 
L 170.538337 125.98526 
L 163.630793 130.974236 
L 156.72325 106.029354 
L 149.815706 118.002898 
L 142.908162 119.998488 
L 136.000619 123.989669 
L 129.093075 124.987465 
L 122.185532 129.976441 
L 115.277988 106.029354 
L 108.370445 104.033764 
L 101.462901 101.040378 
L 94.555358 109.02274 
L 87.647814 115.009512 
L 80.740271 115.009512 
L 73.832727 74.099906 
z
" clip-path="url(#pcd61708bd8)" style="fill: #d62728"/>
   </g>
   <g id="PolyCollection_15">
    <path d="M 73.832727 73.10211 
L 73.832727 74.099906 
L 80.740271 115.009512 
L 87.647814 115.009512 
L 94.555358 109.02274 
L 101.462901 101.040378 
L 108.370445 104.033764 
L 115.277988 106.029354 
L 122.185532 129.976441 
L 129.093075 124.987465 
L 136.000619 123.989669 
L 142.908162 119.998488 
L 149.815706 118.002898 
L 156.72325 106.029354 
L 163.630793 130.974236 
L 170.538337 125.98526 
L 177.44588 118.002898 
L 184.353424 111.018331 
L 191.260967 111.018331 
L 198.168511 139.954394 
L 205.076054 135.963213 
L 211.983598 137.958803 
L 218.891141 136.961008 
L 225.798685 129.976441 
L 232.706228 132.969827 
L 239.613772 119.000693 
L 246.521315 133.967622 
L 253.428859 145.941165 
L 260.336402 154.921323 
L 267.243946 126.983055 
L 274.151489 135.963213 
L 281.059033 120.996283 
L 287.966576 111.018331 
L 294.87412 122.991874 
L 301.781663 161.90589 
L 308.689207 142.94778 
L 315.59675 112.016126 
L 322.504294 128.978646 
L 329.411838 132.969827 
L 336.319381 141.949984 
L 343.226925 141.949984 
L 350.134468 139.954394 
L 357.042012 138.956598 
L 363.949555 133.967622 
L 370.857099 147.936756 
L 377.764642 131.972031 
L 384.672186 136.961008 
L 391.579729 135.963213 
L 398.487273 135.963213 
L 398.487273 135.963213 
L 398.487273 135.963213 
L 391.579729 135.963213 
L 384.672186 136.961008 
L 377.764642 131.972031 
L 370.857099 147.936756 
L 363.949555 133.967622 
L 357.042012 138.956598 
L 350.134468 139.954394 
L 343.226925 141.949984 
L 336.319381 141.949984 
L 329.411838 132.969827 
L 322.504294 128.978646 
L 315.59675 112.016126 
L 308.689207 142.94778 
L 301.781663 161.90589 
L 294.87412 122.991874 
L 287.966576 111.018331 
L 281.059033 117.005102 
L 274.151489 132.969827 
L 267.243946 124.987465 
L 260.336402 151.927937 
L 253.428859 143.945575 
L 246.521315 130.974236 
L 239.613772 117.005102 
L 232.706228 129.976441 
L 225.798685 127.98085 
L 218.891141 133.967622 
L 211.983598 135.963213 
L 205.076054 132.969827 
L 198.168511 137.958803 
L 191.260967 108.024945 
L 184.353424 107.02715 
L 177.44588 115.009512 
L 170.538337 123.989669 
L 163.630793 128.978646 
L 156.72325 103.035969 
L 149.815706 114.011717 
L 142.908162 117.005102 
L 136.000619 119.998488 
L 129.093075 122.991874 
L 122.185532 126.983055 
L 115.277988 104.033764 
L 108.370445 102.038173 
L 101.462901 99.044787 
L 94.555358 105.031559 
L 87.647814 109.02274 
L 80.740271 110.020535 
L 73.832727 73.10211 
z
" clip-path="url(#pcd61708bd8)" style="fill: #9467bd"/>
   </g>
   <g id="PolyCollection_16">
    <path d="M 73.832727 68.113134 
L 73.832727 73.10211 
L 80.740271 110.020535 
L 87.647814 109.02274 
L 94.555358 105.031559 
L 101.462901 99.044787 
L 108.370445 102.038173 
L 115.277988 104.033764 
L 122.185532 126.983055 
L 129.093075 122.991874 
L 136.000619 119.998488 
L 142.908162 117.005102 
L 149.815706 114.011717 
L 156.72325 103.035969 
L 163.630793 128.978646 
L 170.538337 123.989669 
L 177.44588 115.009512 
L 184.353424 107.02715 
L 191.260967 108.024945 
L 198.168511 137.958803 
L 205.076054 132.969827 
L 211.983598 135.963213 
L 218.891141 133.967622 
L 225.798685 127.98085 
L 232.706228 129.976441 
L 239.613772 117.005102 
L 246.521315 130.974236 
L 253.428859 143.945575 
L 260.336402 151.927937 
L 267.243946 124.987465 
L 274.151489 132.969827 
L 281.059033 117.005102 
L 287.966576 111.018331 
L 294.87412 122.991874 
L 301.781663 161.90589 
L 308.689207 142.94778 
L 315.59675 112.016126 
L 322.504294 128.978646 
L 329.411838 132.969827 
L 336.319381 141.949984 
L 343.226925 141.949984 
L 350.134468 139.954394 
L 357.042012 138.956598 
L 363.949555 133.967622 
L 370.857099 147.936756 
L 377.764642 131.972031 
L 384.672186 136.961008 
L 391.579729 135.963213 
L 398.487273 135.963213 
L 398.487273 135.963213 
L 398.487273 135.963213 
L 391.579729 135.963213 
L 384.672186 136.961008 
L 377.764642 131.972031 
L 370.857099 147.936756 
L 363.949555 133.967622 
L 357.042012 138.956598 
L 350.134468 139.954394 
L 343.226925 141.949984 
L 336.319381 141.949984 
L 329.411838 132.969827 
L 322.504294 128.978646 
L 315.59675 112.016126 
L 308.689207 142.94778 
L 301.781663 161.90589 
L 294.87412 122.991874 
L 287.966576 111.018331 
L 281.059033 117.005102 
L 274.151489 132.969827 
L 267.243946 124.987465 
L 260.336402 145.941165 
L 253.428859 130.974236 
L 246.521315 127.98085 
L 239.613772 115.009512 
L 232.706228 126.983055 
L 225.798685 124.987465 
L 218.891141 119.000693 
L 211.983598 130.974236 
L 205.076054 128.978646 
L 198.168511 128.978646 
L 191.260967 107.02715 
L 184.353424 106.029354 
L 177.44588 105.031559 
L 170.538337 114.011717 
L 163.630793 94.055811 
L 156.72325 89.066835 
L 149.815706 91.062425 
L 142.908162 87.071244 
L 136.000619 87.071244 
L 129.093075 92.06022 
L 122.185532 94.055811 
L 115.277988 92.06022 
L 108.370445 94.055811 
L 101.462901 93.058016 
L 94.555358 97.049197 
L 87.647814 107.02715 
L 80.740271 95.053606 
L 73.832727 68.113134 
z
" clip-path="url(#pcd61708bd8)" style="fill: #8c564b"/>
   </g>
   <g id="PolyCollection_17">
    <path d="M 73.832727 67.115339 
L 73.832727 68.113134 
L 80.740271 95.053606 
L 87.647814 107.02715 
L 94.555358 97.049197 
L 101.462901 93.058016 
L 108.370445 94.055811 
L 115.277988 92.06022 
L 122.185532 94.055811 
L 129.093075 92.06022 
L 136.000619 87.071244 
L 142.908162 87.071244 
L 149.815706 91.062425 
L 156.72325 89.066835 
L 163.630793 94.055811 
L 170.538337 114.011717 
L 177.44588 105.031559 
L 184.353424 106.029354 
L 191.260967 107.02715 
L 198.168511 128.978646 
L 205.076054 128.978646 
L 211.983598 130.974236 
L 218.891141 119.000693 
L 225.798685 124.987465 
L 232.706228 126.983055 
L 239.613772 115.009512 
L 246.521315 127.98085 
L 253.428859 130.974236 
L 260.336402 145.941165 
L 267.243946 124.987465 
L 274.151489 132.969827 
L 281.059033 117.005102 
L 287.966576 111.018331 
L 294.87412 122.991874 
L 301.781663 161.90589 
L 308.689207 142.94778 
L 315.59675 112.016126 
L 322.504294 128.978646 
L 329.411838 132.969827 
L 336.319381 141.949984 
L 343.226925 141.949984 
L 350.134468 139.954394 
L 357.042012 138.956598 
L 363.949555 133.967622 
L 370.857099 147.936756 
L 377.764642 131.972031 
L 384.672186 136.961008 
L 391.579729 135.963213 
L 398.487273 135.963213 
L 398.487273 135.963213 
L 398.487273 135.963213 
L 391.579729 135.963213 
L 384.672186 136.961008 
L 377.764642 131.972031 
L 370.857099 147.936756 
L 363.949555 133.967622 
L 357.042012 138.956598 
L 350.134468 139.954394 
L 343.226925 121.994079 
L 336.319381 122.991874 
L 329.411838 113.013921 
L 322.504294 112.016126 
L 315.59675 96.051402 
L 308.689207 130.974236 
L 301.781663 149.932346 
L 294.87412 111.018331 
L 287.966576 99.044787 
L 281.059033 104.033764 
L 274.151489 119.000693 
L 267.243946 114.011717 
L 260.336402 135.963213 
L 253.428859 118.002898 
L 246.521315 119.000693 
L 239.613772 104.033764 
L 232.706228 112.016126 
L 225.798685 112.016126 
L 218.891141 105.031559 
L 211.983598 114.011717 
L 205.076054 114.011717 
L 198.168511 119.000693 
L 191.260967 96.051402 
L 184.353424 97.049197 
L 177.44588 97.049197 
L 170.538337 107.02715 
L 163.630793 86.073449 
L 156.72325 80.086677 
L 149.815706 83.080063 
L 142.908162 80.086677 
L 136.000619 79.088882 
L 129.093075 82.082268 
L 122.185532 83.080063 
L 115.277988 85.075654 
L 108.370445 86.073449 
L 101.462901 88.069039 
L 94.555358 90.06463 
L 87.647814 102.038173 
L 80.740271 91.062425 
L 73.832727 67.115339 
z
" clip-path="url(#pcd61708bd8)" style="fill: #e377c2"/>
   </g>
   <g id="PolyCollection_18">
    <path d="M 73.832727 66.117543 
L 73.832727 67.115339 
L 80.740271 91.062425 
L 87.647814 102.038173 
L 94.555358 90.06463 
L 101.462901 88.069039 
L 108.370445 86.073449 
L 115.277988 85.075654 
L 122.185532 83.080063 
L 129.093075 82.082268 
L 136.000619 79.088882 
L 142.908162 80.086677 
L 149.815706 83.080063 
L 156.72325 80.086677 
L 163.630793 86.073449 
L 170.538337 107.02715 
L 177.44588 97.049197 
L 184.353424 97.049197 
L 191.260967 96.051402 
L 198.168511 119.000693 
L 205.076054 114.011717 
L 211.983598 114.011717 
L 218.891141 105.031559 
L 225.798685 112.016126 
L 232.706228 112.016126 
L 239.613772 104.033764 
L 246.521315 119.000693 
L 253.428859 118.002898 
L 260.336402 135.963213 
L 267.243946 114.011717 
L 274.151489 119.000693 
L 281.059033 104.033764 
L 287.966576 99.044787 
L 294.87412 111.018331 
L 301.781663 149.932346 
L 308.689207 130.974236 
L 315.59675 96.051402 
L 322.504294 112.016126 
L 329.411838 113.013921 
L 336.319381 122.991874 
L 343.226925 121.994079 
L 350.134468 139.954394 
L 357.042012 138.956598 
L 363.949555 133.967622 
L 370.857099 147.936756 
L 377.764642 131.972031 
L 384.672186 136.961008 
L 391.579729 135.963213 
L 398.487273 135.963213 
L 398.487273 135.963213 
L 398.487273 135.963213 
L 391.579729 135.963213 
L 384.672186 136.961008 
L 377.764642 131.972031 
L 370.857099 147.936756 
L 363.949555 133.967622 
L 357.042012 138.956598 
L 350.134468 139.954394 
L 343.226925 121.994079 
L 336.319381 122.991874 
L 329.411838 113.013921 
L 322.504294 112.016126 
L 315.59675 96.051402 
L 308.689207 130.974236 
L 301.781663 149.932346 
L 294.87412 111.018331 
L 287.966576 99.044787 
L 281.059033 104.033764 
L 274.151489 117.005102 
L 267.243946 111.018331 
L 260.336402 132.969827 
L 253.428859 114.011717 
L 246.521315 116.007307 
L 239.613772 102.038173 
L 232.706228 110.020535 
L 225.798685 109.02274 
L 218.891141 103.035969 
L 211.983598 111.018331 
L 205.076054 112.016126 
L 198.168511 116.007307 
L 191.260967 94.055811 
L 184.353424 95.053606 
L 177.44588 95.053606 
L 170.538337 104.033764 
L 163.630793 82.082268 
L 156.72325 77.093291 
L 149.815706 81.084472 
L 142.908162 77.093291 
L 136.000619 77.093291 
L 129.093075 79.088882 
L 122.185532 81.084472 
L 115.277988 82.082268 
L 108.370445 84.077858 
L 101.462901 85.075654 
L 94.555358 86.073449 
L 87.647814 97.049197 
L 80.740271 87.071244 
L 73.832727 66.117543 
z
" clip-path="url(#pcd61708bd8)" style="fill: #7f7f7f"/>
   </g>
   <g id="PolyCollection_19">
    <path d="M 73.832727 65.119748 
L 73.832727 66.117543 
L 80.740271 87.071244 
L 87.647814 97.049197 
L 94.555358 86.073449 
L 101.462901 85.075654 
L 108.370445 84.077858 
L 115.277988 82.082268 
L 122.185532 81.084472 
L 129.093075 79.088882 
L 136.000619 77.093291 
L 142.908162 77.093291 
L 149.815706 81.084472 
L 156.72325 77.093291 
L 163.630793 82.082268 
L 170.538337 104.033764 
L 177.44588 95.053606 
L 184.353424 95.053606 
L 191.260967 94.055811 
L 198.168511 116.007307 
L 205.076054 112.016126 
L 211.983598 111.018331 
L 218.891141 103.035969 
L 225.798685 109.02274 
L 232.706228 110.020535 
L 239.613772 102.038173 
L 246.521315 116.007307 
L 253.428859 114.011717 
L 260.336402 132.969827 
L 267.243946 111.018331 
L 274.151489 117.005102 
L 281.059033 104.033764 
L 287.966576 99.044787 
L 294.87412 111.018331 
L 301.781663 149.932346 
L 308.689207 130.974236 
L 315.59675 96.051402 
L 322.504294 112.016126 
L 329.411838 113.013921 
L 336.319381 122.991874 
L 343.226925 121.994079 
L 350.134468 139.954394 
L 357.042012 138.956598 
L 363.949555 133.967622 
L 370.857099 147.936756 
L 377.764642 131.972031 
L 384.672186 136.961008 
L 391.579729 135.963213 
L 398.487273 135.963213 
L 398.487273 135.963213 
L 398.487273 135.963213 
L 391.579729 135.963213 
L 384.672186 136.961008 
L 377.764642 131.972031 
L 370.857099 147.936756 
L 363.949555 133.967622 
L 357.042012 138.956598 
L 350.134468 139.954394 
L 343.226925 121.994079 
L 336.319381 122.991874 
L 329.411838 113.013921 
L 322.504294 112.016126 
L 315.59675 96.051402 
L 308.689207 130.974236 
L 301.781663 149.932346 
L 294.87412 111.018331 
L 287.966576 99.044787 
L 281.059033 104.033764 
L 274.151489 117.005102 
L 267.243946 111.018331 
L 260.336402 132.969827 
L 253.428859 114.011717 
L 246.521315 116.007307 
L 239.613772 102.038173 
L 232.706228 110.020535 
L 225.798685 106.029354 
L 218.891141 101.040378 
L 211.983598 108.024945 
L 205.076054 110.020535 
L 198.168511 113.013921 
L 191.260967 92.06022 
L 184.353424 92.06022 
L 177.44588 93.058016 
L 170.538337 102.038173 
L 163.630793 80.086677 
L 156.72325 74.099906 
L 149.815706 77.093291 
L 142.908162 75.097701 
L 136.000619 75.097701 
L 129.093075 76.095496 
L 122.185532 79.088882 
L 115.277988 79.088882 
L 108.370445 81.084472 
L 101.462901 81.084472 
L 94.555358 81.084472 
L 87.647814 90.06463 
L 80.740271 84.077858 
L 73.832727 65.119748 
z
" clip-path="url(#pcd61708bd8)" style="fill: #bcbd22"/>
   </g>
   <g id="PolyCollection_20">
    <path d="M 73.832727 64.121953 
L 73.832727 65.119748 
L 80.740271 84.077858 
L 87.647814 90.06463 
L 94.555358 81.084472 
L 101.462901 81.084472 
L 108.370445 81.084472 
L 115.277988 79.088882 
L 122.185532 79.088882 
L 129.093075 76.095496 
L 136.000619 75.097701 
L 142.908162 75.097701 
L 149.815706 77.093291 
L 156.72325 74.099906 
L 163.630793 80.086677 
L 170.538337 102.038173 
L 177.44588 93.058016 
L 184.353424 92.06022 
L 191.260967 92.06022 
L 198.168511 113.013921 
L 205.076054 110.020535 
L 211.983598 108.024945 
L 218.891141 101.040378 
L 225.798685 106.029354 
L 232.706228 110.020535 
L 239.613772 102.038173 
L 246.521315 116.007307 
L 253.428859 114.011717 
L 260.336402 132.969827 
L 267.243946 111.018331 
L 274.151489 117.005102 
L 281.059033 104.033764 
L 287.966576 99.044787 
L 294.87412 111.018331 
L 301.781663 149.932346 
L 308.689207 130.974236 
L 315.59675 96.051402 
L 322.504294 112.016126 
L 329.411838 113.013921 
L 336.319381 122.991874 
L 343.226925 121.994079 
L 350.134468 139.954394 
L 357.042012 138.956598 
L 363.949555 133.967622 
L 370.857099 147.936756 
L 377.764642 131.972031 
L 384.672186 136.961008 
L 391.579729 135.963213 
L 398.487273 135.963213 
L 398.487273 119.000693 
L 398.487273 119.000693 
L 391.579729 119.998488 
L 384.672186 119.000693 
L 377.764642 128.978646 
L 370.857099 139.954394 
L 363.949555 122.991874 
L 357.042012 121.994079 
L 350.134468 119.000693 
L 343.226925 99.044787 
L 336.319381 98.046992 
L 329.411838 96.051402 
L 322.504294 105.031559 
L 315.59675 89.066835 
L 308.689207 101.040378 
L 301.781663 109.02274 
L 294.87412 83.080063 
L 287.966576 83.080063 
L 281.059033 86.073449 
L 274.151489 102.038173 
L 267.243946 99.044787 
L 260.336402 119.000693 
L 253.428859 94.055811 
L 246.521315 99.044787 
L 239.613772 92.06022 
L 232.706228 87.071244 
L 225.798685 83.080063 
L 218.891141 81.084472 
L 211.983598 83.080063 
L 205.076054 89.066835 
L 198.168511 87.071244 
L 191.260967 86.073449 
L 184.353424 89.066835 
L 177.44588 91.062425 
L 170.538337 100.042583 
L 163.630793 78.091087 
L 156.72325 71.10652 
L 149.815706 75.097701 
L 142.908162 72.104315 
L 136.000619 72.104315 
L 129.093075 74.099906 
L 122.185532 77.093291 
L 115.277988 77.093291 
L 108.370445 78.091087 
L 101.462901 77.093291 
L 94.555358 76.095496 
L 87.647814 84.077858 
L 80.740271 76.095496 
L 73.832727 64.121953 
z
" clip-path="url(#pcd61708bd8)" style="fill: #17becf"/>
   </g>
   <g id="PolyCollection_21">
    <path d="M 73.832727 63.124157 
L 73.832727 64.121953 
L 80.740271 76.095496 
L 87.647814 84.077858 
L 94.555358 76.095496 
L 101.462901 77.093291 
L 108.370445 78.091087 
L 115.277988 77.093291 
L 122.185532 77.093291 
L 129.093075 74.099906 
L 136.000619 72.104315 
L 142.908162 72.104315 
L 149.815706 75.097701 
L 156.72325 71.10652 
L 163.630793 78.091087 
L 170.538337 100.042583 
L 177.44588 91.062425 
L 184.353424 89.066835 
L 191.260967 86.073449 
L 198.168511 87.071244 
L 205.076054 89.066835 
L 211.983598 83.080063 
L 218.891141 81.084472 
L 225.798685 83.080063 
L 232.706228 87.071244 
L 239.613772 92.06022 
L 246.521315 99.044787 
L 253.428859 94.055811 
L 260.336402 119.000693 
L 267.243946 99.044787 
L 274.151489 102.038173 
L 281.059033 86.073449 
L 287.966576 83.080063 
L 294.87412 83.080063 
L 301.781663 109.02274 
L 308.689207 101.040378 
L 315.59675 89.066835 
L 322.504294 105.031559 
L 329.411838 96.051402 
L 336.319381 98.046992 
L 343.226925 99.044787 
L 350.134468 119.000693 
L 357.042012 121.994079 
L 363.949555 122.991874 
L 370.857099 139.954394 
L 377.764642 128.978646 
L 384.672186 119.000693 
L 391.579729 119.998488 
L 398.487273 119.000693 
L 398.487273 119.000693 
L 398.487273 119.000693 
L 391.579729 119.998488 
L 384.672186 119.000693 
L 377.764642 128.978646 
L 370.857099 139.954394 
L 363.949555 120.996283 
L 357.042012 119.998488 
L 350.134468 117.005102 
L 343.226925 97.049197 
L 336.319381 96.051402 
L 329.411838 93.058016 
L 322.504294 103.035969 
L 315.59675 86.073449 
L 308.689207 99.044787 
L 301.781663 107.02715 
L 294.87412 80.086677 
L 287.966576 81.084472 
L 281.059033 83.080063 
L 274.151489 100.042583 
L 267.243946 96.051402 
L 260.336402 115.009512 
L 253.428859 92.06022 
L 246.521315 97.049197 
L 239.613772 89.066835 
L 232.706228 83.080063 
L 225.798685 81.084472 
L 218.891141 77.093291 
L 211.983598 80.086677 
L 205.076054 86.073449 
L 198.168511 85.075654 
L 191.260967 83.080063 
L 184.353424 87.071244 
L 177.44588 88.069039 
L 170.538337 98.046992 
L 163.630793 75.097701 
L 156.72325 69.110929 
L 149.815706 72.104315 
L 142.908162 70.108724 
L 136.000619 69.110929 
L 129.093075 72.104315 
L 122.185532 74.099906 
L 115.277988 73.10211 
L 108.370445 75.097701 
L 101.462901 75.097701 
L 94.555358 74.099906 
L 87.647814 79.088882 
L 80.740271 73.10211 
L 73.832727 63.124157 
z
" clip-path="url(#pcd61708bd8)" style="fill: #1f77b4"/>
   </g>
   <g id="PolyCollection_22">
    <path d="M 73.832727 62.126362 
L 73.832727 63.124157 
L 80.740271 73.10211 
L 87.647814 79.088882 
L 94.555358 74.099906 
L 101.462901 75.097701 
L 108.370445 75.097701 
L 115.277988 73.10211 
L 122.185532 74.099906 
L 129.093075 72.104315 
L 136.000619 69.110929 
L 142.908162 70.108724 
L 149.815706 72.104315 
L 156.72325 69.110929 
L 163.630793 75.097701 
L 170.538337 98.046992 
L 177.44588 88.069039 
L 184.353424 87.071244 
L 191.260967 83.080063 
L 198.168511 85.075654 
L 205.076054 86.073449 
L 211.983598 80.086677 
L 218.891141 77.093291 
L 225.798685 81.084472 
L 232.706228 83.080063 
L 239.613772 89.066835 
L 246.521315 97.049197 
L 253.428859 92.06022 
L 260.336402 115.009512 
L 267.243946 96.051402 
L 274.151489 100.042583 
L 281.059033 83.080063 
L 287.966576 81.084472 
L 294.87412 80.086677 
L 301.781663 107.02715 
L 308.689207 99.044787 
L 315.59675 86.073449 
L 322.504294 103.035969 
L 329.411838 93.058016 
L 336.319381 96.051402 
L 343.226925 97.049197 
L 350.134468 117.005102 
L 357.042012 119.998488 
L 363.949555 120.996283 
L 370.857099 139.954394 
L 377.764642 128.978646 
L 384.672186 119.000693 
L 391.579729 119.998488 
L 398.487273 119.000693 
L 398.487273 85.075654 
L 398.487273 85.075654 
L 391.579729 82.082268 
L 384.672186 83.080063 
L 377.764642 98.046992 
L 370.857099 117.005102 
L 363.949555 95.053606 
L 357.042012 99.044787 
L 350.134468 92.06022 
L 343.226925 81.084472 
L 336.319381 78.091087 
L 329.411838 77.093291 
L 322.504294 82.082268 
L 315.59675 68.113134 
L 308.689207 82.082268 
L 301.781663 88.069039 
L 294.87412 62.126362 
L 287.966576 69.110929 
L 281.059033 69.110929 
L 274.151489 79.088882 
L 267.243946 77.093291 
L 260.336402 85.075654 
L 253.428859 81.084472 
L 246.521315 86.073449 
L 239.613772 85.075654 
L 232.706228 80.086677 
L 225.798685 80.086677 
L 218.891141 74.099906 
L 211.983598 75.097701 
L 205.076054 82.082268 
L 198.168511 82.082268 
L 191.260967 80.086677 
L 184.353424 84.077858 
L 177.44588 86.073449 
L 170.538337 95.053606 
L 163.630793 73.10211 
L 156.72325 68.113134 
L 149.815706 68.113134 
L 142.908162 66.117543 
L 136.000619 66.117543 
L 129.093075 70.108724 
L 122.185532 70.108724 
L 115.277988 70.108724 
L 108.370445 71.10652 
L 101.462901 70.108724 
L 94.555358 68.113134 
L 87.647814 73.10211 
L 80.740271 71.10652 
L 73.832727 62.126362 
z
" clip-path="url(#pcd61708bd8)" style="fill: #ff7f0e"/>
   </g>
   <g id="PolyCollection_23">
    <path d="M 73.832727 60.130772 
L 73.832727 62.126362 
L 80.740271 71.10652 
L 87.647814 73.10211 
L 94.555358 68.113134 
L 101.462901 70.108724 
L 108.370445 71.10652 
L 115.277988 70.108724 
L 122.185532 70.108724 
L 129.093075 70.108724 
L 136.000619 66.117543 
L 142.908162 66.117543 
L 149.815706 68.113134 
L 156.72325 68.113134 
L 163.630793 73.10211 
L 170.538337 95.053606 
L 177.44588 86.073449 
L 184.353424 84.077858 
L 191.260967 80.086677 
L 198.168511 82.082268 
L 205.076054 82.082268 
L 211.983598 75.097701 
L 218.891141 74.099906 
L 225.798685 80.086677 
L 232.706228 80.086677 
L 239.613772 85.075654 
L 246.521315 86.073449 
L 253.428859 81.084472 
L 260.336402 85.075654 
L 267.243946 77.093291 
L 274.151489 79.088882 
L 281.059033 69.110929 
L 287.966576 69.110929 
L 294.87412 62.126362 
L 301.781663 88.069039 
L 308.689207 82.082268 
L 315.59675 68.113134 
L 322.504294 82.082268 
L 329.411838 77.093291 
L 336.319381 78.091087 
L 343.226925 81.084472 
L 350.134468 92.06022 
L 357.042012 99.044787 
L 363.949555 95.053606 
L 370.857099 117.005102 
L 377.764642 98.046992 
L 384.672186 83.080063 
L 391.579729 82.082268 
L 398.487273 85.075654 
L 398.487273 64.121953 
L 398.487273 64.121953 
L 391.579729 62.126362 
L 384.672186 60.130772 
L 377.764642 62.126362 
L 370.857099 59.132976 
L 363.949555 58.135181 
L 357.042012 57.137386 
L 350.134468 58.135181 
L 343.226925 57.137386 
L 336.319381 59.132976 
L 329.411838 59.132976 
L 322.504294 58.135181 
L 315.59675 58.135181 
L 308.689207 57.137386 
L 301.781663 60.130772 
L 294.87412 59.132976 
L 287.966576 60.130772 
L 281.059033 62.126362 
L 274.151489 64.121953 
L 267.243946 67.115339 
L 260.336402 63.124157 
L 253.428859 65.119748 
L 246.521315 60.130772 
L 239.613772 62.126362 
L 232.706228 63.124157 
L 225.798685 59.132976 
L 218.891141 58.135181 
L 211.983598 61.128567 
L 205.076054 61.128567 
L 198.168511 61.128567 
L 191.260967 59.132976 
L 184.353424 61.128567 
L 177.44588 63.124157 
L 170.538337 65.119748 
L 163.630793 64.121953 
L 156.72325 63.124157 
L 149.815706 65.119748 
L 142.908162 64.121953 
L 136.000619 63.124157 
L 129.093075 66.117543 
L 122.185532 68.113134 
L 115.277988 67.115339 
L 108.370445 69.110929 
L 101.462901 67.115339 
L 94.555358 65.119748 
L 87.647814 69.110929 
L 80.740271 67.115339 
L 73.832727 60.130772 
z
" clip-path="url(#pcd61708bd8)" style="fill: #2ca02c"/>
   </g>
   <g id="PolyCollection_24">
    <path d="M 73.832727 59.132976 
L 73.832727 60.130772 
L 80.740271 67.115339 
L 87.647814 69.110929 
L 94.555358 65.119748 
L 101.462901 67.115339 
L 108.370445 69.110929 
L 115.277988 67.115339 
L 122.185532 68.113134 
L 129.093075 66.117543 
L 136.000619 63.124157 
L 142.908162 64.121953 
L 149.815706 65.119748 
L 156.72325 63.124157 
L 163.630793 64.121953 
L 170.538337 65.119748 
L 177.44588 63.124157 
L 184.353424 61.128567 
L 191.260967 59.132976 
L 198.168511 61.128567 
L 205.076054 61.128567 
L 211.983598 61.128567 
L 218.891141 58.135181 
L 225.798685 59.132976 
L 232.706228 63.124157 
L 239.613772 62.126362 
L 246.521315 60.130772 
L 253.428859 65.119748 
L 260.336402 63.124157 
L 267.243946 67.115339 
L 274.151489 64.121953 
L 281.059033 62.126362 
L 287.966576 60.130772 
L 294.87412 59.132976 
L 301.781663 60.130772 
L 308.689207 57.137386 
L 315.59675 58.135181 
L 322.504294 58.135181 
L 329.411838 59.132976 
L 336.319381 59.132976 
L 343.226925 57.137386 
L 350.134468 58.135181 
L 357.042012 57.137386 
L 363.949555 58.135181 
L 370.857099 59.132976 
L 377.764642 62.126362 
L 384.672186 60.130772 
L 391.579729 62.126362 
L 398.487273 64.121953 
L 398.487273 64.121953 
L 398.487273 64.121953 
L 391.579729 62.126362 
L 384.672186 60.130772 
L 377.764642 62.126362 
L 370.857099 59.132976 
L 363.949555 58.135181 
L 357.042012 57.137386 
L 350.134468 58.135181 
L 343.226925 57.137386 
L 336.319381 59.132976 
L 329.411838 59.132976 
L 322.504294 58.135181 
L 315.59675 58.135181 
L 308.689207 57.137386 
L 301.781663 60.130772 
L 294.87412 59.132976 
L 287.966576 60.130772 
L 281.059033 60.130772 
L 274.151489 62.126362 
L 267.243946 65.119748 
L 260.336402 60.130772 
L 253.428859 62.126362 
L 246.521315 58.135181 
L 239.613772 59.132976 
L 232.706228 61.128567 
L 225.798685 56.139591 
L 218.891141 56.139591 
L 211.983598 58.135181 
L 205.076054 59.132976 
L 198.168511 58.135181 
L 191.260967 57.137386 
L 184.353424 58.135181 
L 177.44588 59.132976 
L 170.538337 60.130772 
L 163.630793 60.130772 
L 156.72325 59.132976 
L 149.815706 60.130772 
L 142.908162 61.128567 
L 136.000619 58.135181 
L 129.093075 60.130772 
L 122.185532 63.124157 
L 115.277988 61.128567 
L 108.370445 64.121953 
L 101.462901 63.124157 
L 94.555358 60.130772 
L 87.647814 63.124157 
L 80.740271 62.126362 
L 73.832727 59.132976 
z
" clip-path="url(#pcd61708bd8)" style="fill: #d62728"/>
   </g>
   <g id="PolyCollection_25">
    <path d="M 73.832727 58.135181 
L 73.832727 59.132976 
L 80.740271 62.126362 
L 87.647814 63.124157 
L 94.555358 60.130772 
L 101.462901 63.124157 
L 108.370445 64.121953 
L 115.277988 61.128567 
L 122.185532 63.124157 
L 129.093075 60.130772 
L 136.000619 58.135181 
L 142.908162 61.128567 
L 149.815706 60.130772 
L 156.72325 59.132976 
L 163.630793 60.130772 
L 170.538337 60.130772 
L 177.44588 59.132976 
L 184.353424 58.135181 
L 191.260967 57.137386 
L 198.168511 58.135181 
L 205.076054 59.132976 
L 211.983598 58.135181 
L 218.891141 56.139591 
L 225.798685 56.139591 
L 232.706228 61.128567 
L 239.613772 59.132976 
L 246.521315 58.135181 
L 253.428859 62.126362 
L 260.336402 60.130772 
L 267.243946 65.119748 
L 274.151489 62.126362 
L 281.059033 60.130772 
L 287.966576 60.130772 
L 294.87412 59.132976 
L 301.781663 60.130772 
L 308.689207 57.137386 
L 315.59675 58.135181 
L 322.504294 58.135181 
L 329.411838 59.132976 
L 336.319381 59.132976 
L 343.226925 57.137386 
L 350.134468 58.135181 
L 357.042012 57.137386 
L 363.949555 58.135181 
L 370.857099 59.132976 
L 377.764642 62.126362 
L 384.672186 60.130772 
L 391.579729 62.126362 
L 398.487273 64.121953 
L 398.487273 64.121953 
L 398.487273 64.121953 
L 391.579729 62.126362 
L 384.672186 60.130772 
L 377.764642 62.126362 
L 370.857099 59.132976 
L 363.949555 58.135181 
L 357.042012 57.137386 
L 350.134468 58.135181 
L 343.226925 57.137386 
L 336.319381 59.132976 
L 329.411838 59.132976 
L 322.504294 58.135181 
L 315.59675 56.139591 
L 308.689207 55.141795 
L 301.781663 58.135181 
L 294.87412 57.137386 
L 287.966576 58.135181 
L 281.059033 58.135181 
L 274.151489 60.130772 
L 267.243946 62.126362 
L 260.336402 58.135181 
L 253.428859 60.130772 
L 246.521315 56.139591 
L 239.613772 56.139591 
L 232.706228 59.132976 
L 225.798685 54.144 
L 218.891141 54.144 
L 211.983598 56.139591 
L 205.076054 57.137386 
L 198.168511 56.139591 
L 191.260967 55.141795 
L 184.353424 55.141795 
L 177.44588 57.137386 
L 170.538337 58.135181 
L 163.630793 58.135181 
L 156.72325 58.135181 
L 149.815706 58.135181 
L 142.908162 59.132976 
L 136.000619 55.141795 
L 129.093075 57.137386 
L 122.185532 61.128567 
L 115.277988 59.132976 
L 108.370445 60.130772 
L 101.462901 60.130772 
L 94.555358 56.139591 
L 87.647814 57.137386 
L 80.740271 59.132976 
L 73.832727 58.135181 
z
" clip-path="url(#pcd61708bd8)" style="fill: #9467bd"/>
   </g>
   <g id="PolyCollection_26">
    <path d="M 73.832727 58.135181 
L 73.832727 58.135181 
L 80.740271 59.132976 
L 87.647814 57.137386 
L 94.555358 56.139591 
L 101.462901 60.130772 
L 108.370445 60.130772 
L 115.277988 59.132976 
L 122.185532 61.128567 
L 129.093075 57.137386 
L 136.000619 55.141795 
L 142.908162 59.132976 
L 149.815706 58.135181 
L 156.72325 58.135181 
L 163.630793 58.135181 
L 170.538337 58.135181 
L 177.44588 57.137386 
L 184.353424 55.141795 
L 191.260967 55.141795 
L 198.168511 56.139591 
L 205.076054 57.137386 
L 211.983598 56.139591 
L 218.891141 54.144 
L 225.798685 54.144 
L 232.706228 59.132976 
L 239.613772 56.139591 
L 246.521315 56.139591 
L 253.428859 60.130772 
L 260.336402 58.135181 
L 267.243946 62.126362 
L 274.151489 60.130772 
L 281.059033 58.135181 
L 287.966576 58.135181 
L 294.87412 57.137386 
L 301.781663 58.135181 
L 308.689207 55.141795 
L 315.59675 56.139591 
L 322.504294 58.135181 
L 329.411838 59.132976 
L 336.319381 59.132976 
L 343.226925 57.137386 
L 350.134468 58.135181 
L 357.042012 57.137386 
L 363.949555 58.135181 
L 370.857099 59.132976 
L 377.764642 62.126362 
L 384.672186 60.130772 
L 391.579729 62.126362 
L 398.487273 64.121953 
L 398.487273 62.126362 
L 398.487273 62.126362 
L 391.579729 57.137386 
L 384.672186 58.135181 
L 377.764642 60.130772 
L 370.857099 59.132976 
L 363.949555 58.135181 
L 357.042012 57.137386 
L 350.134468 58.135181 
L 343.226925 57.137386 
L 336.319381 59.132976 
L 329.411838 59.132976 
L 322.504294 58.135181 
L 315.59675 56.139591 
L 308.689207 55.141795 
L 301.781663 58.135181 
L 294.87412 57.137386 
L 287.966576 58.135181 
L 281.059033 58.135181 
L 274.151489 60.130772 
L 267.243946 62.126362 
L 260.336402 58.135181 
L 253.428859 60.130772 
L 246.521315 56.139591 
L 239.613772 56.139591 
L 232.706228 59.132976 
L 225.798685 54.144 
L 218.891141 54.144 
L 211.983598 56.139591 
L 205.076054 57.137386 
L 198.168511 56.139591 
L 191.260967 55.141795 
L 184.353424 55.141795 
L 177.44588 57.137386 
L 170.538337 58.135181 
L 163.630793 58.135181 
L 156.72325 58.135181 
L 149.815706 58.135181 
L 142.908162 59.132976 
L 136.000619 55.141795 
L 129.093075 57.137386 
L 122.185532 61.128567 
L 115.277988 59.132976 
L 108.370445 60.130772 
L 101.462901 60.130772 
L 94.555358 56.139591 
L 87.647814 57.137386 
L 80.740271 59.132976 
L 73.832727 58.135181 
z
" clip-path="url(#pcd61708bd8)" style="fill: #8c564b"/>
   </g>
   <g id="PolyCollection_27">
    <path d="M 73.832727 58.135181 
L 73.832727 58.135181 
L 80.740271 59.132976 
L 87.647814 57.137386 
L 94.555358 56.139591 
L 101.462901 60.130772 
L 108.370445 60.130772 
L 115.277988 59.132976 
L 122.185532 61.128567 
L 129.093075 57.137386 
L 136.000619 55.141795 
L 142.908162 59.132976 
L 149.815706 58.135181 
L 156.72325 58.135181 
L 163.630793 58.135181 
L 170.538337 58.135181 
L 177.44588 57.137386 
L 184.353424 55.141795 
L 191.260967 55.141795 
L 198.168511 56.139591 
L 205.076054 57.137386 
L 211.983598 56.139591 
L 218.891141 54.144 
L 225.798685 54.144 
L 232.706228 59.132976 
L 239.613772 56.139591 
L 246.521315 56.139591 
L 253.428859 60.130772 
L 260.336402 58.135181 
L 267.243946 62.126362 
L 274.151489 60.130772 
L 281.059033 58.135181 
L 287.966576 58.135181 
L 294.87412 57.137386 
L 301.781663 58.135181 
L 308.689207 55.141795 
L 315.59675 56.139591 
L 322.504294 58.135181 
L 329.411838 59.132976 
L 336.319381 59.132976 
L 343.226925 57.137386 
L 350.134468 58.135181 
L 357.042012 57.137386 
L 363.949555 58.135181 
L 370.857099 59.132976 
L 377.764642 60.130772 
L 384.672186 58.135181 
L 391.579729 57.137386 
L 398.487273 62.126362 
L 398.487273 58.135181 
L 398.487273 58.135181 
L 391.579729 57.137386 
L 384.672186 58.135181 
L 377.764642 60.130772 
L 370.857099 59.132976 
L 363.949555 58.135181 
L 357.042012 57.137386 
L 350.134468 58.135181 
L 343.226925 57.137386 
L 336.319381 59.132976 
L 329.411838 59.132976 
L 322.504294 58.135181 
L 315.59675 56.139591 
L 308.689207 55.141795 
L 301.781663 58.135181 
L 294.87412 57.137386 
L 287.966576 58.135181 
L 281.059033 58.135181 
L 274.151489 60.130772 
L 267.243946 62.126362 
L 260.336402 58.135181 
L 253.428859 60.130772 
L 246.521315 56.139591 
L 239.613772 56.139591 
L 232.706228 59.132976 
L 225.798685 54.144 
L 218.891141 54.144 
L 211.983598 56.139591 
L 205.076054 57.137386 
L 198.168511 56.139591 
L 191.260967 55.141795 
L 184.353424 55.141795 
L 177.44588 57.137386 
L 170.538337 58.135181 
L 163.630793 58.135181 
L 156.72325 58.135181 
L 149.815706 58.135181 
L 142.908162 59.132976 
L 136.000619 55.141795 
L 129.093075 57.137386 
L 122.185532 61.128567 
L 115.277988 59.132976 
L 108.370445 60.130772 
L 101.462901 60.130772 
L 94.555358 56.139591 
L 87.647814 57.137386 
L 80.740271 59.132976 
L 73.832727 58.135181 
z
" clip-path="url(#pcd61708bd8)" style="fill: #e377c2"/>
   </g>
   <g id="matplotlib.axis_1">
    <g id="xtick_1">
     <g id="line2d_1">
      <defs>
       <path id="m05b321a6e5" d="M 0 0 
L 0 3.5 
" style="stroke: #000000; stroke-width: 0.8"/>
      </defs>
      <g>
       <use xlink:href="#m05b321a6e5" x="73.832727" y="307.584" style="stroke: #000000; stroke-width: 0.8"/>
      </g>
     </g>
     <g id="text_1">
      <!-- 0 -->
      <g transform="translate(70.651477 322.182437) scale(0.1 -0.1)">
       <defs>
        <path id="DejaVuSans-30" d="M 2034 4250 
Q 1547 4250 1301 3770 
Q 1056 3291 1056 2328 
Q 1056 1369 1301 889 
Q 1547 409 2034 409 
Q 2525 409 2770 889 
Q 3016 1369 3016 2328 
Q 3016 3291 2770 3770 
Q 2525 4250 2034 4250 
z
M 2034 4750 
Q 2819 4750 3233 4129 
Q 3647 3509 3647 2328 
Q 3647 1150 3233 529 
Q 2819 -91 2034 -91 
Q 1250 -91 836 529 
Q 422 1150 422 2328 
Q 422 3509 836 4129 
Q 1250 4750 2034 4750 
z
" transform="scale(0.015625)"/>
       </defs>
       <use xlink:href="#DejaVuSans-30"/>
      </g>
     </g>
    </g>
    <g id="xtick_2">
     <g id="line2d_2">
      <g>
       <use xlink:href="#m05b321a6e5" x="142.908162" y="307.584" style="stroke: #000000; stroke-width: 0.8"/>
      </g>
     </g>
     <g id="text_2">
      <!-- 10 -->
      <g transform="translate(136.545662 322.182437) scale(0.1 -0.1)">
       <defs>
        <path id="DejaVuSans-31" d="M 794 531 
L 1825 531 
L 1825 4091 
L 703 3866 
L 703 4441 
L 1819 4666 
L 2450 4666 
L 2450 531 
L 3481 531 
L 3481 0 
L 794 0 
L 794 531 
z
" transform="scale(0.015625)"/>
       </defs>
       <use xlink:href="#DejaVuSans-31"/>
       <use xlink:href="#DejaVuSans-30" x="63.623047"/>
      </g>
     </g>
    </g>
    <g id="xtick_3">
     <g id="line2d_3">
      <g>
       <use xlink:href="#m05b321a6e5" x="211.983598" y="307.584" style="stroke: #000000; stroke-width: 0.8"/>
      </g>
     </g>
     <g id="text_3">
      <!-- 20 -->
      <g transform="translate(205.621098 322.182437) scale(0.1 -0.1)">
       <defs>
        <path id="DejaVuSans-32" d="M 1228 531 
L 3431 531 
L 3431 0 
L 469 0 
L 469 531 
Q 828 903 1448 1529 
Q 2069 2156 2228 2338 
Q 2531 2678 2651 2914 
Q 2772 3150 2772 3378 
Q 2772 3750 2511 3984 
Q 2250 4219 1831 4219 
Q 1534 4219 1204 4116 
Q 875 4013 500 3803 
L 500 4441 
Q 881 4594 1212 4672 
Q 1544 4750 1819 4750 
Q 2544 4750 2975 4387 
Q 3406 4025 3406 3419 
Q 3406 3131 3298 2873 
Q 3191 2616 2906 2266 
Q 2828 2175 2409 1742 
Q 1991 1309 1228 531 
z
" transform="scale(0.015625)"/>
       </defs>
       <use xlink:href="#DejaVuSans-32"/>
       <use xlink:href="#DejaVuSans-30" x="63.623047"/>
      </g>
     </g>
    </g>
    <g id="xtick_4">
     <g id="line2d_4">
      <g>
       <use xlink:href="#m05b321a6e5" x="281.059033" y="307.584" style="stroke: #000000; stroke-width: 0.8"/>
      </g>
     </g>
     <g id="text_4">
      <!-- 30 -->
      <g transform="translate(274.696533 322.182437) scale(0.1 -0.1)">
       <defs>
        <path id="DejaVuSans-33" d="M 2597 2516 
Q 3050 2419 3304 2112 
Q 3559 1806 3559 1356 
Q 3559 666 3084 287 
Q 2609 -91 1734 -91 
Q 1441 -91 1130 -33 
Q 819 25 488 141 
L 488 750 
Q 750 597 1062 519 
Q 1375 441 1716 441 
Q 2309 441 2620 675 
Q 2931 909 2931 1356 
Q 2931 1769 2642 2001 
Q 2353 2234 1838 2234 
L 1294 2234 
L 1294 2753 
L 1863 2753 
Q 2328 2753 2575 2939 
Q 2822 3125 2822 3475 
Q 2822 3834 2567 4026 
Q 2313 4219 1838 4219 
Q 1578 4219 1281 4162 
Q 984 4106 628 3988 
L 628 4550 
Q 988 4650 1302 4700 
Q 1616 4750 1894 4750 
Q 2613 4750 3031 4423 
Q 3450 4097 3450 3541 
Q 3450 3153 3228 2886 
Q 3006 2619 2597 2516 
z
" transform="scale(0.015625)"/>
       </defs>
       <use xlink:href="#DejaVuSans-33"/>
       <use xlink:href="#DejaVuSans-30" x="63.623047"/>
      </g>
     </g>
    </g>
    <g id="xtick_5">
     <g id="line2d_5">
      <g>
       <use xlink:href="#m05b321a6e5" x="350.134468" y="307.584" style="stroke: #000000; stroke-width: 0.8"/>
      </g>
     </g>
     <g id="text_5">
      <!-- 40 -->
      <g transform="translate(343.771968 322.182437) scale(0.1 -0.1)">
       <defs>
        <path id="DejaVuSans-34" d="M 2419 4116 
L 825 1625 
L 2419 1625 
L 2419 4116 
z
M 2253 4666 
L 3047 4666 
L 3047 1625 
L 3713 1625 
L 3713 1100 
L 3047 1100 
L 3047 0 
L 2419 0 
L 2419 1100 
L 313 1100 
L 313 1709 
L 2253 4666 
z
" transform="scale(0.015625)"/>
       </defs>
       <use xlink:href="#DejaVuSans-34"/>
       <use xlink:href="#DejaVuSans-30" x="63.623047"/>
      </g>
     </g>
    </g>
    <g id="text_6">
     <!-- Generations -->
     <g transform="translate(205.662344 335.860562) scale(0.1 -0.1)">
      <defs>
       <path id="DejaVuSans-47" d="M 3809 666 
L 3809 1919 
L 2778 1919 
L 2778 2438 
L 4434 2438 
L 4434 434 
Q 4069 175 3628 42 
Q 3188 -91 2688 -91 
Q 1594 -91 976 548 
Q 359 1188 359 2328 
Q 359 3472 976 4111 
Q 1594 4750 2688 4750 
Q 3144 4750 3555 4637 
Q 3966 4525 4313 4306 
L 4313 3634 
Q 3963 3931 3569 4081 
Q 3175 4231 2741 4231 
Q 1884 4231 1454 3753 
Q 1025 3275 1025 2328 
Q 1025 1384 1454 906 
Q 1884 428 2741 428 
Q 3075 428 3337 486 
Q 3600 544 3809 666 
z
" transform="scale(0.015625)"/>
       <path id="DejaVuSans-65" d="M 3597 1894 
L 3597 1613 
L 953 1613 
Q 991 1019 1311 708 
Q 1631 397 2203 397 
Q 2534 397 2845 478 
Q 3156 559 3463 722 
L 3463 178 
Q 3153 47 2828 -22 
Q 2503 -91 2169 -91 
Q 1331 -91 842 396 
Q 353 884 353 1716 
Q 353 2575 817 3079 
Q 1281 3584 2069 3584 
Q 2775 3584 3186 3129 
Q 3597 2675 3597 1894 
z
M 3022 2063 
Q 3016 2534 2758 2815 
Q 2500 3097 2075 3097 
Q 1594 3097 1305 2825 
Q 1016 2553 972 2059 
L 3022 2063 
z
" transform="scale(0.015625)"/>
       <path id="DejaVuSans-6e" d="M 3513 2113 
L 3513 0 
L 2938 0 
L 2938 2094 
Q 2938 2591 2744 2837 
Q 2550 3084 2163 3084 
Q 1697 3084 1428 2787 
Q 1159 2491 1159 1978 
L 1159 0 
L 581 0 
L 581 3500 
L 1159 3500 
L 1159 2956 
Q 1366 3272 1645 3428 
Q 1925 3584 2291 3584 
Q 2894 3584 3203 3211 
Q 3513 2838 3513 2113 
z
" transform="scale(0.015625)"/>
       <path id="DejaVuSans-72" d="M 2631 2963 
Q 2534 3019 2420 3045 
Q 2306 3072 2169 3072 
Q 1681 3072 1420 2755 
Q 1159 2438 1159 1844 
L 1159 0 
L 581 0 
L 581 3500 
L 1159 3500 
L 1159 2956 
Q 1341 3275 1631 3429 
Q 1922 3584 2338 3584 
Q 2397 3584 2469 3576 
Q 2541 3569 2628 3553 
L 2631 2963 
z
" transform="scale(0.015625)"/>
       <path id="DejaVuSans-61" d="M 2194 1759 
Q 1497 1759 1228 1600 
Q 959 1441 959 1056 
Q 959 750 1161 570 
Q 1363 391 1709 391 
Q 2188 391 2477 730 
Q 2766 1069 2766 1631 
L 2766 1759 
L 2194 1759 
z
M 3341 1997 
L 3341 0 
L 2766 0 
L 2766 531 
Q 2569 213 2275 61 
Q 1981 -91 1556 -91 
Q 1019 -91 701 211 
Q 384 513 384 1019 
Q 384 1609 779 1909 
Q 1175 2209 1959 2209 
L 2766 2209 
L 2766 2266 
Q 2766 2663 2505 2880 
Q 2244 3097 1772 3097 
Q 1472 3097 1187 3025 
Q 903 2953 641 2809 
L 641 3341 
Q 956 3463 1253 3523 
Q 1550 3584 1831 3584 
Q 2591 3584 2966 3190 
Q 3341 2797 3341 1997 
z
" transform="scale(0.015625)"/>
       <path id="DejaVuSans-74" d="M 1172 4494 
L 1172 3500 
L 2356 3500 
L 2356 3053 
L 1172 3053 
L 1172 1153 
Q 1172 725 1289 603 
Q 1406 481 1766 481 
L 2356 481 
L 2356 0 
L 1766 0 
Q 1100 0 847 248 
Q 594 497 594 1153 
L 594 3053 
L 172 3053 
L 172 3500 
L 594 3500 
L 594 4494 
L 1172 4494 
z
" transform="scale(0.015625)"/>
       <path id="DejaVuSans-69" d="M 603 3500 
L 1178 3500 
L 1178 0 
L 603 0 
L 603 3500 
z
M 603 4863 
L 1178 4863 
L 1178 4134 
L 603 4134 
L 603 4863 
z
" transform="scale(0.015625)"/>
       <path id="DejaVuSans-6f" d="M 1959 3097 
Q 1497 3097 1228 2736 
Q 959 2375 959 1747 
Q 959 1119 1226 758 
Q 1494 397 1959 397 
Q 2419 397 2687 759 
Q 2956 1122 2956 1747 
Q 2956 2369 2687 2733 
Q 2419 3097 1959 3097 
z
M 1959 3584 
Q 2709 3584 3137 3096 
Q 3566 2609 3566 1747 
Q 3566 888 3137 398 
Q 2709 -91 1959 -91 
Q 1206 -91 779 398 
Q 353 888 353 1747 
Q 353 2609 779 3096 
Q 1206 3584 1959 3584 
z
" transform="scale(0.015625)"/>
       <path id="DejaVuSans-73" d="M 2834 3397 
L 2834 2853 
Q 2591 2978 2328 3040 
Q 2066 3103 1784 3103 
Q 1356 3103 1142 2972 
Q 928 2841 928 2578 
Q 928 2378 1081 2264 
Q 1234 2150 1697 2047 
L 1894 2003 
Q 2506 1872 2764 1633 
Q 3022 1394 3022 966 
Q 3022 478 2636 193 
Q 2250 -91 1575 -91 
Q 1294 -91 989 -36 
Q 684 19 347 128 
L 347 722 
Q 666 556 975 473 
Q 1284 391 1588 391 
Q 1994 391 2212 530 
Q 2431 669 2431 922 
Q 2431 1156 2273 1281 
Q 2116 1406 1581 1522 
L 1381 1569 
Q 847 1681 609 1914 
Q 372 2147 372 2553 
Q 372 3047 722 3315 
Q 1072 3584 1716 3584 
Q 2034 3584 2315 3537 
Q 2597 3491 2834 3397 
z
" transform="scale(0.015625)"/>
      </defs>
      <use xlink:href="#DejaVuSans-47"/>
      <use xlink:href="#DejaVuSans-65" x="77.490234"/>
      <use xlink:href="#DejaVuSans-6e" x="139.013672"/>
      <use xlink:href="#DejaVuSans-65" x="202.392578"/>
      <use xlink:href="#DejaVuSans-72" x="263.916016"/>
      <use xlink:href="#DejaVuSans-61" x="305.029297"/>
      <use xlink:href="#DejaVuSans-74" x="366.308594"/>
      <use xlink:href="#DejaVuSans-69" x="405.517578"/>
      <use xlink:href="#DejaVuSans-6f" x="433.300781"/>
      <use xlink:href="#DejaVuSans-6e" x="494.482422"/>
      <use xlink:href="#DejaVuSans-73" x="557.861328"/>
     </g>
    </g>
   </g>
   <g id="matplotlib.axis_2">
    <g id="ytick_1">
     <g id="line2d_6">
      <defs>
       <path id="md47854d6af" d="M 0 0 
L -3.5 0 
" style="stroke: #000000; stroke-width: 0.8"/>
      </defs>
      <g>
       <use xlink:href="#md47854d6af" x="57.6" y="307.584" style="stroke: #000000; stroke-width: 0.8"/>
      </g>
     </g>
     <g id="text_7">
      <!-- 0 -->
      <g transform="translate(44.2375 311.383219) scale(0.1 -0.1)">
       <use xlink:href="#DejaVuSans-30"/>
      </g>
     </g>
    </g>
    <g id="ytick_2">
     <g id="line2d_7">
      <g>
       <use xlink:href="#md47854d6af" x="57.6" y="257.694236" style="stroke: #000000; stroke-width: 0.8"/>
      </g>
     </g>
     <g id="text_8">
      <!-- 50 -->
      <g transform="translate(37.875 261.493455) scale(0.1 -0.1)">
       <defs>
        <path id="DejaVuSans-35" d="M 691 4666 
L 3169 4666 
L 3169 4134 
L 1269 4134 
L 1269 2991 
Q 1406 3038 1543 3061 
Q 1681 3084 1819 3084 
Q 2600 3084 3056 2656 
Q 3513 2228 3513 1497 
Q 3513 744 3044 326 
Q 2575 -91 1722 -91 
Q 1428 -91 1123 -41 
Q 819 9 494 109 
L 494 744 
Q 775 591 1075 516 
Q 1375 441 1709 441 
Q 2250 441 2565 725 
Q 2881 1009 2881 1497 
Q 2881 1984 2565 2268 
Q 2250 2553 1709 2553 
Q 1456 2553 1204 2497 
Q 953 2441 691 2322 
L 691 4666 
z
" transform="scale(0.015625)"/>
       </defs>
       <use xlink:href="#DejaVuSans-35"/>
       <use xlink:href="#DejaVuSans-30" x="63.623047"/>
      </g>
     </g>
    </g>
    <g id="ytick_3">
     <g id="line2d_8">
      <g>
       <use xlink:href="#md47854d6af" x="57.6" y="207.804472" style="stroke: #000000; stroke-width: 0.8"/>
      </g>
     </g>
     <g id="text_9">
      <!-- 100 -->
      <g transform="translate(31.5125 211.603691) scale(0.1 -0.1)">
       <use xlink:href="#DejaVuSans-31"/>
       <use xlink:href="#DejaVuSans-30" x="63.623047"/>
       <use xlink:href="#DejaVuSans-30" x="127.246094"/>
      </g>
     </g>
    </g>
    <g id="ytick_4">
     <g id="line2d_9">
      <g>
       <use xlink:href="#md47854d6af" x="57.6" y="157.914709" style="stroke: #000000; stroke-width: 0.8"/>
      </g>
     </g>
     <g id="text_10">
      <!-- 150 -->
      <g transform="translate(31.5125 161.713927) scale(0.1 -0.1)">
       <use xlink:href="#DejaVuSans-31"/>
       <use xlink:href="#DejaVuSans-35" x="63.623047"/>
       <use xlink:href="#DejaVuSans-30" x="127.246094"/>
      </g>
     </g>
    </g>
    <g id="ytick_5">
     <g id="line2d_10">
      <g>
       <use xlink:href="#md47854d6af" x="57.6" y="108.024945" style="stroke: #000000; stroke-width: 0.8"/>
      </g>
     </g>
     <g id="text_11">
      <!-- 200 -->
      <g transform="translate(31.5125 111.824164) scale(0.1 -0.1)">
       <use xlink:href="#DejaVuSans-32"/>
       <use xlink:href="#DejaVuSans-30" x="63.623047"/>
       <use xlink:href="#DejaVuSans-30" x="127.246094"/>
      </g>
     </g>
    </g>
    <g id="ytick_6">
     <g id="line2d_11">
      <g>
       <use xlink:href="#md47854d6af" x="57.6" y="58.135181" style="stroke: #000000; stroke-width: 0.8"/>
      </g>
     </g>
     <g id="text_12">
      <!-- 250 -->
      <g transform="translate(31.5125 61.9344) scale(0.1 -0.1)">
       <use xlink:href="#DejaVuSans-32"/>
       <use xlink:href="#DejaVuSans-35" x="63.623047"/>
       <use xlink:href="#DejaVuSans-30" x="127.246094"/>
      </g>
     </g>
    </g>
    <g id="text_13">
     <!-- Size per Species -->
     <g transform="translate(25.432812 215.520969) rotate(-90) scale(0.1 -0.1)">
      <defs>
       <path id="DejaVuSans-53" d="M 3425 4513 
L 3425 3897 
Q 3066 4069 2747 4153 
Q 2428 4238 2131 4238 
Q 1616 4238 1336 4038 
Q 1056 3838 1056 3469 
Q 1056 3159 1242 3001 
Q 1428 2844 1947 2747 
L 2328 2669 
Q 3034 2534 3370 2195 
Q 3706 1856 3706 1288 
Q 3706 609 3251 259 
Q 2797 -91 1919 -91 
Q 1588 -91 1214 -16 
Q 841 59 441 206 
L 441 856 
Q 825 641 1194 531 
Q 1563 422 1919 422 
Q 2459 422 2753 634 
Q 3047 847 3047 1241 
Q 3047 1584 2836 1778 
Q 2625 1972 2144 2069 
L 1759 2144 
Q 1053 2284 737 2584 
Q 422 2884 422 3419 
Q 422 4038 858 4394 
Q 1294 4750 2059 4750 
Q 2388 4750 2728 4690 
Q 3069 4631 3425 4513 
z
" transform="scale(0.015625)"/>
       <path id="DejaVuSans-7a" d="M 353 3500 
L 3084 3500 
L 3084 2975 
L 922 459 
L 3084 459 
L 3084 0 
L 275 0 
L 275 525 
L 2438 3041 
L 353 3041 
L 353 3500 
z
" transform="scale(0.015625)"/>
       <path id="DejaVuSans-20" transform="scale(0.015625)"/>
       <path id="DejaVuSans-70" d="M 1159 525 
L 1159 -1331 
L 581 -1331 
L 581 3500 
L 1159 3500 
L 1159 2969 
Q 1341 3281 1617 3432 
Q 1894 3584 2278 3584 
Q 2916 3584 3314 3078 
Q 3713 2572 3713 1747 
Q 3713 922 3314 415 
Q 2916 -91 2278 -91 
Q 1894 -91 1617 61 
Q 1341 213 1159 525 
z
M 3116 1747 
Q 3116 2381 2855 2742 
Q 2594 3103 2138 3103 
Q 1681 3103 1420 2742 
Q 1159 2381 1159 1747 
Q 1159 1113 1420 752 
Q 1681 391 2138 391 
Q 2594 391 2855 752 
Q 3116 1113 3116 1747 
z
" transform="scale(0.015625)"/>
       <path id="DejaVuSans-63" d="M 3122 3366 
L 3122 2828 
Q 2878 2963 2633 3030 
Q 2388 3097 2138 3097 
Q 1578 3097 1268 2742 
Q 959 2388 959 1747 
Q 959 1106 1268 751 
Q 1578 397 2138 397 
Q 2388 397 2633 464 
Q 2878 531 3122 666 
L 3122 134 
Q 2881 22 2623 -34 
Q 2366 -91 2075 -91 
Q 1284 -91 818 406 
Q 353 903 353 1747 
Q 353 2603 823 3093 
Q 1294 3584 2113 3584 
Q 2378 3584 2631 3529 
Q 2884 3475 3122 3366 
z
" transform="scale(0.015625)"/>
      </defs>
      <use xlink:href="#DejaVuSans-53"/>
      <use xlink:href="#DejaVuSans-69" x="63.476562"/>
      <use xlink:href="#DejaVuSans-7a" x="91.259766"/>
      <use xlink:href="#DejaVuSans-65" x="143.75"/>
      <use xlink:href="#DejaVuSans-20" x="205.273438"/>
      <use xlink:href="#DejaVuSans-70" x="237.060547"/>
      <use xlink:href="#DejaVuSans-65" x="300.537109"/>
      <use xlink:href="#DejaVuSans-72" x="362.060547"/>
      <use xlink:href="#DejaVuSans-20" x="403.173828"/>
      <use xlink:href="#DejaVuSans-53" x="434.960938"/>
      <use xlink:href="#DejaVuSans-70" x="498.4375"/>
      <use xlink:href="#DejaVuSans-65" x="561.914062"/>
      <use xlink:href="#DejaVuSans-63" x="623.4375"/>
      <use xlink:href="#DejaVuSans-69" x="678.417969"/>
      <use xlink:href="#DejaVuSans-65" x="706.201172"/>
      <use xlink:href="#DejaVuSans-73" x="767.724609"/>
     </g>
    </g>
   </g>
   <g id="patch_3">
    <path d="M 57.6 307.584 
L 57.6 41.472 
" style="fill: none; stroke: #000000; stroke-width: 0.8; stroke-linejoin: miter; stroke-linecap: square"/>
   </g>
   <g id="patch_4">
    <path d="M 414.72 307.584 
L 414.72 41.472 
" style="fill: none; stroke: #000000; stroke-width: 0.8; stroke-linejoin: miter; stroke-linecap: square"/>
   </g>
   <g id="patch_5">
    <path d="M 57.6 307.584 
L 414.72 307.584 
" style="fill: none; stroke: #000000; stroke-width: 0.8; stroke-linejoin: miter; stroke-linecap: square"/>
   </g>
   <g id="patch_6">
    <path d="M 57.6 41.472 
L 414.72 41.472 
" style="fill: none; stroke: #000000; stroke-width: 0.8; stroke-linejoin: miter; stroke-linecap: square"/>
   </g>
   <g id="text_14">
    <!-- Speciation -->
    <g transform="translate(204.714375 35.472) scale(0.12 -0.12)">
     <use xlink:href="#DejaVuSans-53"/>
     <use xlink:href="#DejaVuSans-70" x="63.476562"/>
     <use xlink:href="#DejaVuSans-65" x="126.953125"/>
     <use xlink:href="#DejaVuSans-63" x="188.476562"/>
     <use xlink:href="#DejaVuSans-69" x="243.457031"/>
     <use xlink:href="#DejaVuSans-61" x="271.240234"/>
     <use xlink:href="#DejaVuSans-74" x="332.519531"/>
     <use xlink:href="#DejaVuSans-69" x="371.728516"/>
     <use xlink:href="#DejaVuSans-6f" x="399.511719"/>
     <use xlink:href="#DejaVuSans-6e" x="460.693359"/>
    </g>
   </g>
  </g>
 </g>
 <defs>
  <clipPath id="pcd61708bd8">
   <rect x="57.6" y="41.472" width="357.12" height="266.112"/>
  </clipPath>
 </defs>
</svg>
