<?xml version="1.0" encoding="UTF-8" standalone="no"?>
<!DOCTYPE svg PUBLIC "-//W3C//DTD SVG 1.1//EN"
 "http://www.w3.org/Graphics/SVG/1.1/DTD/svg11.dtd">
<!-- Generated by graphviz version 2.43.0 (0)
 -->
<!-- Title: %3 Pages: 1 -->
<svg width="201pt" height="133pt"
 viewBox="0.00 0.00 200.50 132.71" xmlns="http://www.w3.org/2000/svg" xmlns:xlink="http://www.w3.org/1999/xlink">
<g id="graph0" class="graph" transform="scale(1 1) rotate(0) translate(4 128.71)">
<title>%3</title>
<polygon fill="white" stroke="transparent" points="-4,4 -4,-128.71 196.5,-128.71 196.5,4 -4,4"/>
<!-- x -->
<g id="node1" class="node">
<title>x</title>
<polygon fill="lightgray" stroke="black" points="22,-124.71 0,-124.71 0,-106.71 22,-106.71 22,-124.71"/>
<text text-anchor="middle" x="11" y="-113.51" font-family="Times,serif" font-size="9.00">x</text>
</g>
<!-- dx -->
<g id="node2" class="node">
<title>dx</title>
<polygon fill="lightgray" stroke="black" points="68,-124.71 40,-124.71 40,-106.71 68,-106.71 68,-124.71"/>
<text text-anchor="middle" x="54" y="-113.51" font-family="Times,serif" font-size="9.00">dx</text>
</g>
<!-- control -->
<g id="node5" class="node">
<title>control</title>
<ellipse fill="lightblue" stroke="black" cx="107" cy="-35.36" rx="35.21" ry="35.21"/>
<text text-anchor="middle" x="107" y="-33.16" font-family="Times,serif" font-size="9.00">control</text>
</g>
<!-- dx&#45;&gt;control -->
<g id="edge3" class="edge">
<title>dx&#45;&gt;control</title>
<path fill="none" stroke="green" stroke-width="0.39" d="M59.47,-106.62C64.84,-98.68 73.43,-85.98 81.84,-73.55"/>
<polygon fill="green" stroke="green" stroke-width="0.39" points="84.89,-75.29 87.6,-65.04 79.09,-71.37 84.89,-75.29"/>
</g>
<!-- theta -->
<g id="node3" class="node">
<title>theta</title>
<polygon fill="lightgray" stroke="black" points="127.5,-124.71 86.5,-124.71 86.5,-106.71 127.5,-106.71 127.5,-124.71"/>
<text text-anchor="middle" x="107" y="-113.51" font-family="Times,serif" font-size="9.00">theta</text>
</g>
<!-- theta&#45;&gt;control -->
<g id="edge2" class="edge">
<title>theta&#45;&gt;control</title>
<path fill="none" stroke="green" stroke-width="0.19" d="M107,-106.62C107,-100.29 107,-90.95 107,-81.13"/>
<polygon fill="green" stroke="green" stroke-width="0.19" points="110.5,-80.82 107,-70.82 103.5,-80.82 110.5,-80.82"/>
</g>
<!-- dtheta -->
<g id="node4" class="node">
<title>dtheta</title>
<polygon fill="lightgray" stroke="black" points="192.5,-124.71 145.5,-124.71 145.5,-106.71 192.5,-106.71 192.5,-124.71"/>
<text text-anchor="middle" x="169" y="-113.51" font-family="Times,serif" font-size="9.00">dtheta</text>
</g>
<!-- dtheta&#45;&gt;control -->
<g id="edge1" class="edge">
<title>dtheta&#45;&gt;control</title>
<path fill="none" stroke="green" stroke-width="0.67" d="M162.6,-106.62C155.99,-98.27 145.21,-84.65 134.9,-71.62"/>
<polygon fill="green" stroke="green" stroke-width="0.67" points="137.53,-69.3 128.58,-63.63 132.04,-73.64 137.53,-69.3"/>
</g>
</g>
</svg>
