<?xml version="1.0" encoding="UTF-8" standalone="no"?>
<!DOCTYPE svg PUBLIC "-//W3C//DTD SVG 1.1//EN"
 "http://www.w3.org/Graphics/SVG/1.1/DTD/svg11.dtd">
<!-- Generated by graphviz version 2.43.0 (0)
 -->
<!-- Title: %3 Pages: 1 -->
<svg width="214pt" height="218pt"
 viewBox="0.00 0.00 213.50 218.21" xmlns="http://www.w3.org/2000/svg" xmlns:xlink="http://www.w3.org/1999/xlink">
<g id="graph0" class="graph" transform="scale(1 1) rotate(0) translate(4 214.21)">
<title>%3</title>
<polygon fill="white" stroke="transparent" points="-4,4 -4,-214.21 209.5,-214.21 209.5,4 -4,4"/>
<!-- x -->
<g id="node1" class="node">
<title>x</title>
<polygon fill="lightgray" stroke="black" points="22,-210.21 0,-210.21 0,-192.21 22,-192.21 22,-210.21"/>
<text text-anchor="middle" x="11" y="-199.01" font-family="Times,serif" font-size="9.00">x</text>
</g>
<!-- control -->
<g id="node5" class="node">
<title>control</title>
<ellipse fill="lightblue" stroke="black" cx="94" cy="-35.36" rx="35.21" ry="35.21"/>
<text text-anchor="middle" x="94" y="-33.16" font-family="Times,serif" font-size="9.00">control</text>
</g>
<!-- x&#45;&gt;control -->
<g id="edge2" class="edge">
<title>x&#45;&gt;control</title>
<path fill="none" stroke="red" stroke-width="0.2" stroke-dasharray="1,5" d="M10.58,-191.95C10.07,-175.01 10.66,-135.51 25,-106.71 32.96,-90.73 45.89,-76.09 58.42,-64.35"/>
<polygon fill="red" stroke="red" stroke-width="0.2" points="61.03,-66.72 66.13,-57.43 56.35,-61.51 61.03,-66.72"/>
</g>
<!-- 403 -->
<g id="node6" class="node">
<title>403</title>
<ellipse fill="white" stroke="black" cx="59" cy="-131.46" rx="25" ry="25"/>
<text text-anchor="middle" x="59" y="-129.26" font-family="Times,serif" font-size="9.00">403</text>
</g>
<!-- x&#45;&gt;403 -->
<g id="edge4" class="edge">
<title>x&#45;&gt;403</title>
<path fill="none" stroke="green" stroke-width="0.21" d="M16.69,-192.17C22.24,-184.35 30.98,-172.01 39.09,-160.57"/>
<polygon fill="green" stroke="green" stroke-width="0.21" points="42.17,-162.27 45.1,-152.08 36.46,-158.22 42.17,-162.27"/>
</g>
<!-- dx -->
<g id="node2" class="node">
<title>dx</title>
<polygon fill="lightgray" stroke="black" points="73,-210.21 45,-210.21 45,-192.21 73,-192.21 73,-210.21"/>
<text text-anchor="middle" x="59" y="-199.01" font-family="Times,serif" font-size="9.00">dx</text>
</g>
<!-- dx&#45;&gt;403 -->
<g id="edge7" class="edge">
<title>dx&#45;&gt;403</title>
<path fill="none" stroke="green" stroke-width="0.28" d="M59,-192.17C59,-185.74 59,-176.24 59,-166.7"/>
<polygon fill="green" stroke="green" stroke-width="0.28" points="62.5,-166.48 59,-156.48 55.5,-166.48 62.5,-166.48"/>
</g>
<!-- theta -->
<g id="node3" class="node">
<title>theta</title>
<polygon fill="lightgray" stroke="black" points="141.5,-210.21 100.5,-210.21 100.5,-192.21 141.5,-192.21 141.5,-210.21"/>
<text text-anchor="middle" x="121" y="-199.01" font-family="Times,serif" font-size="9.00">theta</text>
</g>
<!-- theta&#45;&gt;control -->
<g id="edge1" class="edge">
<title>theta&#45;&gt;control</title>
<path fill="none" stroke="green" stroke-width="0.61" d="M120.48,-191.9C119.37,-175.52 116.41,-137.91 111,-106.71 109.47,-97.9 107.48,-88.54 105.39,-79.63"/>
<polygon fill="green" stroke="green" stroke-width="0.61" points="108.77,-78.71 103.03,-69.81 101.97,-80.35 108.77,-78.71"/>
</g>
<!-- theta&#45;&gt;403 -->
<g id="edge8" class="edge">
<title>theta&#45;&gt;403</title>
<path fill="none" stroke="red" stroke-width="0.56" d="M113.64,-192.17C105.96,-183.77 93.51,-170.17 82.43,-158.06"/>
<polygon fill="red" stroke="red" stroke-width="0.56" points="84.74,-155.4 75.41,-150.39 79.58,-160.13 84.74,-155.4"/>
</g>
<!-- dtheta -->
<g id="node4" class="node">
<title>dtheta</title>
<polygon fill="lightgray" stroke="black" points="205.5,-140.46 158.5,-140.46 158.5,-122.46 205.5,-122.46 205.5,-140.46"/>
<text text-anchor="middle" x="182" y="-129.26" font-family="Times,serif" font-size="9.00">dtheta</text>
</g>
<!-- dtheta&#45;&gt;control -->
<g id="edge3" class="edge">
<title>dtheta&#45;&gt;control</title>
<path fill="none" stroke="green" stroke-width="0.24" d="M174.5,-122.44C163.56,-110.74 142.61,-88.34 124.83,-69.32"/>
<polygon fill="green" stroke="green" stroke-width="0.24" points="127.33,-66.87 117.94,-61.96 122.21,-71.65 127.33,-66.87"/>
</g>
<!-- 403&#45;&gt;control -->
<g id="edge5" class="edge">
<title>403&#45;&gt;control</title>
<path fill="none" stroke="green" stroke-width="0.26" d="M67.47,-107.68C70.75,-98.86 74.62,-88.47 78.37,-78.39"/>
<polygon fill="green" stroke="green" stroke-width="0.26" points="81.7,-79.48 81.9,-68.88 75.13,-77.04 81.7,-79.48"/>
</g>
<!-- 403&#45;&gt;403 -->
<g id="edge6" class="edge">
<title>403&#45;&gt;403</title>
<path fill="none" stroke="red" stroke-width="0.11" d="M80.56,-143.76C91.7,-145.65 101.75,-141.55 101.75,-131.46 101.75,-124.68 97.21,-120.6 90.86,-119.23"/>
<polygon fill="red" stroke="red" stroke-width="0.11" points="90.58,-115.73 80.56,-119.16 90.53,-122.73 90.58,-115.73"/>
</g>
</g>
</svg>
